<svg width="20" height="20" viewBox="0 0 20 20" fill="none" xmlns="http://www.w3.org/2000/svg">
<path d="M8.22901 1.33959L9.18799 0.322875C9.59404 -0.107625 10.2506 -0.107625 10.6524 0.322875L19.0499 9.22143C19.4559 9.65193 19.4559 10.3481 19.0499 10.774L10.6524 19.6771C10.2463 20.1076 9.58972 20.1076 9.18799 19.6771L8.22901 18.6604C7.81864 18.2253 7.82728 17.5155 8.24629 17.0895L13.4515 11.8319L1.03669 11.8319C0.46217 11.8319 -3.74491e-05 11.3419 -3.74e-05 10.7328L-3.72818e-05 9.26723C-3.72327e-05 8.65812 0.462171 8.16808 1.03669 8.16808L13.4515 8.16808L8.24629 2.91046C7.82296 2.48454 7.81432 1.77467 8.22901 1.33959Z" fill="#005655"/>
</svg>
