<svg width="204" height="181" viewBox="0 0 204 181" fill="none" xmlns="http://www.w3.org/2000/svg">
<path d="M81.0258 96.944C88.9438 90.6029 84.4654 77.3013 86.9076 73.2254C90.471 67.3525 98.1415 65.232 102.73 60.144C109.451 52.7083 107.917 40.7836 102.586 32.3633C97.1577 23.7915 88.5517 17.5676 79.3334 13.1337C70.1152 8.69976 60.1952 5.88383 50.4404 2.75118C43.2653 0.444727 34.8381 -1.89615 28.6399 2.38628C25.7437 4.3898 23.9069 7.52932 22.1665 10.5587C18.376 17.1682 14.4616 24.3286 15.1564 31.8538C15.5073 35.6887 17.062 39.3859 17.0414 43.2415C16.9863 53.4794 6.21335 61.1423 5.18146 71.2976C4.49353 78.1206 8.51104 84.7507 13.987 88.9506C19.4629 93.1504 30.3872 89.9971 38.8075 91.7045C45.6937 93.054 65.9119 109.075 81.0258 96.944Z" fill="#EFEAE8"/>
<path d="M61.0397 86.9897C60.6115 94.4945 51.809 109.248 54.9662 116.395C58.2647 123.843 62.9287 131.087 69.7712 135.823C73.8014 138.545 78.3835 140.333 83.1751 141.056C87.9667 141.778 92.8437 141.414 97.4415 139.993C102.99 138.238 112.789 131.771 118.298 129.913C128.433 126.504 137.233 129.127 148.186 129.229C159.14 129.33 169.112 126.2 175.684 118.082C182.088 110.211 175.828 100.105 172.776 89.9105C169.724 79.7157 172.633 72.5105 169.949 62.2298C168.944 58.3611 166.004 53.4196 163.41 50.2405C159.209 45.0992 126.317 27.0757 113.691 36.954C107.229 42.0106 97.3267 36.1161 90.0737 38.3018C83.3091 40.326 74.8793 46.988 69.5172 51.5729C58.3414 61.1269 61.6681 75.9688 61.0397 86.9897Z" fill="#E39D24"/>
<path d="M22.7265 102.961L34.2769 106.039L34.8069 104.049L23.2565 100.972L22.7265 102.961Z" fill="#005655"/>
<path d="M36.7831 101.547L47.9033 105.182L48.5428 103.225L37.4227 99.5904L36.7831 101.547Z" fill="#005655"/>
<path d="M42.6129 93.1452L41.7119 95.0112L40.7847 94.5542C39.4609 93.9153 37.1916 92.9734 35.0032 92.0743C32.8149 91.1753 30.4825 90.2205 29.0916 89.535L28.1656 89.0826L29.0762 87.234L30.0022 87.6864C31.3259 88.3253 33.5953 89.2672 35.7836 90.1662C37.9719 91.0653 40.3056 92.0247 41.6952 92.7056L42.6129 93.1452Z" fill="#005655"/>
<path d="M48.5626 94.3626L56.1277 96.8571L56.7723 94.9021L49.2073 92.4075L48.5626 94.3626Z" fill="#005655"/>
<path d="M49.4555 113.525L58.1396 117.766L59.0431 115.916L50.3589 111.675L49.4555 113.525Z" fill="#005655"/>
<path d="M51.6415 124.801L50.6372 126.615L49.7362 126.126C47.0731 124.679 44.4963 123.109 41.9972 121.588C40.8774 120.894 39.753 120.202 38.6221 119.541L37.7368 119.018L38.7918 117.245L39.6784 117.773C40.8213 118.46 41.9504 119.151 43.0748 119.843C45.5504 121.351 48.1037 122.907 50.7337 124.324L51.6415 124.801Z" fill="#005655"/>
<path d="M63.0563 96.4237L73.8898 99.0086L74.3676 97.0062L63.5341 94.4213L63.0563 96.4237Z" fill="#005655"/>
<path d="M29.0804 78.5222L38.3799 81.7007L39.0457 79.7527L29.7462 76.5742L29.0804 78.5222Z" fill="#005655"/>
<path d="M48.4346 84.52L55.6152 87.717L56.4525 85.8364L49.2719 82.6394L48.4346 84.52Z" fill="#005655"/>
<path d="M57.9466 77.2478L57.2108 79.1738L56.2478 78.8058C53.9869 77.9391 51.7824 76.932 49.6472 75.7904L48.7428 75.3074L49.7155 73.4868L50.6212 73.9744C52.6778 75.0776 54.803 76.0481 56.9836 76.8798L57.9466 77.2478Z" fill="#005655"/>
<path d="M67.926 79.7935L73.9867 82.2397L74.7572 80.3307L68.6965 77.8845L67.926 79.7935Z" fill="#005655"/>
<path d="M87.0705 95.6845L86.0613 97.4801L85.1624 96.9807C83.358 95.9829 81.3566 95.3931 79.2993 95.253L78.2866 95.1816L78.4313 93.1259L79.444 93.1973C81.8026 93.3601 84.097 94.0374 86.1658 95.1818L87.0705 95.6845Z" fill="#005655"/>
<path d="M69.3644 110.255L68.7491 112.224L67.7673 111.915C65.2271 111.127 62.8257 109.947 60.65 108.417L59.8066 107.829L60.9947 106.144L61.8334 106.734C63.8352 108.141 66.0451 109.225 68.3826 109.947L69.3644 110.255Z" fill="#005655"/>
<path d="M86.4747 107.941L85.3773 109.686L84.5055 109.139C82.1021 107.633 79.5801 106.325 76.9645 105.228L76.0172 104.826L76.8153 102.928L77.7672 103.329C80.4829 104.471 83.1028 105.829 85.6017 107.39L86.4747 107.941Z" fill="#005655"/>
<path d="M99.3755 100.65L107.082 103.963L107.895 102.071L100.188 98.7588L99.3755 100.65Z" fill="#005655"/>
<path d="M90.6792 119.572L89.5041 121.268L88.6621 120.684C85.2593 118.333 81.7036 116.212 78.0187 114.335L77.0995 113.871L78.0336 112.036L78.9528 112.5C82.7168 114.419 86.3483 116.588 89.8232 118.992L90.6792 119.572Z" fill="#005655"/>
<path d="M72.3696 131.689L83.9216 135.651L84.5894 133.704L73.0374 129.742L72.3696 131.689Z" fill="#005655"/>
<path d="M66.0747 119.945L73.3247 123.006L74.1254 121.109L66.8754 118.048L66.0747 119.945Z" fill="#005655"/>
<path d="M46.9261 135.181L46.0882 137.059L45.1465 136.641C42.7984 135.404 40.6422 133.833 38.7452 131.977L38.0432 131.212L39.6069 129.854L40.3088 130.62C42.014 132.254 43.9322 133.65 46.0113 134.77L46.9261 135.181Z" fill="#005655"/>
<path d="M86.746 127.736L95.6121 131.67L96.4492 129.784L87.5832 125.85L86.746 127.736Z" fill="#005655"/>
<path d="M101.312 112.699L100.252 114.473L99.3692 113.94C97.6872 112.933 95.9393 112.04 94.1374 111.268L93.1889 110.861L94.0033 108.969L94.9459 109.372C96.8364 110.185 98.6699 111.124 100.434 112.184L101.312 112.699Z" fill="#005655"/>
<path d="M83.7199 87.253L96.1653 90.2363L96.6452 88.2344L84.1998 85.2511L83.7199 87.253Z" fill="#005655"/>
<path d="M76.1972 72.6703L83.473 77.2717L84.5733 75.5318L77.2975 70.9305L76.1972 72.6703Z" fill="#005655"/>
<path d="M55.5473 68.5734L66.7138 72.6886L67.4256 70.7569L56.2591 66.6418L55.5473 68.5734Z" fill="#005655"/>
<path d="M45.3907 68.1923L44.7052 70.1396L43.7333 69.7939C40.7714 68.7458 37.9184 67.4122 35.2145 65.812L34.3292 65.2891L35.3796 63.5173L36.2649 64.0402C38.8559 65.5724 41.5903 66.848 44.4292 67.8488L45.3907 68.1923Z" fill="#005655"/>
<path d="M55.2602 59.472L54.3274 61.3117L53.4081 60.8476C50.8396 59.5474 48.1631 58.4727 45.4086 57.6357L44.4247 57.338L45.0235 55.3642L46.0087 55.6666C48.8823 56.5349 51.6749 57.6517 54.3549 59.0042L55.2602 59.472Z" fill="#005655"/>
<path d="M57.8553 50.3542L67.8019 55.0368L68.6787 53.1743L58.7322 48.4916L57.8553 50.3542Z" fill="#005655"/>
<path d="M88.138 65.8692L87.1201 67.6324L86.2302 67.1107C83.2503 65.3672 80.0668 63.9977 76.7518 63.0332L75.7598 62.7426L76.3376 60.7645L77.3296 61.0551C80.8087 62.0721 84.1496 63.5127 87.2772 65.3448L88.138 65.8692Z" fill="#005655"/>
<path d="M108.931 68.8275L108.101 70.7144L107.159 70.2961C103.08 68.4976 98.8591 66.8715 94.604 65.4532L93.6278 65.1285L94.2805 63.1702L95.2579 63.4994C99.5726 64.9366 103.856 66.5907 107.999 68.4067L108.931 68.8275Z" fill="#005655"/>
<path d="M102.652 77.1324L101.511 78.8441L100.653 78.2742C98.0102 76.5311 95.046 75.3339 91.9343 74.7531L90.9242 74.5617L91.301 72.5381L92.3158 72.7283C95.698 73.361 98.9192 74.6652 101.789 76.5638L102.652 77.1324Z" fill="#005655"/>
<path d="M97.3528 83.5195L105.997 87.2994L106.821 85.4133L98.1776 81.6333L97.3528 83.5195Z" fill="#005655"/>
<path d="M130.514 87.8195L129.343 89.5142L128.495 88.9267C125.236 86.6812 121.607 85.0253 117.775 84.0343L116.782 83.774L117.301 81.7818L118.299 82.0409C122.366 83.0915 126.216 84.8477 129.675 87.2295L130.514 87.8195Z" fill="#005655"/>
<path d="M119.01 102.741L127.565 106.694L128.429 104.825L119.873 100.872L119.01 102.741Z" fill="#005655"/>
<path d="M119.555 93.8111L118.439 95.5409L117.573 94.9782C115.955 93.941 114.123 93.2838 112.214 93.0558L111.188 92.9333L111.433 90.8806L112.459 91.003C114.683 91.272 116.817 92.0442 118.698 93.261L119.555 93.8111Z" fill="#005655"/>
<path d="M113.341 110.856L121.098 114.612L121.995 112.759L114.238 109.003L113.341 110.856Z" fill="#005655"/>
<path d="M108.351 123.357L107.118 125.004L106.291 124.386C104.557 123.098 102.541 122.242 100.411 121.888L99.3732 121.724L99.7186 119.694L100.733 119.864C103.187 120.273 105.509 121.26 107.506 122.744L108.351 123.357Z" fill="#005655"/>
<path d="M122.608 120.982L121.474 122.702L120.617 122.137C119.238 121.248 117.642 120.755 116.003 120.71L114.971 120.679L115.03 118.621L116.061 118.648C118.083 118.706 120.049 119.318 121.747 120.418L122.608 120.982Z" fill="#005655"/>
<path d="M60.4499 132.852L66.8308 136.366L67.8238 134.562L61.4429 131.049L60.4499 132.852Z" fill="#005655"/>
<path d="M60.6475 146.355L70.2997 149.477L70.9331 147.518L61.2809 144.397L60.6475 146.355Z" fill="#005655"/>
<path d="M95.8664 149.554L95.3692 151.556L94.3736 151.326C91.5281 150.615 88.7813 149.556 86.1958 148.171L85.2902 147.684L86.2651 145.853L87.1707 146.34C89.6046 147.639 92.19 148.632 94.8679 149.295L95.8664 149.554Z" fill="#005655"/>
<path d="M102.535 133.735L109.875 137.686L110.85 135.873L103.511 131.923L102.535 133.735Z" fill="#005655"/>
<path d="M121.14 134.175L127.51 136.634L128.252 134.714L121.882 132.254L121.14 134.175Z" fill="#005655"/>
<path d="M26.3939 115.232L25.3822 117.018L24.4972 116.515C21.1074 114.586 17.4913 113.085 13.7318 112.047L12.739 111.771L13.2899 109.786L14.2828 110.061C18.2063 111.146 21.9802 112.713 25.5182 114.726L26.3939 115.232Z" fill="#005655"/>
</svg>
