<svg width="132" height="112" viewBox="0 0 132 112" fill="none" xmlns="http://www.w3.org/2000/svg">
<path d="M64.815 70.1537C64.5732 74.4279 59.6023 82.8304 61.3852 86.9008C63.2479 91.1426 65.8817 95.2684 69.7458 97.9655C72.0217 99.5156 74.6093 100.534 77.3152 100.946C80.0211 101.357 82.7752 101.15 85.3716 100.34C88.5047 99.3411 94.0384 95.658 97.1496 94.5997C102.873 92.658 107.842 94.152 114.028 94.2099C120.213 94.2678 125.845 92.4852 129.556 87.8616C133.173 83.3788 129.637 77.6234 127.914 71.8172C126.191 66.011 127.833 61.9074 126.317 56.0523C125.75 53.849 124.09 51.0347 122.625 49.2241C120.253 46.2961 101.678 36.0312 94.5482 41.6571C90.899 44.537 85.3068 41.1799 81.2109 42.4247C77.3909 43.5776 72.6305 47.3717 69.6024 49.9829C63.2912 55.4242 65.1699 63.8771 64.815 70.1537Z" fill="#A1716A"/>
<path d="M104.639 56.9368C106.302 48.2503 95.8989 41.9447 95.2237 37.8572C94.2804 31.9423 98.1445 26.1993 98.3161 20.2266C98.5769 11.4893 90.885 4.43471 82.6554 1.85389C74.2776 -0.773127 65.1217 -0.0446111 56.5655 2.21899C48.0094 4.4826 39.8976 8.21749 31.7171 11.6487C25.6987 14.171 18.8364 17.378 17.1532 23.7252C16.3681 26.6926 16.9173 29.8161 17.4683 32.8119C18.6749 39.3445 20.1085 46.3129 24.7826 50.9192C27.1624 53.2684 30.258 54.8459 32.4046 57.4187C38.1047 64.2507 35.3023 75.4286 40.3126 82.7577C43.6824 87.6789 50.0435 89.813 56.0035 89.5086C61.9635 89.2042 67.3923 80.9365 73.8952 77.3127C79.1871 74.3179 101.481 73.5358 104.639 56.9368Z" fill="#E39D24"/>
<path d="M14.4193 100.551L22.9191 96.1348L22.1548 94.6687L13.6551 99.0853L14.4193 100.551Z" fill="#005655"/>
<path d="M21.968 92.1167L30.5151 88.2629L29.8332 86.7569L21.2862 90.6106L21.968 92.1167Z" fill="#005655"/>
<path d="M20.8643 83.9835L21.3423 85.577L20.5463 85.8071C19.4171 86.1435 17.5644 86.8113 15.7828 87.4607C14.0013 88.1101 12.1043 88.8042 10.9102 89.1493L10.1173 89.3815L9.65437 87.7931L10.4472 87.5609C11.5764 87.2245 13.4291 86.5567 15.2106 85.9073C16.9922 85.258 18.8924 84.5659 20.0833 84.2187L20.8643 83.9835Z" fill="#005655"/>
<path d="M25.0433 81.4903L30.8697 78.8815L30.1918 77.3737L24.3654 79.9824L25.0433 81.4903Z" fill="#005655"/>
<path d="M35.9537 92.3722L43.3884 90.1945L42.9206 88.6093L35.4859 90.7869L35.9537 92.3722Z" fill="#005655"/>
<path d="M43.356 97.878L43.7448 99.4966L42.947 99.6936C40.5874 100.274 38.2126 100.736 35.9102 101.184C34.872 101.378 33.8318 101.575 32.8049 101.794L31.9979 101.963L31.6613 100.341L32.4715 100.175C33.52 99.9647 34.5623 99.7643 35.6025 99.5673C37.8837 99.1236 40.2373 98.6668 42.5605 98.0857L43.356 97.878Z" fill="#005655"/>
<path d="M34.7333 74.8803L42.5421 70.5588L41.7398 69.1131L33.931 73.4345L34.7333 74.8803Z" fill="#005655"/>
<path d="M4.93686 82.6242L12.1598 79.4838L11.4982 77.9688L4.27529 81.1092L4.93686 82.6242Z" fill="#005655"/>
<path d="M19.6349 75.7223L25.6145 73.7379L25.0909 72.1701L19.1112 74.1545L19.6349 75.7223Z" fill="#005655"/>
<path d="M21.3214 66.2692L21.9296 67.809L21.1606 68.1113C19.3537 68.819 17.504 69.413 15.6225 69.8899L14.8258 70.0922L14.4148 68.4868L15.2147 68.2866C17.029 67.8294 18.8119 67.2565 20.5524 66.5714L21.3214 66.2692Z" fill="#005655"/>
<path d="M28.6037 62.386L33.5141 60.5616L32.9355 59.0131L28.0252 60.8375L28.6037 62.386Z" fill="#005655"/>
<path d="M48.5378 61.4647L48.9137 63.0749L48.1114 63.2645C46.5034 63.6478 45 64.3796 43.7072 65.4083L43.0695 65.9132L42.0413 64.6159L42.679 64.1109C44.1624 62.9329 45.8865 62.0948 47.7303 61.6554L48.5378 61.4647Z" fill="#005655"/>
<path d="M45.9587 79.6744L46.6611 81.1741L45.9134 81.5218C43.9839 82.4273 41.9239 83.025 39.8081 83.2935L38.9903 83.4001L38.7804 81.7591L39.5961 81.6558C41.5423 81.4081 43.4369 80.8569 45.211 80.0221L45.9587 79.6744Z" fill="#005655"/>
<path d="M54.8259 69.0554L55.122 70.6831L54.3103 70.8302C52.0727 71.2359 49.8722 71.823 47.7307 72.5858L46.9525 72.8594L46.3963 71.3025L47.1765 71.0258C49.4018 70.2357 51.6873 69.6252 54.011 69.2003L54.8259 69.0554Z" fill="#005655"/>
<path d="M58.5069 57.7599L64.86 55.5599L64.3161 53.9989L57.963 56.1989L58.5069 57.7599Z" fill="#005655"/>
<path d="M63.6146 73.6811L63.8384 75.3219L63.0238 75.4305C59.7376 75.8754 56.4852 76.5391 53.2883 77.4171L52.4931 77.6386L52.0514 76.0455L52.8466 75.824C56.113 74.9282 59.4361 74.2519 62.7938 73.7995L63.6146 73.6811Z" fill="#005655"/>
<path d="M59.3492 90.7618L68.329 86.8687L67.669 85.3529L58.6892 89.246L59.3492 90.7618Z" fill="#005655"/>
<path d="M49.2623 87.1983L55.2094 85.0957L54.6555 83.5383L48.7085 85.6408L49.2623 87.1983Z" fill="#005655"/>
<path d="M46.1904 106.582L46.7127 108.149L45.929 108.41C43.8699 108.945 41.7434 109.179 39.6157 109.103L38.7856 109.029L38.9748 107.378L39.805 107.453C41.6989 107.501 43.5899 107.292 45.4267 106.833L46.1904 106.582Z" fill="#005655"/>
<path d="M65.7114 80.6484L73.0873 78.1903L72.5603 76.619L65.1844 79.0771L65.7114 80.6484Z" fill="#005655"/>
<path d="M66.1803 63.8591L66.5148 65.484L65.7034 65.6449C64.1629 65.9566 62.6454 66.3717 61.1612 66.8876L60.3798 67.159L59.8362 65.5966L60.6123 65.3263C62.1709 64.7867 63.7644 64.353 65.3819 64.0283L66.1803 63.8591Z" fill="#005655"/>
<path d="M41.9877 58.275L50.9658 53.3187L50.165 51.8722L41.1869 56.8284L41.9877 58.275Z" fill="#005655"/>
<path d="M29.6369 53.6919L36.4338 52.4889L36.142 50.8625L29.3451 52.0655L29.6369 53.6919Z" fill="#005655"/>
<path d="M15.2024 62.4214L24.0372 58.8275L23.4117 57.2973L14.5769 60.8912L15.2024 62.4214Z" fill="#005655"/>
<path d="M8.98802 67.684L9.6376 69.2092L8.8754 69.5295C6.55546 70.5085 4.14531 71.2593 1.67893 71.7715L0.871966 71.9399L0.533325 70.3214L1.34029 70.1531C3.70308 69.6616 6.01166 68.9404 8.2332 67.9998L8.98802 67.684Z" fill="#005655"/>
<path d="M10.1015 57.1789L10.5464 58.7741L9.7512 58.9956C7.52743 59.6125 5.36193 60.4216 3.27909 61.4137L2.53576 61.7688L1.82062 60.2746L2.56719 59.9216C4.73746 58.8836 6.9944 58.0368 9.31247 57.3907L10.1015 57.1789Z" fill="#005655"/>
<path d="M6.69648 50.3691L15.1171 47.7711L14.6267 46.1926L6.20604 48.7907L6.69648 50.3691Z" fill="#005655"/>
<path d="M33.0154 43.2057L33.3685 44.8014L32.5595 44.973C29.8522 45.5493 27.2271 46.4574 24.7436 47.6769L23.9994 48.0406L23.2695 46.5552L24.0137 46.1915C26.6226 44.9145 29.3794 43.9635 32.222 43.3598L33.0154 43.2057Z" fill="#005655"/>
<path d="M46.918 33.7233L47.4489 35.2913L46.6652 35.5521C43.2782 36.6896 39.9002 38.0064 36.6148 39.4647L35.8614 39.7997L35.1864 38.2856L35.943 37.9526C39.2739 36.4733 42.7039 35.1395 46.1384 33.9777L46.918 33.7233Z" fill="#005655"/>
<path d="M47.703 42.0422L47.9554 43.6739L47.139 43.7997C44.6316 44.1938 42.2296 45.0856 40.0742 46.4228L39.3731 46.8551L38.4996 45.4514L39.2029 45.0158C41.5463 43.5633 44.1583 42.596 46.8845 42.1712L47.703 42.0422Z" fill="#005655"/>
<path d="M48.029 48.6936L55.1899 46.2642L54.6559 44.6999L47.495 47.1293L48.029 48.6936Z" fill="#005655"/>
<path d="M69.9743 33.3235L70.2002 34.9611L69.3802 35.0709C66.2355 35.5007 63.1921 36.4794 60.3884 37.9626L59.6595 38.3452L58.8873 36.8831L59.6183 36.4972C62.5928 34.9228 65.8219 33.8836 69.1585 33.4269L69.9743 33.3235Z" fill="#005655"/>
<path d="M71.2537 48.3892L78.4562 46.1104L77.9545 44.5355L70.752 46.8143L71.2537 48.3892Z" fill="#005655"/>
<path d="M66.7384 42.7988L67.0153 44.4279L66.198 44.5622C64.6789 44.8217 63.2391 45.4219 61.9866 46.318L61.3131 46.8001L60.3458 45.4504L61.0192 44.9683C62.4806 43.926 64.161 43.231 65.9329 42.9361L66.7384 42.7988Z" fill="#005655"/>
<path d="M72.2971 56.2653L78.9205 54.3014L78.4475 52.7177L71.824 54.6816L72.2971 56.2653Z" fill="#005655"/>
<path d="M76.1184 66.3761L76.2814 68.019L75.4576 68.099C73.7342 68.2726 72.0779 68.8541 70.6257 69.7954L69.923 70.2588L69.0274 68.8683L69.7198 68.4211C71.3929 67.3373 73.3011 66.6681 75.2864 66.469L76.1184 66.3761Z" fill="#005655"/>
<path d="M83.2655 57.263L83.5265 58.8957L82.7133 59.0235C81.4163 59.2419 80.2049 59.8119 79.2108 60.6715L78.5834 61.2104L77.5037 59.9578L78.1279 59.4168C79.3552 58.3587 80.8504 57.659 82.4503 57.3941L83.2655 57.263Z" fill="#005655"/>
<path d="M52.9284 97.8927L58.6065 96.5283L58.2169 94.9222L52.5388 96.2866L52.9284 97.8927Z" fill="#005655"/>
<path d="M60.3614 105.794L67.762 102.429L67.0754 100.925L59.6748 104.29L60.3614 105.794Z" fill="#005655"/>
<path d="M82.9274 88.6592L83.7175 90.1146L83.004 90.5162C80.9359 91.6327 78.7372 92.4887 76.4577 93.0649L75.6578 93.2651L75.2424 91.6523L76.0423 91.4521C78.1858 90.9073 80.2529 90.0988 82.1964 89.0451L82.9274 88.6592Z" fill="#005655"/>
<path d="M78.3014 75.6738L84.7833 74.0503L84.3783 72.448L77.8964 74.0715L78.3014 75.6738Z" fill="#005655"/>
<path d="M89.5447 65.8801L94.6453 63.8962L94.0434 62.3566L88.9428 64.3405L89.5447 65.8801Z" fill="#005655"/>
<path d="M23.2367 105.847L23.6061 107.453L22.81 107.633C19.7598 108.321 16.8077 109.385 14.0214 110.8L13.2848 111.174L12.5348 109.698L13.2714 109.325C16.1799 107.848 19.2612 106.738 22.4448 106.02L23.2367 105.847Z" fill="#005655"/>
</svg>
