<svg width="143" height="153" viewBox="0 0 143 153" fill="none" xmlns="http://www.w3.org/2000/svg">
<path d="M35.1496 18.7285C40.8202 16.1336 47.6181 16.3455 53.6787 17.2525C85.7268 22.0485 101.068 3.30169 128.447 0.189881C131.536 -0.161266 135.679 -0.233016 138.222 1.85924C151.423 12.7186 140.22 35.2365 160.978 51.0614C166.941 55.6065 172.822 62.7652 175.756 69.6879C177.853 74.6366 177.258 80.3964 174.276 84.8351C170.573 90.3475 165.308 95.5131 160.133 99.6309C138.025 117.222 124.932 105.25 95.2857 124.558C91.642 126.931 76.6215 153 67.7805 153C58.9396 153 48.5886 147.895 46.2811 145.846C40.8758 141.046 35.7203 135.943 30.3235 131.12C22.1806 123.844 13.5109 116.237 7.6377 106.941C0.907506 96.2884 -3.46226 81.44 3.62188 69.7933C6.5977 64.9009 10.5485 62.6345 15.5284 60.2341C18.9025 58.6077 21.1294 56.6773 21.1294 52.801C21.1294 44.702 19.9386 35.14 23.8066 27.7255C26.0898 23.349 30.8145 20.7123 35.1496 18.7285Z" fill="#E39D24"/>
</svg>
