<svg width="184" height="164" viewBox="0 0 184 164" fill="none" xmlns="http://www.w3.org/2000/svg">
<path d="M101.38 126.02C103.298 115.9 91.2972 108.554 90.5183 103.792C89.43 96.9014 93.8879 90.2107 94.0859 83.2525C94.3867 73.0733 85.5129 64.8547 76.0188 61.848C66.3535 58.7875 55.7908 59.6362 45.9199 62.2733C36.049 64.9105 26.6907 69.2617 17.2532 73.2591C10.3101 76.1976 2.39325 79.9337 0.451408 87.3283C-0.454307 90.7854 0.179332 94.4243 0.814944 97.9145C2.20696 105.525 3.86091 113.643 9.25316 119.01C11.9986 121.747 15.5699 123.584 18.0464 126.582C24.6223 134.541 21.3893 147.564 27.1695 156.102C31.0571 161.835 38.3957 164.322 45.2715 163.967C52.1473 163.612 58.4103 153.98 65.9125 149.758C72.0175 146.27 97.7371 145.358 101.38 126.02Z" fill="#EFEAE8"/>
<path d="M57.8043 81.5175C57.4224 88.3353 49.5705 101.738 52.3867 108.231C55.329 114.997 59.4893 121.579 65.593 125.881C69.1879 128.353 73.2752 129.978 77.5493 130.634C81.8235 131.29 86.1739 130.96 90.2751 129.669C95.2241 128.075 103.965 122.2 108.879 120.512C117.92 117.415 125.77 119.798 135.54 119.89C145.311 119.982 154.206 117.139 160.068 109.764C165.781 102.613 160.196 93.4325 157.474 84.1709C154.752 74.9093 157.347 68.3636 154.952 59.024C154.056 55.5094 151.434 51.0202 149.12 48.1321C145.373 43.4615 116.032 27.0878 104.77 36.0618C99.006 40.6556 90.1727 35.3006 83.703 37.2863C77.6689 39.1252 70.1494 45.1774 65.3663 49.3426C55.3974 58.0221 58.3648 71.5054 57.8043 81.5175Z" fill="#005655"/>
<path d="M102.644 85.1677C101.6 85.1689 100.565 84.9805 99.5865 84.6115C97.7849 83.8959 96.2516 82.6197 95.2055 80.965C94.1594 79.3103 93.654 77.3617 93.7615 75.3975L96.8951 75.62C96.8124 76.8973 97.1363 78.1677 97.8188 79.2432C98.5013 80.3187 99.5062 81.142 100.685 81.5913C101.863 82.0406 103.152 82.0919 104.362 81.7378C105.571 81.3836 106.636 80.6427 107.399 79.6248L109.91 81.5595C109.049 82.6845 107.947 83.5945 106.688 84.2199C105.429 84.8453 104.045 85.1695 102.644 85.1677Z" fill="#E39D24"/>
<path d="M150.814 37.5452C149.615 35.2478 147.167 33.6033 144.261 33.1438C141.356 32.6843 138.531 33.4969 136.705 35.3155L134.504 33.0325C137.038 30.5126 140.861 29.376 144.741 29.9854C148.622 30.5948 151.926 32.8874 153.586 36.0507L150.814 37.5452Z" fill="#E39D24"/>
<path d="M116.686 21.7193C115.911 21.7206 115.139 21.6115 114.394 21.3952C112.746 20.8847 111.282 19.8935 110.183 18.5445C109.085 17.1954 108.399 15.5479 108.212 13.8064L111.336 13.5016C111.441 14.6152 111.872 15.671 112.575 16.5317C113.277 17.3924 114.218 18.0182 115.274 18.3276C116.331 18.6371 117.455 18.6158 118.5 18.2666C119.544 17.9175 120.462 17.2565 121.132 16.3698L123.619 18.3045C122.793 19.3708 121.74 20.2323 120.539 20.8238C119.338 21.4154 118.02 21.7216 116.686 21.7193Z" fill="#E39D24"/>
<path d="M83.9038 22.6214C83.586 22.6209 83.2686 22.6031 82.9527 22.5682C81.9147 22.46 80.9079 22.1446 79.9899 21.6399C79.0719 21.1353 78.2609 20.4514 77.6032 19.6274C76.9742 18.7754 76.5178 17.8047 76.2607 16.7718C76.0035 15.7389 75.9507 14.6643 76.1053 13.6105C76.2325 12.5537 76.5649 11.5331 77.0833 10.6081C77.6017 9.6831 78.2956 8.87214 79.1248 8.22235L80.9889 10.781C80.4953 11.1761 80.0836 11.6668 79.7776 12.2247C79.4715 12.7826 79.2771 13.3966 79.2057 14.0313C79.1078 14.6626 79.1339 15.3074 79.2824 15.9283C79.431 16.5493 79.699 17.1342 80.0711 17.6492C80.8974 18.6211 82.054 19.2398 83.3095 19.3815C84.565 19.5232 85.8268 19.1774 86.8424 18.4134L88.8396 20.885C87.4396 22.024 85.6964 22.6372 83.9038 22.6214Z" fill="#E39D24"/>
<path d="M50.8128 77.6806C50.1281 75.0349 47.9597 72.8438 44.9592 71.8329C41.9587 70.8221 38.925 71.2284 36.8327 72.9261L34.8878 70.4158C37.8313 68.0506 41.973 67.446 45.9626 68.8051C49.9522 70.1643 52.9051 73.1582 53.8609 76.868L50.8128 77.6806Z" fill="#E39D24"/>
<path d="M144.841 18.6239C143.781 15.3736 142.725 12.5537 140.562 10.9915C139.96 10.5911 139.278 10.3333 138.565 10.2371C137.852 10.1408 137.127 10.2085 136.444 10.4352C136.066 10.5438 135.72 10.744 135.435 11.0186C135.15 11.2933 134.935 11.6342 134.808 12.012L131.779 11.1124C132.041 10.243 132.509 9.45188 133.14 8.80789C133.772 8.16391 134.548 7.68649 135.402 7.41711C136.558 7.02134 137.788 6.90272 138.997 7.07053C140.205 7.23833 141.359 7.68802 142.369 8.38446C145.559 10.6868 146.867 14.6722 147.823 17.6227L144.841 18.6239Z" fill="#E39D24"/>
<path d="M71.5121 52.2827C69.6512 52.3172 67.8299 51.7338 66.3243 50.6209C64.8187 49.508 63.7107 47.9262 63.1683 46.1152C62.6259 44.3042 62.6786 42.3628 63.3185 40.585C63.9583 38.8073 65.1504 37.2901 66.7141 36.2634L68.407 38.9526C67.3265 39.7312 66.5458 40.8678 66.1988 42.1676C65.8518 43.4675 65.96 44.8496 66.5049 46.0772C67.149 47.2539 68.1753 48.1662 69.4081 48.6577C70.6409 49.1492 72.0033 49.1893 73.262 48.7712L74.3604 51.7652C73.4493 52.1105 72.4844 52.2858 71.5121 52.2827Z" fill="#E39D24"/>
<path d="M88.5208 48.1885C87.2528 48.196 86.0154 47.7928 84.9877 47.0373C82.6482 45.2623 81.6591 41.9104 82.4913 38.6939L85.525 39.521C85.0923 41.151 85.4157 43.3904 86.866 44.469C87.2156 44.7128 87.6128 44.877 88.0305 44.9504C88.4482 45.0239 88.8766 45.0049 89.2864 44.8947C89.5866 44.8335 89.8699 44.7061 90.1164 44.5214C90.3629 44.3367 90.5665 44.0992 90.7129 43.8257L93.566 45.1945C93.2223 45.8963 92.7296 46.5115 92.1235 46.9958C91.5174 47.4802 90.8131 47.8215 90.0615 47.995C89.5579 48.1251 89.0403 48.1901 88.5208 48.1885Z" fill="#E39D24"/>
<path d="M109.985 40.5888H106.842C106.842 39.5417 106.52 38.5208 105.922 37.6691C105.323 36.8173 104.477 36.1776 103.503 35.8394C102.529 35.5013 101.475 35.4817 100.489 35.7835C99.5034 36.0853 98.6353 36.6933 98.0065 37.5223L95.5148 35.5876C96.5459 34.236 97.9659 33.2453 99.5768 32.7534C101.188 32.2615 102.909 32.293 104.502 32.8434C106.094 33.3938 107.478 34.4358 108.461 35.8241C109.444 37.2124 109.977 38.878 109.985 40.5888Z" fill="#E39D24"/>
<path d="M123.348 44.665C123.161 43.5904 122.756 42.5674 122.157 41.6619C121.558 40.7564 120.78 39.9884 119.872 39.4075C118.954 38.8319 117.713 38.5223 117.114 39.0399L115.083 36.6215C117.047 34.9335 119.782 35.6154 121.527 36.7134C122.811 37.5359 123.913 38.6225 124.761 39.9036C125.608 41.1847 126.183 42.6319 126.448 44.1523L123.348 44.665Z" fill="#E39D24"/>
<path d="M143.5 53.192C142.35 53.2105 141.219 52.8895 140.244 52.268C139.269 51.6464 138.492 50.7508 138.007 49.6896C137.522 48.6283 137.35 47.4469 137.512 46.2882C137.673 45.1295 138.161 44.0432 138.916 43.1606L141.294 45.2501C140.879 45.7749 140.656 46.4302 140.664 47.1038C140.672 47.7773 140.909 48.4271 141.337 48.9418C141.764 49.4564 142.354 49.8039 143.006 49.9246C143.657 50.0452 144.33 49.9316 144.908 49.6031L146.529 52.3407C145.615 52.8996 144.567 53.1939 143.5 53.192Z" fill="#E39D24"/>
<path d="M131.417 74.6236C130.15 74.6393 128.902 74.2983 127.813 73.6384C126.723 72.9785 125.835 72.0252 125.244 70.8839C124.654 69.7425 124.385 68.4574 124.468 67.1705C124.55 65.8836 124.98 64.6448 125.711 63.591L128.279 65.4289C127.841 66.0636 127.604 66.8188 127.599 67.594C127.594 68.3692 127.821 69.1276 128.25 69.7683C128.679 70.409 129.29 70.9016 130.001 71.1805C130.712 71.4595 131.49 71.5115 132.231 71.3298L132.972 74.4398C132.463 74.5631 131.941 74.6247 131.417 74.6236Z" fill="#E39D24"/>
<path d="M109.03 66.0289L105.93 65.5452C106.164 64.2108 106.846 63 107.858 62.1184C108.87 61.2368 110.152 60.7386 111.484 60.7084C112.812 60.7318 114.092 61.2204 115.107 62.0918C116.122 62.9632 116.811 64.1641 117.057 65.492L113.957 66.0289C113.837 65.4443 113.529 64.9172 113.081 64.5316C112.633 64.1459 112.07 63.9238 111.484 63.9007C110.901 63.9288 110.344 64.1531 109.9 64.5383C109.455 64.9235 109.15 65.4478 109.03 66.0289Z" fill="#E39D24"/>
<path d="M151.551 78.4399C150.971 76.2972 150.229 73.8691 148.726 72.1521C147.561 70.8172 145.478 69.6902 143.652 70.3818L142.564 67.3831C145.792 66.1739 149.168 67.8426 151.075 70.0336C152.982 72.2247 153.928 75.1074 154.58 77.5983L151.551 78.4399Z" fill="#E39D24"/>
<path d="M133.842 100.365C133.362 100.363 132.887 100.265 132.444 100.075C130.73 99.2867 129.311 97.958 128.397 96.2853C127.483 94.6126 127.123 92.685 127.371 90.788L130.476 91.2717C130.331 92.4676 130.562 93.6794 131.137 94.7329C131.712 95.7863 132.601 96.627 133.676 97.1338C133.727 97.1527 133.779 97.1656 133.833 97.1725C133.658 97.2152 133.499 97.3073 133.373 97.4383C133.248 97.5693 133.162 97.7337 133.124 97.9126L136.196 98.5849C136.131 98.9042 135.996 99.2044 135.801 99.4632C135.606 99.722 135.356 99.9326 135.069 100.079C134.688 100.27 134.268 100.368 133.842 100.365Z" fill="#E39D24"/>
<path d="M72.6512 83.5066C71.5058 83.2597 70.4716 82.6375 69.7073 81.7353C68.943 80.8331 68.4909 79.7008 68.4201 78.512C68.3494 77.3233 68.6641 76.1437 69.3158 75.1544C69.9676 74.165 70.9205 73.4205 72.0283 73.035L73.0411 76.058C72.585 76.2185 72.1931 76.5263 71.9251 76.9346C71.6571 77.3428 71.5278 77.8291 71.5569 78.3191C71.586 78.8091 71.7719 79.2759 72.0862 79.6484C72.4006 80.0209 72.8261 80.2785 73.2979 80.382L72.6512 83.5066Z" fill="#E39D24"/>
<path d="M102.226 112.621C101.239 112.627 100.264 112.407 99.3725 111.978C97.3278 110.967 95.7348 109.047 94.5032 106.111L97.3943 104.858C98.3026 107.025 99.4295 108.452 100.747 109.1C101.964 109.7 103.838 109.487 104.427 108.312L107.223 109.763C106.253 111.717 104.232 112.621 102.226 112.621Z" fill="#E39D24"/>
<path d="M51.7307 8.29261C51.6974 7.56197 51.5104 6.84709 51.1823 6.19626C50.8542 5.54543 50.3926 4.97379 49.8287 4.51994C49.2992 4.03415 48.6746 3.66791 47.996 3.44532C47.3174 3.22274 46.6001 3.14885 45.8914 3.22852C45.0783 3.35428 44.4316 3.7122 44.2461 4.16685L41.355 2.88995C41.9827 1.43893 43.5043 0.365166 45.4254 0.0701237C46.5824 -0.0838856 47.7585 0.016474 48.8742 0.364424C49.9898 0.712373 51.0191 1.29981 51.8924 2.08705C52.793 2.83998 53.5246 3.78035 54.038 4.8449C54.5515 5.90945 54.8349 7.0735 54.8691 8.25875L51.7307 8.29261Z" fill="#E39D24"/>
<path d="M38.8679 45.6902C36.9919 45.6983 35.1649 45.0817 33.6658 43.9345C32.5432 43.0373 31.6572 41.8708 31.087 40.5396C30.5169 39.2083 30.2805 37.754 30.399 36.3069L33.5279 36.6116C33.4565 37.5215 33.608 38.4352 33.969 39.2709C34.33 40.1066 34.8892 40.8381 35.5964 41.4C36.314 41.946 37.1533 42.3028 38.0394 42.4387C38.9255 42.5745 39.8309 42.4852 40.6749 42.1787L41.7686 45.1727C40.8399 45.5203 39.8575 45.6956 38.8679 45.6902Z" fill="#E39D24"/>
<path d="M177.899 58.3868C175.832 58.3862 173.824 57.6933 172.183 56.4152C170.542 55.137 169.361 53.3448 168.822 51.3154L171.851 50.4738C172.129 51.5114 172.66 52.4611 173.393 53.2355C174.127 54.01 175.041 54.5842 176.05 54.9055C177.059 55.2268 178.131 55.2847 179.168 55.0741C180.205 54.8634 181.173 54.3909 181.984 53.7L184 56.1474C182.287 57.5979 180.128 58.3905 177.899 58.3868Z" fill="#E39D24"/>
<path d="M181.532 43.4459L178.398 43.2234C178.449 42.4924 178.268 41.7641 177.88 41.1463C177.493 40.5286 176.92 40.0543 176.246 39.7937C175.573 39.5332 174.835 39.5003 174.141 39.6999C173.448 39.8994 172.837 40.3209 172.397 40.9018L169.91 38.9671C170.76 37.8418 171.944 37.0251 173.286 36.6379C174.628 36.2507 176.057 36.3136 177.361 36.8173C178.666 37.321 179.776 38.2387 180.527 39.4344C181.278 40.6301 181.63 42.0401 181.532 43.4556V43.4459Z" fill="#E39D24"/>
</svg>
