<svg width="335" height="298" viewBox="0 0 335 298" fill="none" xmlns="http://www.w3.org/2000/svg">
<path d="M184.121 228.871C187.605 210.492 165.809 197.15 164.394 188.502C162.418 175.987 170.514 163.836 170.874 151.199C171.42 132.712 155.304 117.785 138.061 112.325C120.508 106.767 101.324 108.308 83.3972 113.097C65.4702 117.887 48.4743 125.789 31.3344 133.049C18.7246 138.386 4.34648 145.171 0.819823 158.601C-0.825087 164.88 0.325693 171.488 1.48006 177.827C4.00816 191.649 7.01197 206.393 16.8051 216.139C21.7912 221.109 28.2772 224.447 32.7749 229.891C44.7177 244.346 38.8461 267.997 49.3438 283.504C56.4042 293.916 69.7321 298.432 82.2196 297.788C94.7071 297.144 106.082 279.65 119.707 271.983C130.794 265.647 177.505 263.992 184.121 228.871Z" fill="#EFEAE8"/>
<path d="M104.981 148.047C104.287 160.43 90.0272 184.771 95.1418 196.563C100.486 208.852 108.041 220.804 119.126 228.618C125.655 233.108 133.078 236.059 140.841 237.251C148.603 238.442 156.504 237.843 163.953 235.498C172.941 232.603 188.816 221.933 197.741 218.867C214.16 213.242 228.416 217.57 246.161 217.738C263.905 217.905 280.06 212.741 290.707 199.347C301.082 186.36 290.94 169.687 285.996 152.867C281.053 136.046 285.764 124.158 281.416 107.196C279.789 100.813 275.026 92.6601 270.823 87.4149C264.018 78.9324 210.732 49.1954 190.278 65.4935C179.809 73.8364 163.767 64.1111 152.017 67.7173C141.058 71.057 127.402 82.0486 118.715 89.6132C100.61 105.377 105.999 129.864 104.981 148.047Z" fill="#005655"/>
<path d="M186.417 154.677C184.521 154.679 182.641 154.337 180.864 153.667C177.592 152.367 174.807 150.049 172.907 147.044C171.007 144.039 170.089 140.5 170.285 136.933L175.976 137.337C175.826 139.657 176.414 141.964 177.653 143.917C178.893 145.87 180.718 147.366 182.858 148.182C184.998 148.998 187.34 149.091 189.536 148.448C191.732 147.804 193.667 146.459 195.053 144.61L199.613 148.124C198.05 150.167 196.048 151.82 193.761 152.956C191.474 154.091 188.962 154.68 186.417 154.677Z" fill="#E39D24"/>
<path d="M273.9 68.1876C271.723 64.0151 267.276 61.0284 261.999 60.1939C256.723 59.3594 251.593 60.8352 248.277 64.138L244.278 59.9919C248.881 55.4153 255.824 53.351 262.872 54.4578C269.919 55.5646 275.921 59.7284 278.935 65.4732L273.9 68.1876Z" fill="#E39D24"/>
<path d="M211.919 39.4454C210.511 39.4477 209.11 39.2496 207.756 38.8568C204.764 37.9297 202.105 36.1295 200.109 33.6794C198.114 31.2294 196.869 28.2373 196.529 25.0744L202.203 24.521C202.393 26.5433 203.176 28.4608 204.452 30.024C205.727 31.5872 207.436 32.7237 209.355 33.2857C211.274 33.8476 213.315 33.809 215.213 33.1749C217.11 32.5407 218.776 31.3404 219.994 29.73L224.51 33.2437C223.011 35.1802 221.098 36.7448 218.917 37.8191C216.735 38.8935 214.342 39.4496 211.919 39.4454Z" fill="#E39D24"/>
<path d="M152.382 41.0837C151.805 41.0828 151.228 41.0505 150.654 40.987C148.769 40.7906 146.941 40.2178 145.273 39.3013C143.606 38.3848 142.133 37.1427 140.939 35.6462C139.796 34.0988 138.968 32.336 138.501 30.4601C138.034 28.5842 137.938 26.6326 138.218 24.7186C138.449 22.7993 139.053 20.9458 139.995 19.2658C140.936 17.5859 142.196 16.1131 143.702 14.933L147.088 19.5798C146.191 20.2975 145.444 21.1886 144.888 22.2018C144.332 23.215 143.979 24.3301 143.849 25.4829C143.671 26.6294 143.719 27.8004 143.988 28.9282C144.258 30.056 144.745 31.1182 145.421 32.0535C146.922 33.8186 149.022 34.9423 151.302 35.1996C153.582 35.4569 155.874 34.829 157.719 33.4414L161.346 37.9301C158.803 39.9987 155.637 41.1124 152.382 41.0837Z" fill="#E39D24"/>
<path d="M92.2836 141.079C91.04 136.274 87.102 132.295 81.6527 130.459C76.2033 128.623 70.6935 129.361 66.8937 132.444L63.3615 127.885C68.7072 123.59 76.2292 122.492 83.4749 124.96C90.7205 127.428 96.0835 132.866 97.8193 139.603L92.2836 141.079Z" fill="#E39D24"/>
<path d="M263.053 33.8236C261.127 27.9206 259.21 22.7994 255.28 19.9621C254.188 19.2351 252.948 18.7668 251.654 18.592C250.36 18.4172 249.043 18.5402 247.802 18.9519C247.116 19.149 246.487 19.5126 245.969 20.0114C245.452 20.5102 245.061 21.1293 244.831 21.8156L239.33 20.1817C239.807 18.6027 240.655 17.166 241.802 15.9964C242.949 14.8268 244.359 13.9598 245.91 13.4705C248.01 12.7518 250.244 12.5363 252.439 12.8411C254.633 13.1459 256.729 13.9626 258.562 15.2274C264.357 19.4087 266.732 26.6469 268.468 32.0053L263.053 33.8236Z" fill="#E39D24"/>
<path d="M129.876 94.953C126.497 95.0156 123.189 93.9561 120.455 91.9348C117.72 89.9136 115.708 87.0409 114.723 83.7519C113.738 80.4629 113.834 76.937 114.996 73.7083C116.158 70.4796 118.323 67.7242 121.163 65.8596L124.237 70.7436C122.275 72.1577 120.857 74.2219 120.227 76.5826C119.597 78.9432 119.793 81.4534 120.783 83.6828C121.952 85.8199 123.816 87.4768 126.055 88.3694C128.294 89.2621 130.769 89.335 133.055 88.5756L135.049 94.0131C133.395 94.6403 131.642 94.9587 129.876 94.953Z" fill="#E39D24"/>
<path d="M160.767 87.5173C158.464 87.5309 156.217 86.7987 154.35 85.4266C150.101 82.2028 148.305 76.1153 149.816 70.2738L155.326 71.7759C154.54 74.7362 155.127 78.8033 157.761 80.7622C158.396 81.2049 159.118 81.5031 159.876 81.6365C160.635 81.7699 161.413 81.7354 162.157 81.5352C162.702 81.4241 163.217 81.1927 163.665 80.8573C164.112 80.5219 164.482 80.0906 164.748 79.5939L169.93 82.0798C169.305 83.3543 168.411 84.4717 167.31 85.3513C166.209 86.2309 164.93 86.8507 163.565 87.1659C162.65 87.4022 161.71 87.5202 160.767 87.5173Z" fill="#E39D24"/>
<path d="M199.748 73.7151H194.04C194.041 71.8135 193.457 69.9593 192.369 68.4125C191.282 66.8656 189.746 65.7037 187.976 65.0896C186.207 64.4755 184.293 64.44 182.503 64.9881C180.713 65.5362 179.136 66.6404 177.994 68.1459L173.469 64.6322C175.342 62.1776 177.92 60.3783 180.846 59.485C183.772 58.5916 186.898 58.6488 189.791 59.6484C192.683 60.648 195.196 62.5404 196.981 65.0618C198.766 67.5832 199.733 70.6081 199.748 73.7151Z" fill="#E39D24"/>
<path d="M224.018 81.1181C223.679 79.1665 222.942 77.3086 221.855 75.6641C220.768 74.0195 219.354 72.6248 217.705 71.5696C216.038 70.5243 213.784 69.9621 212.696 70.902L209.008 66.5099C212.575 63.4442 217.541 64.6828 220.71 66.6768C223.044 68.1706 225.044 70.1441 226.583 72.4708C228.123 74.7974 229.167 77.4257 229.648 80.187L224.018 81.1181Z" fill="#E39D24"/>
<path d="M260.617 96.6044C258.528 96.638 256.474 96.0551 254.704 94.9262C252.933 93.7973 251.522 92.1708 250.642 90.2435C249.761 88.3161 249.448 86.1705 249.741 84.0661C250.034 81.9617 250.92 79.9888 252.292 78.3859L256.61 82.1807C255.856 83.1338 255.452 84.324 255.466 85.5473C255.48 86.7705 255.912 87.9507 256.688 88.8854C257.464 89.8201 258.536 90.4511 259.719 90.6702C260.902 90.8894 262.124 90.683 263.174 90.0865L266.118 95.0584C264.457 96.0733 262.555 96.6078 260.617 96.6044Z" fill="#E39D24"/>
<path d="M238.673 135.527C236.371 135.556 234.105 134.937 232.127 133.738C230.148 132.54 228.534 130.808 227.462 128.735C226.39 126.663 225.902 124.329 226.051 121.991C226.201 119.654 226.983 117.404 228.31 115.49L232.973 118.828C232.179 119.981 231.748 121.353 231.739 122.761C231.729 124.168 232.142 125.546 232.921 126.709C233.7 127.873 234.809 128.768 236.101 129.274C237.392 129.781 238.804 129.875 240.15 129.545L241.497 135.193C240.572 135.417 239.624 135.529 238.673 135.527Z" fill="#E39D24"/>
<path d="M198.015 119.918L192.384 119.04C192.81 116.616 194.048 114.417 195.886 112.816C197.725 111.215 200.051 110.31 202.471 110.255C204.883 110.298 207.207 111.185 209.051 112.768C210.895 114.35 212.146 116.531 212.593 118.943L206.962 119.918C206.745 118.856 206.185 117.899 205.371 117.199C204.557 116.498 203.536 116.095 202.471 116.053C201.412 116.104 200.4 116.511 199.594 117.211C198.787 117.91 198.232 118.863 198.015 119.918Z" fill="#E39D24"/>
<path d="M275.238 142.458C274.185 138.567 272.838 134.157 270.109 131.039C267.993 128.614 264.21 126.567 260.894 127.824L258.916 122.377C264.78 120.181 270.912 123.212 274.375 127.191C277.838 131.17 279.556 136.406 280.739 140.93L275.238 142.458Z" fill="#E39D24"/>
<path d="M243.078 182.277C242.205 182.274 241.342 182.095 240.539 181.75C237.425 180.319 234.847 177.906 233.187 174.868C231.528 171.83 230.874 168.329 231.324 164.884L236.963 165.763C236.7 167.934 237.12 170.135 238.165 172.049C239.209 173.962 240.823 175.489 242.775 176.409C242.867 176.443 242.963 176.467 243.06 176.479C242.743 176.557 242.453 176.724 242.226 176.962C241.998 177.2 241.841 177.499 241.773 177.823L247.352 179.044C247.234 179.624 246.988 180.17 246.634 180.64C246.28 181.11 245.826 181.492 245.306 181.759C244.613 182.106 243.85 182.283 243.078 182.277Z" fill="#E39D24"/>
<path d="M131.945 151.66C129.865 151.212 127.987 150.082 126.599 148.443C125.211 146.805 124.389 144.748 124.261 142.589C124.133 140.43 124.704 138.288 125.888 136.491C127.071 134.694 128.802 133.342 130.814 132.642L132.653 138.132C131.825 138.424 131.113 138.983 130.626 139.724C130.14 140.466 129.905 141.349 129.958 142.239C130.011 143.129 130.348 143.977 130.919 144.653C131.49 145.33 132.263 145.797 133.12 145.985L131.945 151.66Z" fill="#E39D24"/>
<path d="M185.657 204.537C183.865 204.547 182.094 204.148 180.475 203.368C176.761 201.532 173.868 198.045 171.632 192.713L176.882 190.438C178.532 194.373 180.579 196.965 182.971 198.142C185.182 199.231 188.584 198.844 189.655 196.71L194.733 199.345C192.971 202.894 189.301 204.537 185.657 204.537Z" fill="#E39D24"/>
<path d="M93.9506 15.0606C93.8902 13.7336 93.5506 12.4353 92.9546 11.2533C92.3587 10.0713 91.5204 9.03311 90.4962 8.20886C89.5347 7.3266 88.4003 6.66146 87.1678 6.25721C85.9354 5.85296 84.6327 5.71877 83.3456 5.86347C81.8688 6.09186 80.6943 6.74189 80.3575 7.56761L75.1068 5.24857C76.2467 2.6133 79.0103 0.663194 82.4992 0.127355C84.6006 -0.152348 86.7365 0.0299191 88.7627 0.661846C90.7889 1.29377 92.6582 2.36064 94.2443 3.79039C95.8798 5.15782 97.2086 6.86566 98.1411 8.79904C99.0736 10.7324 99.5882 12.8465 99.6504 14.9991L93.9506 15.0606Z" fill="#E39D24"/>
<path d="M70.5899 82.98C67.1829 82.9947 63.8647 81.8748 61.1421 79.7914C59.1034 78.162 57.4942 76.0435 56.4587 73.6258C55.4232 71.208 54.9938 68.5667 55.2091 65.9386L60.8916 66.492C60.7619 68.1445 61.0372 69.8039 61.6928 71.3216C62.3485 72.8393 63.3639 74.1679 64.6483 75.1884C65.9516 76.1799 67.4759 76.828 69.0852 77.0747C70.6945 77.3215 72.3389 77.1593 73.8716 76.6027L75.8579 82.0401C74.1714 82.6715 72.3871 82.9899 70.5899 82.98Z" fill="#E39D24"/>
<path d="M323.091 106.039C319.337 106.038 315.689 104.779 312.709 102.458C309.729 100.137 307.584 96.8819 306.605 93.1963L312.106 91.6678C312.612 93.5522 313.575 95.277 314.908 96.6834C316.24 98.0899 317.9 99.1328 319.732 99.7163C321.565 100.3 323.513 100.405 325.396 100.023C327.279 99.6399 329.037 98.7817 330.509 97.5269L334.171 101.972C331.06 104.606 327.139 106.046 323.091 106.039Z" fill="#E39D24"/>
<path d="M329.688 78.904L323.997 78.4999C324.09 77.1723 323.76 75.8496 323.056 74.7277C322.352 73.6057 321.312 72.7444 320.089 72.2712C318.866 71.798 317.525 71.7383 316.266 72.1007C315.007 72.4632 313.896 73.2286 313.099 74.2835L308.582 70.7698C310.126 68.7263 312.275 67.243 314.713 66.5397C317.15 65.8365 319.746 65.9507 322.114 66.8655C324.483 67.7803 326.499 69.447 327.863 71.6185C329.227 73.7901 329.867 76.351 329.688 78.9216V78.904Z" fill="#E39D24"/>
</svg>
