<svg width="288" height="232" viewBox="0 0 288 232" fill="none" xmlns="http://www.w3.org/2000/svg">
<path d="M21.9927 28.2806C30.5419 24.3622 40.7907 24.6822 49.9278 26.0517C98.2446 33.2938 121.374 4.98565 162.651 0.286725C167.309 -0.243516 173.554 -0.35186 177.388 2.8075C197.29 19.2054 180.401 53.2081 211.697 77.1041C220.685 83.9674 229.552 94.7772 233.976 105.231C237.138 112.703 236.241 121.401 231.745 128.103C226.162 136.427 218.225 144.227 210.422 150.445C177.091 177.008 157.352 158.931 112.656 188.086C107.163 191.669 84.5171 231.034 71.1882 231.034C57.8593 231.034 42.2539 223.325 38.775 220.231C30.6258 212.984 22.8531 205.278 14.7168 197.995C2.44028 187.007 -10.6306 175.521 -19.4851 161.484C-29.6318 145.398 -36.2198 122.977 -25.5395 105.39C-21.0531 98.0023 -15.0967 94.5798 -7.58882 90.9551C-2.50197 88.4993 0.855452 85.5843 0.855452 79.731C0.855452 67.5012 -0.939871 53.0624 4.89171 41.8663C8.33385 35.2577 15.4571 31.2761 21.9927 28.2806Z" fill="#E39D24"/>
<path d="M172.04 110.303C173.727 103.772 179.15 97.5759 185.493 95.2662C191.596 93.0439 208.701 92.0859 214.414 93.948C222.313 96.5227 227.121 97.1431 229.224 96.0901C231.62 94.8905 233.603 92.732 235.91 91.3732C239.481 89.2693 244.569 89.4494 248.478 90.4669C258.713 93.1318 276.682 106.381 283.776 114.875C287.299 119.095 288.732 124.047 287.643 129.459C287.034 132.483 285.062 134.174 282.747 136.009C278.064 139.721 273.374 143.245 268.924 147.255C264.754 151.013 260.736 154.7 257.364 159.202C254.407 163.15 251.208 167.266 246.997 169.954C237.211 176.199 227.228 176.446 217.582 170.242C214.002 167.94 210.844 165.918 206.515 165.361C202.262 164.813 198.01 165.552 193.906 164.001C187.972 161.759 181.466 158.87 177.738 153.537C173.56 147.562 169.681 139.578 169.613 132.136C169.546 124.797 170.201 117.422 172.04 110.303Z" fill="#005655"/>
<path d="M171.954 105.747C170.923 105.748 169.9 105.565 168.933 105.207C167.153 104.512 165.638 103.272 164.605 101.665C163.571 100.057 163.072 98.1646 163.178 96.2567L166.274 96.4728C166.192 97.7135 166.512 98.9475 167.187 99.9922C167.861 101.037 168.854 101.837 170.018 102.273C171.182 102.709 172.456 102.759 173.651 102.415C174.846 102.071 175.898 101.352 176.652 100.363L179.133 102.242C178.282 103.335 177.194 104.219 175.949 104.826C174.705 105.434 173.338 105.749 171.954 105.747V105.747Z" fill="#A1716A"/>
<path d="M219.545 59.4895C218.362 57.2579 215.942 55.6606 213.072 55.2142C210.201 54.7679 207.41 55.5572 205.606 57.3237L203.431 55.1062C205.935 52.6585 209.712 51.5544 213.546 52.1464C217.38 52.7383 220.645 54.9652 222.284 58.0378L219.545 59.4895Z" fill="#A1716A"/>
<path d="M185.827 44.1173C185.061 44.1185 184.299 44.0126 183.563 43.8025C181.935 43.3067 180.489 42.3438 179.403 41.0335C178.317 39.7231 177.64 38.1229 177.455 36.4312L180.542 36.1353C180.645 37.2168 181.071 38.2424 181.765 39.0784C182.459 39.9145 183.388 40.5223 184.433 40.8229C185.477 41.1234 186.587 41.1028 187.619 40.7636C188.651 40.4245 189.558 39.7825 190.22 38.9212L192.677 40.8005C191.861 41.8362 190.821 42.6729 189.634 43.2475C188.447 43.8221 187.146 44.1195 185.827 44.1173V44.1173Z" fill="#A1716A"/>
<path d="M153.438 44.9935C153.125 44.993 152.811 44.9758 152.499 44.9418C151.473 44.8368 150.479 44.5304 149.572 44.0402C148.665 43.5501 147.863 42.8858 147.213 42.0854C146.592 41.2578 146.141 40.315 145.887 39.3117C145.633 38.3084 145.581 37.2646 145.734 36.241C145.859 35.2145 146.188 34.2231 146.7 33.3247C147.212 32.4262 147.898 31.6385 148.717 31.0073L150.559 33.4926C150.071 33.8764 149.664 34.353 149.362 34.8949C149.059 35.4368 148.867 36.0332 148.797 36.6497C148.7 37.2629 148.726 37.8892 148.873 38.4924C149.019 39.0956 149.284 39.6637 149.652 40.1639C150.468 41.1079 151.611 41.7089 152.851 41.8465C154.092 41.9842 155.338 41.6483 156.342 40.9062L158.315 43.3069C156.932 44.4132 155.21 45.0089 153.438 44.9935V44.9935Z" fill="#A1716A"/>
<path d="M120.745 98.4741C120.068 95.9042 117.926 93.776 114.961 92.7941C111.997 91.8122 108.999 92.2069 106.932 93.8559L105.011 91.4176C107.919 89.1202 112.011 88.5329 115.953 89.8531C119.894 91.1733 122.812 94.0814 123.756 97.6848L120.745 98.4741Z" fill="#A1716A"/>
<path d="M213.645 41.1106C212.597 37.9535 211.554 35.2145 209.416 33.697C208.822 33.3082 208.148 33.0578 207.444 32.9643C206.739 32.8707 206.023 32.9365 205.348 33.1568C204.975 33.2622 204.633 33.4566 204.351 33.7234C204.07 33.9902 203.857 34.3213 203.732 34.6883L200.739 33.8145C200.998 32.97 201.46 32.2016 202.084 31.5761C202.708 30.9505 203.475 30.4868 204.319 30.2251C205.461 29.8407 206.676 29.7255 207.87 29.8885C209.064 30.0515 210.204 30.4883 211.202 31.1648C214.354 33.4011 215.646 37.2723 216.59 40.1381L213.645 41.1106Z" fill="#A1716A"/>
<path d="M141.196 73.8046C139.357 73.8381 137.558 73.2714 136.07 72.1904C134.582 71.1094 133.488 69.5729 132.952 67.8139C132.416 66.0548 132.468 64.169 133.1 62.4422C133.732 60.7155 134.91 59.2418 136.455 58.2445L138.128 60.8566C137.06 61.6129 136.289 62.7169 135.946 63.9795C135.603 65.2421 135.71 66.5846 136.248 67.7769C136.885 68.9199 137.899 69.8061 139.117 70.2835C140.335 70.7609 141.681 70.7999 142.924 70.3938L144.01 73.3019C143.109 73.6373 142.156 73.8076 141.196 73.8046Z" fill="#A1716A"/>
<path d="M158 69.8277C156.747 69.835 155.525 69.4434 154.51 68.7095C152.198 66.9853 151.221 63.7296 152.043 60.6053L155.04 61.4087C154.613 62.992 154.932 65.1672 156.365 66.2149C156.711 66.4516 157.103 66.6111 157.516 66.6825C157.929 66.7538 158.352 66.7353 158.757 66.6283C159.053 66.5689 159.333 66.4451 159.577 66.2657C159.82 66.0863 160.021 65.8557 160.166 65.59L162.985 66.9196C162.645 67.6012 162.159 68.1988 161.56 68.6692C160.961 69.1397 160.265 69.4712 159.522 69.6398C159.025 69.7661 158.513 69.8293 158 69.8277V69.8277Z" fill="#A1716A"/>
<path d="M179.206 62.4458H176.101C176.101 61.4287 175.784 60.437 175.192 59.6097C174.601 58.7824 173.765 58.161 172.802 57.8326C171.84 57.5041 170.799 57.4851 169.825 57.7783C168.851 58.0714 167.993 58.662 167.372 59.4672L164.91 57.5879C165.929 56.2751 167.332 55.3128 168.923 54.835C170.515 54.3573 172.216 54.3878 173.789 54.9224C175.363 55.4571 176.73 56.4692 177.701 57.8177C178.672 59.1662 179.198 60.784 179.206 62.4458V62.4458Z" fill="#A1716A"/>
<path d="M192.409 66.4052C192.225 65.3614 191.824 64.3678 191.233 63.4882C190.641 62.6087 189.872 61.8627 188.975 61.2984C188.068 60.7393 186.842 60.4386 186.25 60.9413L184.244 58.5923C186.184 56.9527 188.886 57.6151 190.61 58.6816C191.879 59.4805 192.968 60.536 193.805 61.7803C194.642 63.0247 195.21 64.4304 195.472 65.9072L192.409 66.4052Z" fill="#A1716A"/>
<path d="M212.32 74.6879C211.183 74.7059 210.066 74.3941 209.103 73.7904C208.14 73.1866 207.372 72.3167 206.893 71.2859C206.414 70.2551 206.244 69.1075 206.403 67.9821C206.562 66.8566 207.044 65.8014 207.791 64.9441L210.14 66.9737C209.73 67.4834 209.51 68.12 209.517 68.7742C209.525 69.4285 209.76 70.0596 210.182 70.5595C210.604 71.0594 211.187 71.3969 211.831 71.5141C212.475 71.6313 213.139 71.521 213.71 71.2019L215.312 73.8611C214.409 74.4039 213.374 74.6898 212.32 74.6879V74.6879Z" fill="#A1716A"/>
<path d="M200.382 95.5049C199.129 95.5201 197.897 95.189 196.821 94.548C195.744 93.907 194.866 92.981 194.283 91.8724C193.7 90.7638 193.434 89.5155 193.516 88.2655C193.597 87.0154 194.022 85.8122 194.744 84.7886L197.281 86.5738C196.849 87.1904 196.615 87.9239 196.609 88.6769C196.604 89.4298 196.829 90.1665 197.253 90.7888C197.676 91.4112 198.28 91.8896 198.982 92.1606C199.685 92.4315 200.453 92.4821 201.185 92.3055L201.918 95.3264C201.415 95.4461 200.899 95.506 200.382 95.5049V95.5049Z" fill="#A1716A"/>
<path d="M178.263 87.1565L175.2 86.6867C175.432 85.3906 176.105 84.2146 177.105 83.3582C178.106 82.5019 179.371 82.018 180.688 81.9886V81.9886C182 82.0114 183.264 82.4859 184.267 83.3324C185.27 84.1788 185.951 85.3453 186.194 86.6351L183.131 87.1565C183.013 86.5887 182.708 86.0768 182.265 85.7022C181.822 85.3276 181.267 85.1118 180.688 85.0894V85.0894C180.112 85.1167 179.561 85.3346 179.122 85.7087C178.684 86.0829 178.381 86.5921 178.263 87.1565V87.1565Z" fill="#A1716A"/>
<path d="M220.274 99.2119C219.701 97.1306 218.968 94.7722 217.483 93.1044C216.332 91.8077 214.274 90.713 212.47 91.3849L211.394 88.4721C214.584 87.2975 217.92 88.9184 219.804 91.0466C221.688 93.1748 222.623 95.9749 223.266 98.3944L220.274 99.2119Z" fill="#A1716A"/>
<path d="M202.778 120.508C202.303 120.507 201.834 120.411 201.397 120.226C199.703 119.461 198.301 118.17 197.398 116.546C196.495 114.921 196.139 113.049 196.384 111.206L199.452 111.676C199.308 112.837 199.537 114.014 200.105 115.038C200.674 116.061 201.552 116.877 202.614 117.37C202.664 117.388 202.716 117.401 202.769 117.407C202.596 117.449 202.439 117.538 202.315 117.666C202.191 117.793 202.105 117.953 202.069 118.126L205.104 118.779C205.039 119.089 204.906 119.381 204.713 119.632C204.52 119.884 204.273 120.088 203.99 120.231C203.613 120.417 203.198 120.511 202.778 120.508V120.508Z" fill="#A1716A"/>
<path d="M142.321 104.133C141.189 103.893 140.168 103.289 139.412 102.413C138.657 101.536 138.211 100.436 138.141 99.2818C138.071 98.1271 138.382 96.9814 139.026 96.0204C139.67 95.0594 140.611 94.3362 141.706 93.9618L142.706 96.8981C142.256 97.054 141.868 97.353 141.604 97.7496C141.339 98.1461 141.211 98.6184 141.24 99.0944C141.269 99.5703 141.452 100.024 141.763 100.386C142.073 100.747 142.494 100.998 142.96 101.098L142.321 104.133Z" fill="#A1716A"/>
<path d="M171.54 132.413C170.566 132.419 169.602 132.205 168.722 131.788C166.701 130.806 165.128 128.941 163.911 126.09L166.767 124.873C167.664 126.978 168.778 128.363 170.079 128.993C171.282 129.576 173.133 129.369 173.716 128.227L176.478 129.637C175.52 131.535 173.523 132.413 171.54 132.413Z" fill="#A1716A"/>
<path d="M121.651 31.0755C121.619 30.3658 121.434 29.6714 121.11 29.0392C120.785 28.4071 120.329 27.8518 119.772 27.411C119.249 26.9391 118.632 26.5834 117.962 26.3672C117.291 26.151 116.582 26.0792 115.882 26.1566C115.079 26.2787 114.44 26.6264 114.257 27.068L111.4 25.8277C112.02 24.4183 113.524 23.3753 115.422 23.0887C116.565 22.9391 117.727 23.0366 118.829 23.3746C119.931 23.7126 120.948 24.2832 121.811 25.0478C122.701 25.7792 123.424 26.6926 123.931 27.7266C124.438 28.7607 124.718 29.8913 124.752 31.0426L121.651 31.0755Z" fill="#A1716A"/>
<path d="M108.943 67.4012C107.09 67.409 105.285 66.81 103.803 65.6957C102.694 64.8243 101.819 63.6913 101.256 62.3982C100.692 61.1051 100.459 59.6924 100.576 58.2869L103.667 58.5828C103.597 59.4667 103.746 60.3542 104.103 61.1659C104.46 61.9776 105.012 62.6882 105.711 63.234C106.42 63.7642 107.249 64.1108 108.125 64.2428C109 64.3748 109.895 64.2881 110.728 63.9903L111.809 66.8985C110.891 67.2361 109.921 67.4064 108.943 67.4012V67.4012Z" fill="#A1716A"/>
<path d="M246.306 79.7336C244.264 79.733 242.279 79.06 240.658 77.8185C239.037 76.577 237.87 74.8361 237.337 72.865L240.33 72.0475C240.605 73.0553 241.129 73.9778 241.854 74.73C242.579 75.4822 243.482 76.04 244.479 76.3521C245.476 76.6642 246.535 76.7205 247.56 76.5158C248.584 76.3112 249.541 75.8522 250.341 75.1811L252.333 77.5583C250.641 78.9673 248.508 79.7372 246.306 79.7336V79.7336Z" fill="#A1716A"/>
<path d="M249.895 65.2211L246.799 65.005C246.85 64.2949 246.67 63.5875 246.287 62.9874C245.904 62.3874 245.338 61.9267 244.673 61.6736C244.007 61.4206 243.278 61.3886 242.593 61.5825C241.908 61.7763 241.304 62.1857 240.87 62.7499L238.413 60.8706C239.253 59.7777 240.422 58.9844 241.748 58.6083C243.074 58.2321 244.486 58.2932 245.775 58.7825C247.063 59.2718 248.16 60.1632 248.902 61.3246C249.644 62.486 249.992 63.8556 249.895 65.2305V65.2211Z" fill="#A1716A"/>
</svg>
