<svg width="122" height="150" viewBox="0 0 122 150" fill="none" xmlns="http://www.w3.org/2000/svg">
<path d="M73.2304 98.2856C75.0986 88.4983 63.409 81.3938 62.6504 76.7883C61.5903 70.1239 65.9325 63.6532 66.1253 56.9236C66.4183 47.0791 57.7749 39.1306 48.5273 36.2228C39.1131 33.2629 28.8246 34.0837 19.21 36.6341C9.5954 39.1846 0.480139 43.3928 -8.71232 47.2588C-15.4752 50.1007 -23.1864 53.714 -25.0779 60.8655C-25.9601 64.209 -25.3429 67.7282 -24.7238 71.1037C-23.3679 78.464 -21.7569 86.3154 -16.5047 91.5054C-13.8305 94.1523 -10.3519 95.9297 -7.93972 98.8286C-1.53456 106.526 -4.68361 119.121 0.946498 127.378C4.73313 132.923 11.8812 135.328 18.5784 134.985C25.2757 134.642 31.3761 125.326 38.6834 121.243C44.6299 117.869 69.6818 116.988 73.2304 98.2856Z" fill="#BDA19D"/>
<path d="M31.2814 57.5798C31.0097 62.3955 25.4239 71.8627 27.4273 76.4489C29.5205 81.2283 32.4801 85.8769 36.8222 88.9158C39.3796 90.6623 42.2873 91.8101 45.3279 92.2735C48.3685 92.7368 51.4633 92.5037 54.381 91.5916C57.9016 90.4657 64.1199 86.3159 67.6159 85.1234C74.0474 82.9357 79.6315 84.619 86.5822 84.6842C93.5329 84.7494 99.861 82.741 104.031 77.5316C108.095 72.4807 104.123 65.996 102.186 59.4541C100.25 52.9121 102.095 48.2885 100.392 41.6915C99.7546 39.209 97.889 36.0381 96.2428 33.9981C93.5771 30.699 72.7045 19.1334 64.6927 25.4722C60.592 28.717 54.3081 24.9345 49.7055 26.3371C45.4129 27.636 40.0636 31.911 36.661 34.853C29.5691 40.9838 31.6801 50.5077 31.2814 57.5798Z" fill="#E39D24"/>
<path d="M63.1801 60.1582C62.4377 60.159 61.7011 60.0259 61.005 59.7653C59.7234 59.2598 58.6326 58.3584 57.8884 57.1896C57.1442 56.0208 56.7847 54.6444 56.8611 53.257L59.0904 53.4141C59.0315 54.3163 59.2619 55.2137 59.7475 55.9734C60.233 56.733 60.9479 57.3146 61.7862 57.6319C62.6245 57.9493 63.5417 57.9856 64.402 57.7354C65.2624 57.4852 66.0201 56.9619 66.5629 56.2429L68.349 57.6095C67.7369 58.4042 66.9529 59.0469 66.057 59.4887C65.1611 59.9304 64.1771 60.1594 63.1801 60.1582V60.1582Z" fill="#005655"/>
<path d="M97.4478 26.5201C96.5953 24.8973 94.8532 23.7357 92.7863 23.4112C90.7194 23.0866 88.71 23.6606 87.411 24.9452L85.8448 23.3326C87.6478 21.5526 90.3676 20.7498 93.1279 21.1802C95.8883 21.6107 98.2393 23.2301 99.4199 25.4645L97.4478 26.5201Z" fill="#005655"/>
<path d="M73.1695 15.3414C72.6181 15.3423 72.0692 15.2652 71.539 15.1125C70.3669 14.7519 69.3254 14.0517 68.5436 13.0989C67.7619 12.146 67.2743 10.9823 67.1414 9.7521L69.3638 9.53687C69.4381 10.3234 69.7449 11.0692 70.2446 11.6771C70.7442 12.2851 71.4134 12.7271 72.1652 12.9457C72.917 13.1643 73.7165 13.1493 74.4598 12.9026C75.203 12.656 75.8555 12.1891 76.3324 11.5628L78.1016 12.9294C77.5142 13.6826 76.7649 14.291 75.9105 14.7089C75.0561 15.1267 74.1188 15.343 73.1695 15.3414V15.3414Z" fill="#005655"/>
<path d="M49.8484 15.9786C49.6223 15.9782 49.3965 15.9657 49.1718 15.941C48.4334 15.8646 47.7171 15.6418 47.0641 15.2854C46.411 14.9289 45.834 14.4459 45.3662 13.8638C44.9187 13.262 44.5941 12.5764 44.4111 11.8468C44.2282 11.1172 44.1906 10.3582 44.3006 9.61378C44.3911 8.86728 44.6276 8.1464 44.9963 7.49303C45.3651 6.83966 45.8588 6.26684 46.4487 5.80786L47.7747 7.61516C47.4236 7.89426 47.1308 8.24085 46.913 8.63491C46.6953 9.02896 46.557 9.46268 46.5062 9.91101C46.4365 10.3569 46.4551 10.8124 46.5608 11.251C46.6664 11.6896 46.8571 12.1027 47.1218 12.4665C47.7096 13.153 48.5324 13.59 49.4256 13.6901C50.3188 13.7902 51.2164 13.546 51.9389 13.0063L53.3597 14.7521C52.3638 15.5566 51.1237 15.9898 49.8484 15.9786V15.9786Z" fill="#005655"/>
<path d="M26.3077 54.8697C25.8206 53.0009 24.278 51.4532 22.1435 50.7392C20.009 50.0252 17.8507 50.3122 16.3623 51.5113L14.9788 49.7382C17.0727 48.0676 20.0191 47.6405 22.8573 48.6005C25.6954 49.5605 27.7961 51.6753 28.4761 54.2957L26.3077 54.8697Z" fill="#005655"/>
<path d="M93.199 13.155C92.4447 10.8591 91.6937 8.86733 90.1545 7.76382C89.7265 7.48105 89.241 7.29895 88.734 7.23095C88.227 7.16295 87.7113 7.21079 87.225 7.37093C86.9563 7.4476 86.71 7.58901 86.5073 7.78301C86.3046 7.977 86.1516 8.21779 86.0613 8.48469L83.9065 7.84924C84.0933 7.23511 84.4258 6.67633 84.875 6.22145C85.3242 5.76657 85.8766 5.42935 86.4842 5.23907C87.3065 4.95952 88.1817 4.87573 89.0413 4.99426C89.901 5.11279 90.7219 5.43043 91.44 5.92236C93.7098 7.54859 94.6401 10.3637 95.32 12.4478L93.199 13.155Z" fill="#005655"/>
<path d="M41.033 36.9299C39.7092 36.9542 38.4136 36.5422 37.3425 35.756C36.2714 34.9699 35.4832 33.8526 35.0973 32.5735C34.7114 31.2943 34.7489 29.9229 35.2041 28.6672C35.6593 27.4115 36.5074 26.3398 37.6198 25.6146L38.824 27.5142C38.0554 28.0641 37.5 28.867 37.2532 29.7851C37.0063 30.7032 37.0833 31.6795 37.4709 32.5466C37.9291 33.3778 38.6593 34.0222 39.5362 34.3693C40.4132 34.7165 41.3825 34.7449 42.2779 34.4495L43.0593 36.5643C42.4111 36.8083 41.7247 36.9321 41.033 36.9299Z" fill="#005655"/>
<path d="M53.1329 34.038C52.2309 34.0433 51.3506 33.7585 50.6195 33.2249C48.9552 31.9711 48.2515 29.6035 48.8435 27.3315L51.0017 27.9158C50.6939 29.0671 50.9239 30.6489 51.9557 31.4108C52.2044 31.583 52.487 31.6989 52.7841 31.7508C53.0813 31.8027 53.386 31.7893 53.6775 31.7114C53.8911 31.6682 54.0926 31.5782 54.268 31.4478C54.4433 31.3173 54.5882 31.1496 54.6924 30.9564L56.722 31.9232C56.4775 32.4189 56.127 32.8535 55.6958 33.1956C55.2647 33.5377 54.7636 33.7788 54.2289 33.9014C53.8707 33.9932 53.5025 34.0392 53.1329 34.038V34.038Z" fill="#005655"/>
<path d="M68.4022 28.6699H66.1662C66.1665 27.9303 65.9377 27.2091 65.5118 26.6075C65.0859 26.0059 64.4842 25.554 63.7911 25.3152C63.0981 25.0763 62.3484 25.0625 61.6471 25.2757C60.9459 25.4889 60.3283 25.9183 59.881 26.5039L58.1084 25.1373C58.842 24.1826 59.8521 23.4828 60.9981 23.1354C62.1441 22.7879 63.3688 22.8102 64.5017 23.1989C65.6346 23.5877 66.6192 24.3237 67.3184 25.3044C68.0175 26.285 68.3964 27.4615 68.4022 28.6699V28.6699Z" fill="#005655"/>
<path d="M77.9087 31.5492C77.776 30.7901 77.4875 30.0675 77.0616 29.4279C76.6357 28.7883 76.0819 28.2459 75.4359 27.8355C74.783 27.4289 73.9001 27.2103 73.4739 27.5758L72.0294 25.8676C73.4265 24.6753 75.3716 25.157 76.6131 25.9325C77.5271 26.5135 78.3107 27.2811 78.9137 28.186C79.5166 29.0909 79.9256 30.1131 80.1143 31.187L77.9087 31.5492Z" fill="#005655"/>
<path d="M92.245 37.5721C91.4266 37.5852 90.622 37.3585 89.9285 36.9194C89.2351 36.4804 88.6824 35.8478 88.3374 35.0982C87.9924 34.3486 87.8699 33.5141 87.9846 32.6957C88.0994 31.8772 88.4465 31.1099 88.9839 30.4865L90.6753 31.9624C90.38 32.333 90.2215 32.7959 90.2271 33.2717C90.2327 33.7475 90.4019 34.2065 90.7059 34.57C91.0098 34.9335 91.4295 35.1789 91.893 35.2642C92.3565 35.3494 92.8349 35.2691 93.2463 35.0371L94.3998 36.9709C93.7491 37.3656 93.004 37.5735 92.245 37.5721V37.5721Z" fill="#005655"/>
<path d="M83.6493 52.7104C82.7474 52.7215 81.86 52.4806 81.085 52.0145C80.3101 51.5484 79.6777 50.875 79.2578 50.0688C78.8378 49.2626 78.6466 48.3549 78.7052 47.4459C78.7639 46.5369 79.07 45.6619 79.59 44.9175L81.4167 46.2157C81.1054 46.6641 80.9367 47.1975 80.933 47.745C80.9293 48.2926 81.0908 48.8283 81.396 49.2809C81.7013 49.7334 82.1357 50.0814 82.6416 50.2784C83.1474 50.4754 83.7007 50.5122 84.2278 50.3838L84.7555 52.5806C84.3931 52.6676 84.0218 52.7112 83.6493 52.7104V52.7104Z" fill="#005655"/>
<path d="M67.7232 46.6396L65.5176 46.2979C65.6845 45.3553 66.1692 44.5001 66.8894 43.8774C67.6096 43.2547 68.5209 42.9028 69.4687 42.8815V42.8815C70.4136 42.898 71.3239 43.2431 72.0462 43.8586C72.7684 44.4742 73.2584 45.3224 73.4334 46.2603L71.2278 46.6396C71.1428 46.2267 70.9234 45.8543 70.6046 45.5819C70.2859 45.3095 69.886 45.1527 69.4687 45.1363V45.1363C69.054 45.1562 68.6576 45.3146 68.3416 45.5867C68.0257 45.8588 67.8082 46.2291 67.7232 46.6396V46.6396Z" fill="#005655"/>
<path d="M97.9721 55.4059C97.5594 53.8925 97.0317 52.1774 95.9627 50.9646C95.1339 50.0216 93.6523 49.2256 92.3533 49.7142L91.5786 47.596C93.8755 46.7418 96.2773 47.9205 97.6338 49.4682C98.9903 51.0158 99.6635 53.052 100.127 54.8115L97.9721 55.4059Z" fill="#005655"/>
<path d="M85.3745 70.8926C85.0328 70.8915 84.6948 70.8218 84.38 70.6876C83.1603 70.1311 82.1506 69.1926 81.5005 68.0111C80.8504 66.8296 80.5944 65.468 80.7705 64.1281L82.9795 64.4697C82.8762 65.3144 83.041 66.1704 83.4501 66.9145C83.8593 67.6586 84.4916 68.2524 85.2561 68.6104C85.2922 68.6237 85.3296 68.6329 85.3678 68.6378C85.2434 68.6679 85.1301 68.733 85.0409 68.8255C84.9517 68.918 84.8902 69.0341 84.8637 69.1605L87.049 69.6354C87.0026 69.8609 86.9065 70.073 86.7677 70.2558C86.6288 70.4386 86.451 70.5873 86.2473 70.691C85.9759 70.826 85.677 70.895 85.3745 70.8926V70.8926Z" fill="#005655"/>
<path d="M41.8434 58.9848C41.0285 58.8105 40.2928 58.371 39.7491 57.7337C39.2054 57.0964 38.8837 56.2966 38.8334 55.4569C38.7831 54.6173 39.007 53.7841 39.4706 53.0853C39.9343 52.3865 40.6121 51.8606 41.4002 51.5883L42.1207 53.7235C41.7963 53.8369 41.5175 54.0544 41.3268 54.3427C41.1362 54.6311 41.0442 54.9745 41.0649 55.3207C41.0856 55.6668 41.2178 55.9965 41.4415 56.2597C41.6651 56.5228 41.9678 56.7047 42.3034 56.7778L41.8434 58.9848Z" fill="#005655"/>
<path d="M62.8824 79.55C62.1807 79.5541 61.4871 79.3988 60.8528 79.0956C59.3982 78.3816 58.2649 77.0253 57.3888 74.9515L59.4455 74.0667C60.0916 75.5972 60.8934 76.6051 61.8304 77.0629C62.6964 77.4865 64.0292 77.3362 64.4487 76.506L66.4378 77.5309C65.7477 78.9112 64.31 79.55 62.8824 79.55Z" fill="#005655"/>
<path d="M26.9607 5.85748C26.937 5.34139 26.8039 4.83644 26.5705 4.37673C26.3371 3.91701 26.0087 3.51323 25.6075 3.19266C25.2309 2.84952 24.7866 2.59083 24.3038 2.4336C23.821 2.27638 23.3108 2.22419 22.8066 2.28047C22.2281 2.3693 21.7681 2.62211 21.6361 2.94326L19.5794 2.04132C20.0259 1.01638 21.1084 0.257935 22.4751 0.0495318C23.2982 -0.0592526 24.1348 0.0116364 24.9285 0.257411C25.7222 0.503185 26.4544 0.91812 27.0757 1.47419C27.7163 2.00602 28.2368 2.67025 28.6021 3.4222C28.9673 4.17414 29.1689 4.99637 29.1933 5.83357L26.9607 5.85748Z" fill="#005655"/>
<path d="M17.8102 32.2733C16.4756 32.279 15.1759 31.8434 14.1094 31.0331C13.3108 30.3994 12.6805 29.5755 12.2749 28.6351C11.8693 27.6948 11.7011 26.6675 11.7854 25.6454L14.0113 25.8606C13.9605 26.5033 14.0683 27.1487 14.3251 27.739C14.5819 28.3293 14.9797 28.846 15.4828 29.2429C15.9933 29.6285 16.5904 29.8806 17.2208 29.9765C17.8511 30.0725 18.4952 30.0094 19.0956 29.7929L19.8737 31.9077C19.213 32.1533 18.5141 32.2771 17.8102 32.2733V32.2733Z" fill="#005655"/>
<path d="M116.716 41.2415C115.246 41.2411 113.817 40.7517 112.65 39.8489C111.482 38.9461 110.642 37.6801 110.258 36.2467L112.413 35.6522C112.611 36.3851 112.989 37.0559 113.511 37.6029C114.033 38.15 114.683 38.5556 115.401 38.7825C116.118 39.0095 116.881 39.0504 117.619 38.9016C118.357 38.7528 119.045 38.419 119.622 37.931L121.056 39.6597C119.838 40.6843 118.302 41.2442 116.716 41.2415V41.2415Z" fill="#005655"/>
<path d="M119.3 30.688L117.071 30.5308C117.108 30.0145 116.978 29.5 116.703 29.0637C116.427 28.6273 116.019 28.2923 115.54 28.1083C115.061 27.9243 114.536 27.901 114.043 28.042C113.55 28.1829 113.115 28.4806 112.802 28.8909L111.033 27.5243C111.638 26.7296 112.48 26.1527 113.434 25.8791C114.389 25.6056 115.406 25.6501 116.334 26.0059C117.261 26.3616 118.051 27.0099 118.585 27.8544C119.12 28.699 119.371 29.695 119.3 30.6948V30.688Z" fill="#005655"/>
</svg>
