<svg width="320" height="283" viewBox="0 0 320 283" fill="none" xmlns="http://www.w3.org/2000/svg">
<path d="M126.982 151.928C139.391 141.991 132.372 121.145 136.199 114.757C141.784 105.553 153.805 102.23 160.996 94.2562C171.529 82.6031 169.125 63.915 160.77 50.719C152.263 37.2855 138.776 27.5315 124.329 20.5828C109.883 13.6341 94.3365 9.22099 79.049 4.31158C67.8043 0.696966 54.5975 -2.9716 44.8837 3.73972C40.3449 6.87958 37.4663 11.7998 34.7387 16.5473C28.7984 26.9056 22.6639 38.1271 23.7528 49.9205C24.3026 55.9305 26.7392 61.7247 26.7068 67.767C26.6206 83.8116 9.73741 95.8208 8.12025 111.736C7.04214 122.429 13.3383 132.819 21.92 139.401C30.5018 145.983 47.6221 141.041 60.8181 143.717C71.61 145.832 103.296 170.94 126.982 151.928Z" fill="#EFEAE8"/>
<path d="M95.66 136.328C94.9889 148.089 81.1939 171.211 86.1417 182.411C91.3111 194.084 98.6203 205.437 109.344 212.859C115.66 217.124 122.841 219.927 130.35 221.059C137.859 222.191 145.502 221.621 152.708 219.394C161.403 216.644 176.76 206.509 185.394 203.597C201.277 198.254 215.068 202.365 232.234 202.524C249.4 202.683 265.028 197.778 275.328 185.055C285.364 172.72 275.553 156.883 270.77 140.906C265.988 124.929 270.546 113.637 266.34 97.5251C264.765 91.4621 260.158 83.7179 256.092 78.7357C249.509 70.6784 197.961 42.4325 178.174 57.9134C168.047 65.838 152.528 56.6003 141.161 60.0257C130.56 63.1979 117.349 73.6384 108.946 80.8238C91.4312 95.7967 96.6447 119.056 95.66 136.328Z" fill="#E39D24"/>
<path d="M35.6165 161.358L53.718 166.181L54.5486 163.064L36.4471 158.241L35.6165 161.358Z" fill="#A1716A"/>
<path d="M57.6456 159.142L75.0729 164.838L76.0752 161.772L58.6479 156.076L57.6456 159.142Z" fill="#A1716A"/>
<path d="M66.7819 145.975L65.3699 148.899L63.9168 148.183C61.8422 147.182 58.2858 145.706 54.8563 144.297C51.4268 142.888 47.7715 141.391 45.5917 140.317L44.1405 139.608L45.5675 136.711L47.0188 137.42C49.0933 138.421 52.6498 139.897 56.0793 141.306C59.5087 142.715 63.166 144.219 65.3438 145.286L66.7819 145.975Z" fill="#A1716A"/>
<path d="M76.1062 147.883L87.9619 151.792L88.9722 148.728L77.1165 144.819L76.1062 147.883Z" fill="#A1716A"/>
<path d="M77.5055 177.914L91.1151 184.56L92.5308 181.662L78.9213 175.015L77.5055 177.914Z" fill="#A1716A"/>
<path d="M80.9313 195.585L79.3574 198.428L77.9454 197.662C73.7718 195.394 69.7336 192.933 65.817 190.549C64.0621 189.462 62.2999 188.377 60.5276 187.342L59.1402 186.522L60.7936 183.744L62.183 184.57C63.9742 185.647 65.7437 186.73 67.5058 187.815C71.3855 190.178 75.3869 192.617 79.5086 194.837L80.9313 195.585Z" fill="#A1716A"/>
<path d="M98.8203 151.113L115.798 155.164L116.547 152.026L99.5691 147.975L98.8203 151.113Z" fill="#A1716A"/>
<path d="M45.5742 123.058L60.148 128.039L61.1914 124.987L46.6176 120.005L45.5742 123.058Z" fill="#A1716A"/>
<path d="M75.9055 132.458L87.1588 137.468L88.471 134.521L77.2177 129.51L75.9055 132.458Z" fill="#A1716A"/>
<path d="M90.8125 121.061L89.6593 124.079L88.1502 123.503C84.607 122.144 81.1522 120.566 77.8059 118.777L76.3885 118.02L77.913 115.167L79.3323 115.931C82.5555 117.66 85.8859 119.181 89.3034 120.484L90.8125 121.061Z" fill="#A1716A"/>
<path d="M106.452 125.05L115.95 128.884L117.158 125.892L107.66 122.059L106.452 125.05Z" fill="#A1716A"/>
<path d="M136.455 149.954L134.873 152.768L133.464 151.986C130.637 150.422 127.5 149.498 124.276 149.278L122.689 149.166L122.916 145.945L124.503 146.057C128.199 146.312 131.795 147.373 135.037 149.167L136.455 149.954Z" fill="#A1716A"/>
<path d="M108.706 172.79L107.742 175.874L106.203 175.391C102.222 174.156 98.4589 172.307 95.0492 169.909L93.7276 168.986L95.5894 166.346L96.9038 167.271C100.041 169.475 103.504 171.174 107.168 172.307L108.706 172.79Z" fill="#A1716A"/>
<path d="M135.521 169.163L133.801 171.897L132.435 171.041C128.668 168.68 124.716 166.631 120.617 164.911L119.132 164.281L120.383 161.307L121.875 161.935C126.131 163.725 130.237 165.853 134.153 168.299L135.521 169.163Z" fill="#A1716A"/>
<path d="M155.739 157.736L167.816 162.928L169.09 159.964L157.013 154.772L155.739 157.736Z" fill="#A1716A"/>
<path d="M142.11 187.39L140.269 190.048L138.949 189.133C133.616 185.449 128.044 182.125 122.269 179.183L120.828 178.456L122.292 175.58L123.733 176.307C129.632 179.315 135.323 182.714 140.769 186.481L142.11 187.39Z" fill="#A1716A"/>
<path d="M113.416 206.38L131.52 212.589L132.567 209.538L114.463 203.329L113.416 206.38Z" fill="#A1716A"/>
<path d="M103.551 187.974L114.913 192.771L116.168 189.799L104.806 185.002L103.551 187.974Z" fill="#A1716A"/>
<path d="M73.5415 211.852L72.2284 214.796L70.7525 214.141C67.0727 212.202 63.6935 209.74 60.7205 206.832L59.6204 205.632L62.071 203.504L63.1711 204.704C65.8434 207.265 68.8495 209.452 72.1078 211.208L73.5415 211.852Z" fill="#A1716A"/>
<path d="M135.946 200.185L149.841 206.35L151.153 203.394L137.258 197.228L135.946 200.185Z" fill="#A1716A"/>
<path d="M158.774 176.619L157.113 179.4L155.729 178.564C153.093 176.986 150.354 175.587 147.53 174.377L146.043 173.739L147.32 170.774L148.797 171.406C151.76 172.679 154.633 174.151 157.397 175.812L158.774 176.619Z" fill="#A1716A"/>
<path d="M131.204 136.741L150.708 141.416L151.46 138.279L131.956 133.604L131.204 136.741Z" fill="#A1716A"/>
<path d="M119.414 113.887L130.817 121.098L132.541 118.372L121.139 111.16L119.414 113.887Z" fill="#A1716A"/>
<path d="M87.0524 107.467L104.552 113.916L105.668 110.889L88.168 104.439L87.0524 107.467Z" fill="#A1716A"/>
<path d="M71.1352 106.869L70.061 109.921L68.5378 109.379C63.8959 107.737 59.4248 105.647 55.1873 103.139L53.7999 102.32L55.446 99.5428L56.8334 100.362C60.894 102.763 65.1794 104.763 69.6284 106.331L71.1352 106.869Z" fill="#A1716A"/>
<path d="M86.6025 93.2032L85.1406 96.0863L83.7 95.359C79.6747 93.3213 75.48 91.6371 71.1633 90.3253L69.6213 89.8587L70.5598 86.7655L72.1038 87.2393C76.6072 88.6002 80.9837 90.3503 85.1837 92.47L86.6025 93.2032Z" fill="#A1716A"/>
<path d="M90.6695 78.9139L106.257 86.2523L107.632 83.3334L92.0436 75.995L90.6695 78.9139Z" fill="#A1716A"/>
<path d="M138.128 103.229L136.533 105.992L135.138 105.174C130.468 102.442 125.479 100.296 120.284 98.7841L118.729 98.3287L119.635 95.2287L121.189 95.6842C126.641 97.2778 131.877 99.5356 136.779 102.407L138.128 103.229Z" fill="#A1716A"/>
<path d="M170.715 107.865L169.413 110.822L167.937 110.166C161.545 107.348 154.93 104.799 148.261 102.577L146.731 102.068L147.754 98.9988L149.286 99.5148C156.048 101.767 162.761 104.359 169.254 107.205L170.715 107.865Z" fill="#A1716A"/>
<path d="M160.873 120.88L159.085 123.563L157.74 122.669C153.599 119.938 148.954 118.061 144.077 117.151L142.494 116.851L143.085 113.68L144.675 113.978C149.976 114.97 155.024 117.013 159.521 119.989L160.873 120.88Z" fill="#A1716A"/>
<path d="M152.569 130.89L166.115 136.814L167.408 133.858L153.862 127.934L152.569 130.89Z" fill="#A1716A"/>
<path d="M204.538 137.629L202.704 140.285L201.375 139.364C196.267 135.845 190.58 133.25 184.575 131.697L183.017 131.289L183.831 128.166L185.396 128.572C191.769 130.219 197.803 132.971 203.224 136.704L204.538 137.629Z" fill="#A1716A"/>
<path d="M186.51 161.013L199.917 167.208L201.271 164.279L187.863 158.084L186.51 161.013Z" fill="#A1716A"/>
<path d="M187.364 147.018L185.615 149.729L184.258 148.848C181.722 147.222 178.85 146.192 175.859 145.835L174.251 145.643L174.635 142.426L176.243 142.618C179.729 143.039 183.072 144.249 186.02 146.156L187.364 147.018Z" fill="#A1716A"/>
<path d="M177.625 173.73L189.781 179.617L191.188 176.714L179.032 170.827L177.625 173.73Z" fill="#A1716A"/>
<path d="M169.805 193.322L167.873 195.903L166.577 194.934C163.86 192.916 160.701 191.574 157.361 191.019L155.735 190.762L156.277 187.581L157.866 187.848C161.712 188.488 165.351 190.035 168.481 192.361L169.805 193.322Z" fill="#A1716A"/>
<path d="M192.149 189.601L190.372 192.296L189.029 191.41C186.868 190.018 184.366 189.245 181.797 189.175L180.179 189.125L180.273 185.9L181.888 185.942C185.056 186.033 188.139 186.993 190.799 188.717L192.149 189.601Z" fill="#A1716A"/>
<path d="M94.7357 208.202L104.736 213.709L106.292 210.883L96.2919 205.376L94.7357 208.202Z" fill="#A1716A"/>
<path d="M95.0454 229.365L110.172 234.256L111.165 231.187L96.038 226.295L95.0454 229.365Z" fill="#A1716A"/>
<path d="M150.239 234.378L149.46 237.514L147.9 237.154C143.441 236.041 139.136 234.38 135.084 232.211L133.665 231.446L135.193 228.577L136.612 229.341C140.426 231.377 144.478 232.932 148.675 233.972L150.239 234.378Z" fill="#A1716A"/>
<path d="M160.691 209.587L172.193 215.778L173.722 212.937L162.22 206.746L160.691 209.587Z" fill="#A1716A"/>
<path d="M189.848 210.275L199.831 214.13L200.993 211.12L191.01 207.266L189.848 210.275Z" fill="#A1716A"/>
<path d="M41.3639 180.588L39.7783 183.388L38.3914 182.599C33.079 179.576 27.412 177.224 21.5202 175.597L19.9642 175.165L20.8276 172.053L22.3836 172.485C28.5325 174.185 34.4469 176.641 39.9915 179.796L41.3639 180.588Z" fill="#A1716A"/>
</svg>
