<svg width="171" height="152" viewBox="0 0 171 152" fill="none" xmlns="http://www.w3.org/2000/svg">
<path d="M67.8627 81.1949C74.4944 75.884 70.7436 64.7433 72.789 61.3295C75.7735 56.4108 82.1979 54.6347 86.0409 50.3733C91.6701 44.1455 90.3853 34.1581 85.92 27.1057C81.3739 19.9265 74.166 14.7136 66.4453 11C58.7246 7.28644 50.4162 4.92797 42.2461 2.30424C36.2366 0.372479 29.1785 -1.58811 23.9871 1.99862C21.5615 3.67665 20.0231 6.30615 18.5654 8.84338C15.3907 14.3792 12.1122 20.3763 12.6942 26.679C12.988 29.8909 14.2902 32.9875 14.2729 36.2167C14.2268 44.7914 5.20393 51.2094 4.33967 59.7149C3.7635 65.4295 7.12835 70.9826 11.7147 74.5001C16.301 78.0176 25.4506 75.3766 32.503 76.8067C38.2705 77.9369 55.2042 91.3554 67.8627 81.1949Z" fill="#EFEAE8"/>
<path d="M51.1235 72.8578C50.7649 79.1434 43.3924 91.5001 46.0366 97.486C48.7993 103.724 52.7056 109.792 58.4366 113.758C61.812 116.037 65.6497 117.536 69.6629 118.14C73.6761 118.745 77.7608 118.441 81.6117 117.25C86.2584 115.781 94.4657 110.364 99.0799 108.808C107.569 105.953 114.939 108.15 124.113 108.235C133.287 108.32 141.639 105.699 147.143 98.8991C152.507 92.3066 147.264 83.8427 144.708 75.3041C142.152 66.7655 144.588 60.7308 142.34 52.1203C141.498 48.88 139.036 44.7413 136.863 42.0787C133.345 37.7726 105.796 22.6772 95.2217 30.9506C89.8094 35.1858 81.5155 30.2488 75.4408 32.0795C69.7751 33.7748 62.7148 39.3546 58.2238 43.1946C48.8636 51.1966 51.6498 63.6273 51.1235 72.8578Z" fill="#E39D24"/>
<path d="M19.0345 86.2345L28.7085 88.8122L29.1524 87.1461L19.4784 84.5684L19.0345 86.2345Z" fill="#005655"/>
<path d="M30.8075 85.0503L40.1211 88.0945L40.6568 86.4556L31.3431 83.4115L30.8075 85.0503Z" fill="#005655"/>
<path d="M35.6902 78.0133L34.9356 79.5761L34.159 79.1934C33.0503 78.6583 31.1496 77.8694 29.3168 77.1164C27.484 76.3634 25.5304 75.5637 24.3655 74.9896L23.5899 74.6107L24.3526 73.0624L25.1282 73.4413C26.2369 73.9764 28.1376 74.7653 29.9704 75.5183C31.8032 76.2713 33.7577 77.0748 34.9216 77.6451L35.6902 78.0133Z" fill="#005655"/>
<path d="M40.6735 79.0329L47.0095 81.1222L47.5495 79.4848L41.2134 77.3954L40.6735 79.0329Z" fill="#005655"/>
<path d="M41.4212 95.0824L48.6946 98.6346L49.4512 97.0853L42.1779 93.5331L41.4212 95.0824Z" fill="#005655"/>
<path d="M43.2521 104.526L42.411 106.046L41.6563 105.636C39.4258 104.424 37.2677 103.109 35.1746 101.835C34.2367 101.254 33.2949 100.674 32.3478 100.121L31.6063 99.683L32.4899 98.198L33.2324 98.6398C34.1897 99.2155 35.1354 99.7943 36.0771 100.374C38.1506 101.637 40.289 102.94 42.4918 104.127L43.2521 104.526Z" fill="#005655"/>
<path d="M52.8126 80.7592L61.8861 82.9241L62.2863 81.247L53.2127 79.0821L52.8126 80.7592Z" fill="#005655"/>
<path d="M24.3562 65.7659L32.1449 68.428L32.7025 66.7965L24.9139 64.1344L24.3562 65.7659Z" fill="#005655"/>
<path d="M40.5661 70.7893L46.5802 73.4669L47.2815 71.8918L41.2674 69.2142L40.5661 70.7893Z" fill="#005655"/>
<path d="M48.5328 64.6985L47.9165 66.3116L47.11 66.0034C45.2164 65.2775 43.3701 64.434 41.5817 63.4778L40.8242 63.0733L41.6389 61.5485L42.3975 61.9569C44.12 62.8809 45.8999 63.6937 47.7263 64.3903L48.5328 64.6985Z" fill="#005655"/>
<path d="M56.8912 66.8306L61.9673 68.8795L62.6126 67.2806L57.5365 65.2318L56.8912 66.8306Z" fill="#005655"/>
<path d="M72.9255 80.1401L72.0802 81.644L71.3274 81.2257C69.8161 80.39 68.1398 79.896 66.4168 79.7787L65.5686 79.7189L65.6898 77.9971L66.538 78.0569C68.5134 78.1933 70.435 78.7606 72.1678 79.719L72.9255 80.1401Z" fill="#005655"/>
<path d="M58.0957 92.3439L57.5805 93.9923L56.7582 93.7342C54.6306 93.0742 52.6193 92.0857 50.7971 90.8045L50.0907 90.3113L51.0858 88.9005L51.7882 89.3946C53.4649 90.5726 55.3157 91.4807 57.2735 92.0857L58.0957 92.3439Z" fill="#005655"/>
<path d="M72.4265 90.4055L71.5074 91.8667L70.7773 91.4091C68.7643 90.1478 66.652 89.0523 64.4613 88.1334L63.6679 87.7968L64.3363 86.2071L65.1336 86.5428C67.4081 87.4995 69.6024 88.6369 71.6954 89.944L72.4265 90.4055Z" fill="#005655"/>
<path d="M83.2315 84.299L89.6858 87.0733L90.3667 85.4893L83.9123 82.715L83.2315 84.299Z" fill="#005655"/>
<path d="M75.9479 100.147L74.9638 101.567L74.2585 101.078C71.4085 99.1096 68.4305 97.3332 65.3442 95.7608L64.5743 95.3721L65.3567 93.8352L66.1265 94.2239C69.2791 95.8314 72.3206 97.6478 75.231 99.6609L75.9479 100.147Z" fill="#005655"/>
<path d="M60.6128 110.296L70.2881 113.614L70.8474 111.983L61.1721 108.665L60.6128 110.296Z" fill="#005655"/>
<path d="M55.3405 100.459L61.4127 103.023L62.0834 101.434L56.0111 98.8706L55.3405 100.459Z" fill="#005655"/>
<path d="M39.3028 113.22L38.601 114.793L37.8122 114.443C35.8457 113.407 34.0397 112.091 32.4508 110.537L31.8629 109.896L33.1726 108.758L33.7605 109.4C35.1887 110.768 36.7952 111.938 38.5366 112.876L39.3028 113.22Z" fill="#005655"/>
<path d="M72.6536 106.985L80.0793 110.28L80.7805 108.7L73.3548 105.405L72.6536 106.985Z" fill="#005655"/>
<path d="M84.8534 94.3905L83.9659 95.8765L83.2262 95.4298C81.8175 94.5863 80.3536 93.8387 78.8444 93.192L78.05 92.8515L78.7321 91.2665L79.5216 91.6042C81.1049 92.2849 82.6405 93.0717 84.1179 93.9593L84.8534 94.3905Z" fill="#005655"/>
<path d="M70.1191 73.0783L80.5427 75.577L80.9446 73.9003L70.5211 71.4017L70.1191 73.0783Z" fill="#005655"/>
<path d="M63.8186 60.8647L69.9125 64.7185L70.834 63.2613L64.7402 59.4075L63.8186 60.8647Z" fill="#005655"/>
<path d="M46.5233 57.4334L55.8757 60.8799L56.4719 59.2621L47.1195 55.8155L46.5233 57.4334Z" fill="#005655"/>
<path d="M38.0167 57.1142L37.4426 58.7451L36.6286 58.4556C34.1478 57.5777 31.7583 56.4608 29.4937 55.1206L28.7522 54.6826L29.632 53.1986L30.3734 53.6366C32.5435 54.9198 34.8337 55.9882 37.2115 56.8265L38.0167 57.1142Z" fill="#005655"/>
<path d="M46.2829 49.8105L45.5016 51.3513L44.7317 50.9626C42.5805 49.8736 40.3388 48.9736 38.0318 48.2725L37.2077 48.0231L37.7093 46.37L38.5344 46.6233C40.9412 47.3505 43.2801 48.2859 45.5247 49.4187L46.2829 49.8105Z" fill="#005655"/>
<path d="M48.4564 42.1739L56.7871 46.0958L57.5215 44.5358L49.1908 40.6139L48.4564 42.1739Z" fill="#005655"/>
<path d="M73.8195 55.1685L72.9669 56.6452L72.2216 56.2083C69.7258 54.748 67.0595 53.601 64.283 52.7932L63.4522 52.5498L63.9361 50.8931L64.767 51.1364C67.6808 51.9882 70.479 53.1948 73.0985 54.7292L73.8195 55.1685Z" fill="#005655"/>
<path d="M91.2351 57.6462L90.5393 59.2265L89.7505 58.8761C86.3345 57.3698 82.799 56.0079 79.2352 54.82L78.4176 54.5481L78.9642 52.9079L79.7829 53.1836C83.3966 54.3873 86.9842 55.7727 90.4541 57.2937L91.2351 57.6462Z" fill="#005655"/>
<path d="M85.9754 64.6018L85.0197 66.0354L84.301 65.5581C82.0879 64.0982 79.6053 63.0955 76.999 62.609L76.1531 62.4488L76.4687 60.7539L77.3186 60.9132C80.1514 61.4431 82.8492 62.5354 85.2528 64.1256L85.9754 64.6018Z" fill="#005655"/>
<path d="M81.5373 69.9513L88.7769 73.1172L89.4677 71.5375L82.2282 68.3716L81.5373 69.9513Z" fill="#005655"/>
<path d="M109.311 73.5528L108.331 74.9722L107.621 74.4801C104.891 72.5995 101.852 71.2126 98.6422 70.3825L97.8098 70.1645L98.2449 68.496L99.0811 68.713C102.487 69.5929 105.712 71.0638 108.609 73.0587L109.311 73.5528Z" fill="#005655"/>
<path d="M99.6762 86.0499L106.842 89.3608L107.565 87.7956L100.399 84.4847L99.6762 86.0499Z" fill="#005655"/>
<path d="M100.133 78.571L99.1982 80.0198L98.4727 79.5485C97.1173 78.6799 95.5829 78.1294 93.9844 77.9384L93.1248 77.8358L93.3299 76.1166L94.1895 76.2191C96.0523 76.4444 97.8392 77.0911 99.4146 78.1103L100.133 78.571Z" fill="#005655"/>
<path d="M94.9283 92.8466L101.425 95.9927L102.176 94.4409L95.6798 91.2948L94.9283 92.8466Z" fill="#005655"/>
<path d="M90.7487 103.317L89.716 104.696L89.0239 104.179C87.5714 103.1 85.8831 102.383 84.0986 102.086L83.2296 101.949L83.5188 100.249L84.3684 100.391C86.4239 100.734 88.3684 101.561 90.041 102.803L90.7487 103.317Z" fill="#005655"/>
<path d="M102.69 101.328L101.74 102.768L101.023 102.295C99.8675 101.551 98.5307 101.138 97.1574 101.1L96.2932 101.074L96.3432 99.3505L97.2063 99.3731C98.8995 99.4216 100.547 99.9345 101.968 100.856L102.69 101.328Z" fill="#005655"/>
<path d="M50.6295 111.27L55.9738 114.212L56.8054 112.702L51.4612 109.759L50.6295 111.27Z" fill="#005655"/>
<path d="M50.795 122.579L58.8792 125.193L59.4097 123.553L51.3255 120.939L50.795 122.579Z" fill="#005655"/>
<path d="M80.2924 125.259L79.876 126.935L79.0421 126.742C76.6589 126.147 74.3583 125.26 72.1929 124.1L71.4343 123.692L72.2509 122.158L73.0094 122.567C75.0479 123.655 77.2133 124.486 79.4562 125.042L80.2924 125.259Z" fill="#005655"/>
<path d="M85.8778 112.009L92.0251 115.318L92.8423 113.8L86.695 110.491L85.8778 112.009Z" fill="#005655"/>
<path d="M101.46 112.377L106.796 114.437L107.417 112.829L102.081 110.769L101.46 112.377Z" fill="#005655"/>
<path d="M22.1062 96.5116L21.2588 98.0077L20.5176 97.5863C17.6785 95.9708 14.6498 94.7138 11.5011 93.8442L10.6695 93.6135L11.131 91.9504L11.9625 92.1811C15.2487 93.0895 18.4095 94.4019 21.3727 96.0881L22.1062 96.5116Z" fill="#005655"/>
</svg>
