<svg width="538" height="325" viewBox="0 0 538 325" fill="none" xmlns="http://www.w3.org/2000/svg">
<path d="M89.3732 47.6959C103.792 41.0874 121.076 41.627 136.486 43.9368C217.974 56.1508 256.982 8.40839 326.596 0.483568C334.452 -0.410695 344.985 -0.593419 351.451 4.73491C385.016 32.3904 356.531 89.7365 409.313 130.038C424.472 141.613 439.427 159.844 446.887 177.474C452.22 190.077 450.707 204.745 443.125 216.049C433.709 230.087 420.323 243.242 407.163 253.729C350.949 298.527 239.231 305.383 163.85 354.553C154.585 360.596 145.593 367.418 135.949 372.856C129.097 376.721 123.544 376.642 117.677 371.424C103.933 359.202 90.8244 346.205 77.1023 333.923C56.3977 315.392 34.3535 296.02 19.42 272.346C2.30748 245.217 -8.80333 207.403 9.2092 177.742C16.7757 165.283 26.8212 159.511 39.4834 153.398C48.0625 149.256 53.7249 144.34 53.7249 134.468C53.7249 113.842 50.697 89.4909 60.5321 70.6084C66.3373 59.4628 78.3508 52.7478 89.3732 47.6959Z" fill="#E39D24"/>
<path d="M342.431 186.028C345.276 175.014 354.422 164.564 365.12 160.668C375.413 156.921 404.261 155.305 413.896 158.445C427.217 162.788 435.327 163.834 438.874 162.058C442.915 160.035 446.258 156.395 450.148 154.103C456.172 150.555 464.754 150.858 471.345 152.574C488.608 157.069 518.913 179.413 530.876 193.74C536.818 200.856 539.234 209.208 537.398 218.335C536.371 223.435 533.045 226.287 529.141 229.382C521.243 235.642 513.333 241.585 505.828 248.349C498.795 254.687 492.018 260.905 486.332 268.497C481.345 275.156 475.95 282.098 468.847 286.631C452.344 297.164 435.507 297.58 419.238 287.117C413.201 283.234 407.875 279.824 400.574 278.884C393.402 277.961 386.23 279.207 379.308 276.591C369.301 272.81 358.328 267.938 352.041 258.944C344.995 248.866 338.453 235.402 338.338 222.851C338.224 210.473 339.33 198.035 342.431 186.028Z" fill="#005655"/>
<path d="M342.286 178.344C340.547 178.346 338.822 178.038 337.191 177.433C334.189 176.261 331.634 174.17 329.891 171.459C328.148 168.749 327.306 165.557 327.485 162.339L332.706 162.703C332.569 164.796 333.108 166.877 334.246 168.639C335.383 170.401 337.057 171.749 339.021 172.485C340.984 173.221 343.133 173.306 345.148 172.725C347.163 172.145 348.938 170.931 350.209 169.264L354.393 172.433C352.959 174.276 351.122 175.767 349.024 176.791C346.926 177.816 344.621 178.347 342.286 178.344Z" fill="#EFEAE8"/>
<path d="M422.55 100.33C420.553 96.5666 416.473 93.8726 411.632 93.1199C406.79 92.3672 402.084 93.6983 399.041 96.6775L395.373 92.9377C399.596 88.8096 405.966 86.9476 412.432 87.9459C418.897 88.9443 424.404 92.7 427.169 97.8819L422.55 100.33Z" fill="#EFEAE8"/>
<path d="M365.684 74.4048C364.392 74.4069 363.107 74.2282 361.865 73.8739C359.119 73.0377 356.68 71.4138 354.849 69.2039C353.017 66.994 351.875 64.2951 351.564 61.4421L356.77 60.9429C356.944 62.7671 357.662 64.4967 358.833 65.9067C360.003 67.3167 361.57 68.3418 363.331 68.8487C365.092 69.3556 366.965 69.3208 368.706 68.7488C370.447 68.1768 371.975 67.0941 373.092 65.6415L377.236 68.8109C375.86 70.5576 374.105 71.9688 372.104 72.9379C370.103 73.907 367.907 74.4086 365.684 74.4048Z" fill="#EFEAE8"/>
<path d="M311.059 75.8826C310.53 75.8817 310.001 75.8526 309.474 75.7954C307.745 75.6182 306.067 75.1015 304.538 74.2748C303.008 73.4482 301.656 72.3278 300.561 70.978C299.512 69.5822 298.752 67.9921 298.324 66.3C297.895 64.608 297.807 62.8476 298.065 61.1212C298.277 59.39 298.831 57.7181 299.694 56.2028C300.558 54.6875 301.714 53.359 303.096 52.2945L306.202 56.486C305.38 57.1333 304.694 57.9371 304.184 58.851C303.674 59.7649 303.35 60.7708 303.231 61.8106C303.068 62.8447 303.111 63.901 303.359 64.9182C303.606 65.9355 304.053 66.8937 304.673 67.7373C306.05 69.3294 307.977 70.343 310.069 70.5751C312.161 70.8072 314.263 70.2408 315.956 68.9892L319.284 73.038C316.951 74.9039 314.046 75.9085 311.059 75.8826Z" fill="#EFEAE8"/>
<path d="M255.921 166.079C254.78 161.745 251.167 158.155 246.167 156.499C241.167 154.843 236.112 155.509 232.626 158.29L229.385 154.178C234.29 150.303 241.191 149.313 247.839 151.539C254.486 153.766 259.407 158.67 260.999 164.748L255.921 166.079Z" fill="#EFEAE8"/>
<path d="M412.598 69.3338C410.831 64.0093 409.072 59.3899 405.467 56.8307C404.465 56.1749 403.328 55.7525 402.14 55.5948C400.952 55.4371 399.744 55.5481 398.605 55.9195C397.976 56.0973 397.399 56.4252 396.924 56.8752C396.45 57.3251 396.091 57.8835 395.88 58.5025L390.833 57.0288C391.27 55.6045 392.049 54.3086 393.101 53.2536C394.153 52.1986 395.447 51.4166 396.87 50.9753C398.796 50.3269 400.846 50.1326 402.86 50.4075C404.873 50.6824 406.796 51.4191 408.478 52.56C413.795 56.3315 415.974 62.8604 417.566 67.6937L412.598 69.3338Z" fill="#EFEAE8"/>
<path d="M290.411 124.473C287.31 124.529 284.276 123.574 281.767 121.751C279.258 119.927 277.412 117.336 276.508 114.369C275.604 111.403 275.692 108.222 276.758 105.31C277.825 102.398 279.811 99.9124 282.416 98.2305L285.237 102.636C283.437 103.911 282.136 105.773 281.558 107.903C280.98 110.032 281.16 112.296 282.068 114.307C283.141 116.235 284.851 117.729 286.905 118.534C288.96 119.34 291.23 119.405 293.327 118.72L295.157 123.625C293.639 124.191 292.031 124.478 290.411 124.473Z" fill="#EFEAE8"/>
<path d="M318.753 117.766C316.64 117.778 314.578 117.118 312.866 115.88C308.967 112.972 307.319 107.481 308.706 102.212L313.761 103.567C313.04 106.237 313.579 109.906 315.995 111.673C316.578 112.072 317.24 112.341 317.936 112.461C318.632 112.582 319.346 112.55 320.028 112.37C320.529 112.27 321.001 112.061 321.411 111.758C321.822 111.456 322.162 111.067 322.405 110.619L327.16 112.861C326.587 114.011 325.766 115.019 324.756 115.812C323.746 116.605 322.572 117.164 321.32 117.449C320.481 117.662 319.618 117.768 318.753 117.766Z" fill="#EFEAE8"/>
<path d="M354.517 105.316H349.28C349.281 103.601 348.745 101.928 347.747 100.533C346.75 99.1378 345.34 98.0897 343.717 97.5358C342.094 96.9818 340.338 96.9498 338.695 97.4442C337.053 97.9386 335.606 98.9346 334.558 100.293L330.406 97.1232C332.125 94.9092 334.491 93.2862 337.175 92.4804C339.859 91.6746 342.728 91.7261 345.381 92.6278C348.035 93.5295 350.341 95.2364 351.979 97.5107C353.616 99.785 354.504 102.513 354.517 105.316Z" fill="#EFEAE8"/>
<path d="M376.784 111.994C376.474 110.233 375.798 108.557 374.8 107.074C373.803 105.591 372.505 104.333 370.992 103.381C369.463 102.438 367.395 101.931 366.397 102.779L363.013 98.8169C366.286 96.0516 370.842 97.1688 373.75 98.9674C375.891 100.315 377.726 102.095 379.138 104.194C380.551 106.292 381.508 108.663 381.95 111.154L376.784 111.994Z" fill="#EFEAE8"/>
<path d="M410.364 125.962C408.447 125.993 406.562 125.467 404.938 124.449C403.314 123.43 402.019 121.963 401.211 120.225C400.403 118.486 400.116 116.551 400.385 114.653C400.654 112.755 401.467 110.975 402.726 109.529L406.687 112.952C405.996 113.812 405.624 114.886 405.637 115.989C405.65 117.092 406.047 118.157 406.759 119C407.471 119.843 408.454 120.412 409.539 120.61C410.625 120.808 411.746 120.621 412.709 120.083L415.411 124.568C413.887 125.483 412.142 125.966 410.364 125.962Z" fill="#EFEAE8"/>
<path d="M390.23 161.071C388.118 161.097 386.039 160.538 384.224 159.457C382.409 158.376 380.928 156.815 379.944 154.945C378.961 153.075 378.513 150.97 378.65 148.862C378.787 146.753 379.504 144.724 380.722 142.998L385.001 146.009C384.272 147.048 383.877 148.286 383.868 149.556C383.859 150.825 384.238 152.068 384.953 153.117C385.668 154.167 386.685 154.974 387.87 155.431C389.055 155.888 390.351 155.973 391.585 155.675L392.821 160.77C391.973 160.972 391.103 161.073 390.23 161.071Z" fill="#EFEAE8"/>
<path d="M352.927 146.991L347.761 146.199C348.152 144.013 349.287 142.03 350.974 140.585C352.661 139.141 354.795 138.325 357.015 138.275C359.229 138.314 361.361 139.114 363.052 140.542C364.744 141.969 365.892 143.937 366.302 146.112L361.136 146.991C360.936 146.034 360.423 145.17 359.676 144.538C358.929 143.907 357.993 143.543 357.015 143.505C356.044 143.551 355.115 143.918 354.375 144.549C353.635 145.18 353.126 146.039 352.927 146.991Z" fill="#EFEAE8"/>
<path d="M423.778 167.323C422.811 163.813 421.575 159.835 419.072 157.022C417.13 154.835 413.66 152.989 410.617 154.122L408.803 149.21C414.183 147.229 419.808 149.963 422.986 153.552C426.163 157.141 427.74 161.864 428.825 165.944L423.778 167.323Z" fill="#EFEAE8"/>
<path d="M394.271 203.24C393.471 203.237 392.679 203.075 391.942 202.764C389.085 201.473 386.72 199.297 385.197 196.557C383.675 193.817 383.075 190.659 383.488 187.551L388.662 188.344C388.42 190.303 388.806 192.288 389.764 194.014C390.722 195.739 392.203 197.116 393.994 197.947C394.079 197.978 394.166 197.999 394.255 198.01C393.964 198.08 393.699 198.231 393.49 198.445C393.281 198.66 393.137 198.929 393.075 199.222L398.193 200.324C398.085 200.847 397.86 201.339 397.534 201.763C397.209 202.187 396.793 202.532 396.316 202.772C395.68 203.085 394.98 203.245 394.271 203.24Z" fill="#EFEAE8"/>
<path d="M292.309 175.623C290.401 175.218 288.678 174.199 287.404 172.721C286.131 171.243 285.377 169.388 285.259 167.441C285.141 165.493 285.666 163.561 286.752 161.94C287.838 160.32 289.425 159.1 291.271 158.468L292.959 163.42C292.199 163.683 291.546 164.188 291.099 164.856C290.653 165.525 290.437 166.322 290.486 167.125C290.534 167.927 290.844 168.692 291.368 169.302C291.892 169.912 292.601 170.334 293.387 170.504L292.309 175.623Z" fill="#EFEAE8"/>
<path d="M341.589 223.318C339.945 223.327 338.32 222.967 336.834 222.264C333.427 220.608 330.773 217.462 328.721 212.653L333.538 210.6C335.052 214.15 336.93 216.488 339.124 217.549C341.153 218.532 344.275 218.183 345.257 216.258L349.916 218.635C348.3 221.836 344.932 223.318 341.589 223.318Z" fill="#EFEAE8"/>
<path d="M257.45 52.4094C257.394 51.2125 257.083 50.0414 256.536 48.9752C255.989 47.9091 255.22 46.9726 254.28 46.2291C253.398 45.4333 252.357 44.8334 251.227 44.4687C250.096 44.1041 248.901 43.9831 247.72 44.1136C246.365 44.3196 245.287 44.9059 244.978 45.6507L240.161 43.5589C241.207 41.1819 243.742 39.4229 246.943 38.9396C248.871 38.6873 250.831 38.8517 252.69 39.4217C254.549 39.9917 256.264 40.954 257.719 42.2437C259.22 43.4771 260.439 45.0176 261.294 46.7615C262.15 48.5054 262.622 50.4123 262.679 52.3539L257.45 52.4094Z" fill="#EFEAE8"/>
<path d="M236.017 113.673C232.891 113.686 229.847 112.676 227.349 110.797C225.478 109.327 224.002 107.416 223.052 105.236C222.102 103.055 221.708 100.672 221.905 98.3018L227.119 98.801C227 100.292 227.252 101.788 227.854 103.157C228.456 104.526 229.387 105.725 230.566 106.645C231.761 107.54 233.16 108.124 234.636 108.347C236.113 108.569 237.622 108.423 239.028 107.921L240.85 112.825C239.303 113.395 237.666 113.682 236.017 113.673Z" fill="#EFEAE8"/>
<path d="M467.682 134.472C464.238 134.471 460.891 133.336 458.157 131.242C455.423 129.149 453.454 126.213 452.556 122.888L457.603 121.51C458.067 123.209 458.951 124.765 460.174 126.034C461.397 127.302 462.919 128.243 464.6 128.769C466.282 129.296 468.069 129.391 469.797 129.045C471.524 128.7 473.138 127.926 474.488 126.794L477.848 130.804C474.993 133.18 471.396 134.478 467.682 134.472Z" fill="#EFEAE8"/>
<path d="M473.735 109.997L468.514 109.632C468.599 108.435 468.296 107.242 467.651 106.23C467.005 105.218 466.05 104.441 464.928 104.014C463.806 103.587 462.576 103.533 461.421 103.86C460.266 104.187 459.246 104.878 458.514 105.829L454.37 102.66C455.787 100.816 457.759 99.4785 459.995 98.8442C462.232 98.2098 464.613 98.3129 466.786 99.138C468.959 99.9632 470.809 101.467 472.06 103.425C473.312 105.384 473.899 107.694 473.735 110.013V109.997Z" fill="#EFEAE8"/>
</svg>
