<svg width="105" height="99" viewBox="0 0 105 99" fill="none" xmlns="http://www.w3.org/2000/svg">
<path d="M90.599 43.9013C89.188 39.6576 90.7607 29.5927 87.4705 26.3225C84.0372 22.9163 79.903 19.9182 75.1291 18.7791C72.3321 18.1455 69.4382 18.1474 66.6638 18.7846C63.8894 19.4218 61.3061 20.6778 59.1073 22.4587C56.4626 24.6295 52.5296 30.3265 49.9289 32.5463C45.1423 36.6247 39.7627 37.0774 33.7599 39.3908C27.7572 41.7043 22.9983 45.5929 21.1892 51.5052C19.4176 57.2445 25.0507 61.4797 28.9513 66.4586C32.8518 71.4375 32.8429 76.0522 36.5616 81.158C37.9579 83.0806 40.6461 85.1779 42.7593 86.3751C46.1797 88.3101 68.0889 91.1636 72.8174 82.9682C75.2375 78.7733 81.9362 79.8914 85.4173 77.1133C88.6671 74.5302 91.8096 69.0216 93.7325 65.3255C97.7405 57.6231 92.6713 50.1333 90.599 43.9013Z" fill="#EFEAE8"/>
<path d="M45.0619 14.2416C43.4133 11.6484 40.2349 9.89958 36.5573 9.56084C32.8797 9.2221 29.3832 10.3585 27.2037 12.5984L24.2959 10.0899C27.3213 6.9858 32.0517 5.40484 36.9629 5.85231C41.8741 6.29978 46.168 8.74517 48.4501 12.3149L45.0619 14.2416Z" fill="#E39D24"/>
<path d="M20.0551 39.6199C19.7621 38.448 19.2025 37.3476 18.4125 36.3893C17.6224 35.4311 16.6194 34.6363 15.4679 34.0561C14.3049 33.4825 12.7599 33.2235 12.0536 33.8334L9.41272 31.3027C11.7285 29.3128 15.1323 29.8835 17.344 30.9781C18.9731 31.7995 20.3925 32.9241 21.5109 34.2797C22.6294 35.6354 23.4222 37.1921 23.8385 38.85L20.0551 39.6199Z" fill="#E39D24"/>
<path d="M39.1758 38.5914C37.7849 38.6901 36.3939 38.3484 35.171 37.6075C33.9481 36.8666 32.9457 35.7582 32.285 34.4166C31.6244 33.0749 31.3338 31.5574 31.4484 30.0476C31.563 28.5378 32.078 27.1004 32.9309 25.9092L35.9535 28.4583C35.4875 29.1644 35.2635 30.0269 35.3198 30.8979C35.3761 31.769 35.7093 32.5943 36.2621 33.2325C36.815 33.8706 37.5531 34.2818 38.3499 34.3956C39.1468 34.5094 39.9527 34.3186 40.6296 33.856L42.7823 37.2929C41.7141 38.0755 40.4672 38.5245 39.1758 38.5914Z" fill="#E39D24"/>
<path d="M59.1752 37.5171C57.8388 37.6089 56.4997 37.2476 55.3056 36.4732C54.1116 35.6987 53.109 34.5413 52.4085 33.1286C51.7081 31.7158 51.337 30.1028 51.3363 28.4675C51.3356 26.8321 51.7053 25.2381 52.4045 23.8614L55.2384 26.0447C54.8201 26.8737 54.6213 27.8441 54.6686 28.8266C54.7159 29.8091 55.0071 30.7572 55.5033 31.5447C55.9995 32.3322 56.6773 32.9217 57.4464 33.2348C58.2155 33.548 59.0395 33.5698 59.8087 33.2975L60.803 37.1961C60.274 37.3812 59.7276 37.4889 59.1752 37.5171Z" fill="#E39D24"/>
<path d="M8.08934 18.3835L5.45652 21.1367C4.32531 19.9947 3.62582 18.4927 3.47673 16.8857C3.32765 15.2787 3.73816 13.6657 4.63861 12.3204C5.58814 11.0157 6.95523 10.0761 8.5093 9.66019C10.0634 9.24423 11.7093 9.37734 13.1695 10.0371L11.527 13.4853C10.8764 13.2061 10.1497 13.1537 9.46278 13.3365C8.77584 13.5194 8.16811 13.927 7.73637 14.4945C7.35688 15.0933 7.18564 15.8001 7.24953 16.504C7.31341 17.2079 7.60881 17.869 8.08934 18.3835Z" fill="#E39D24"/>
<path d="M44.6697 68.3405C43.8062 65.7663 42.7224 62.8548 40.7368 60.8614C39.1971 59.3115 36.5271 58.0766 34.2963 59.0424L32.7424 55.4582C36.6879 53.7672 41.0056 55.5761 43.5261 58.1205C46.0465 60.6649 47.415 64.1171 48.3903 67.1112L44.6697 68.3405Z" fill="#E39D24"/>
<path d="M17.2087 57.7988C14.6254 57.937 12.0673 57.1975 9.92966 55.6948C7.79206 54.1921 6.19402 52.0097 5.38251 49.485L9.11164 48.2195C9.5301 49.5102 10.2577 50.673 11.2274 51.601C12.1972 52.5289 13.3779 53.1923 14.6611 53.5299C15.9443 53.8676 17.2887 53.8687 18.5705 53.5332C19.8524 53.1977 21.0306 52.5364 21.9967 51.61L24.6828 54.5631C22.6402 56.5086 19.9949 57.6538 17.2087 57.7988Z" fill="#E39D24"/>
<path d="M68.2278 7.97847L64.7189 7.91484C64.7317 7.0856 64.4848 6.27332 64.0149 5.59838C63.545 4.92344 62.8771 4.42176 62.1101 4.16767C61.3431 3.91358 60.5179 3.92061 59.7567 4.18772C58.9955 4.45483 58.3389 4.96781 57.8842 5.65063L54.9926 3.61311C55.8723 2.29046 57.1431 1.29644 58.6166 0.778368C60.0901 0.260294 61.688 0.245735 63.1733 0.736848C64.6586 1.22796 65.9524 2.19861 66.863 3.50494C67.7735 4.81128 68.2523 6.38378 68.2284 7.9894L68.2278 7.97847Z" fill="#E39D24"/>
</svg>
