<svg width="171" height="192" viewBox="0 0 171 192" fill="none" xmlns="http://www.w3.org/2000/svg">
<path d="M118.372 183.747C133.417 172.705 126.374 147.73 131.199 140.405C138.232 129.854 152.458 126.594 161.299 117.582C174.248 104.414 172.476 82.2371 163.447 66.2122C154.256 49.8991 139.042 37.6529 122.553 28.6633C106.063 19.6737 88.148 13.6149 70.563 6.98473C57.6286 2.10381 42.4053 -2.94842 30.687 4.43539C25.2112 7.89019 21.5762 13.5362 18.1271 18.9869C10.6142 30.8798 2.82689 43.7803 3.44526 57.7518C3.75447 64.8715 6.27944 71.8402 5.90682 78.9661C4.91696 97.8879 -15.4694 111.128 -18.2403 129.813C-20.0922 142.367 -13.3136 154.97 -3.65419 163.205C6.00523 171.44 26.277 166.55 41.5427 170.43C54.0313 173.517 89.6512 204.874 118.372 183.747Z" fill="#005655"/>
</svg>
