<svg width="207" height="210" viewBox="0 0 207 210" fill="none" xmlns="http://www.w3.org/2000/svg">
<path d="M205.855 139.798C210.949 119.54 187.053 103.03 185.986 93.2705C184.522 79.1537 194.462 66.1906 195.655 52.1106C197.425 31.5149 180.07 13.6567 160.85 6.2813C141.282 -1.22631 119.425 -0.929659 98.7905 3.08592C78.1564 7.10149 58.3848 14.6611 38.4899 21.4929C23.8535 26.5142 7.1211 33.0212 2.28555 47.7506C0.0292246 54.6372 0.923826 62.0997 1.83927 69.2612C3.8479 84.8777 6.33884 101.559 16.8423 113.165C22.1896 119.084 29.3398 123.291 34.1036 129.702C46.7529 146.724 38.6219 172.689 49.5664 190.779C56.9285 202.926 71.767 208.956 85.9729 209.164C100.179 209.372 114.17 190.689 130.103 183.141C143.074 176.891 196.166 178.511 205.855 139.798Z" fill="#BDA19D"/>
</svg>
