<svg width="208" height="205" viewBox="0 0 208 205" fill="none" xmlns="http://www.w3.org/2000/svg">
<path d="M23.2528 145.616C29.6001 156.34 31.2578 184.679 42.1481 191.643C53.5087 198.893 66.5371 204.617 80.2104 204.902C88.2014 204.976 96.0813 203.263 103.261 199.891C110.441 196.518 116.734 191.572 121.671 185.425C127.593 177.952 134.941 160.116 140.714 152.535C151.342 138.603 165.725 134.195 180.707 124.352C195.689 114.509 206.354 101.11 207.792 83.9412C209.229 67.2654 191.388 59.0561 177.827 47.7991C164.266 36.5421 161.567 23.9695 148.426 12.2593C143.488 7.84754 134.93 3.72249 128.468 1.70929C118.011 -1.54159 56.6605 3.61869 48.62 28.7283C44.5054 41.5811 25.6026 42.4897 17.7621 52.1101C10.4363 61.0628 5.12944 77.9195 2.07429 89.1201C-4.29477 112.462 13.931 129.867 23.2528 145.616Z" fill="#E39D24"/>
</svg>
