<svg width="192" height="191" viewBox="0 0 192 191" fill="none" xmlns="http://www.w3.org/2000/svg">
<path d="M187.228 62.9757C178.297 47.0255 153.172 50.8789 146.629 45.3107C137.215 37.2085 135.75 22.9879 128.049 13.3123C116.799 -0.855004 95.0272 -1.78978 78.366 5.06671C61.4051 12.0473 47.6761 25.3697 36.9602 40.3232C26.2443 55.2766 18.2068 71.9667 9.65336 88.2678C3.35794 100.257 -3.37837 114.451 2.39544 126.729C5.0978 132.466 10.151 136.677 15.0366 140.683C25.6982 149.413 37.3064 158.53 50.9633 159.603C57.9219 160.156 64.9993 158.536 71.8823 159.753C90.159 162.983 100.587 184.389 118.42 189.322C130.403 192.628 143.468 187.548 152.631 179.144C161.795 170.741 159.471 150.447 165.073 136.071C169.571 124.3 204.325 93.4296 187.228 62.9757Z" fill="#005655"/>
</svg>
