<svg xmlns="http://www.w3.org/2000/svg" width="1440" height="900" viewBox="0 0 1440 900">
  <defs>
    <style>
      .cls-1, .cls-15, .cls-2 {
        fill: none;
      }

      .cls-1, .cls-2 {
        stroke: #a1716a;
      }

      .cls-1, .cls-15, .cls-16, .cls-17, .cls-2 {
        stroke-miterlimit: 10;
      }

      .cls-1 {
        stroke-width: 12px;
      }

      .cls-2 {
        stroke-width: 3px;
      }

      .cls-3 {
        font-size: 12px;
        fill: #4d4d4d;
      }

      .cls-3, .cls-6 {
        font-family: Arboria-Book, Arboria;
      }

      .cls-4 {
        fill: #a1716a;
      }

      .cls-5 {
        fill: #24bcb8;
      }

      .cls-6, .cls-9 {
        font-size: 19.3px;
      }

      .cls-16, .cls-6 {
        fill: #fff;
      }

      .cls-7, .cls-8, .cls-9 {
        fill: #005655;
      }

      .cls-8 {
        font-size: 18px;
      }

      .cls-8, .cls-9 {
        font-family: Arboria-Bold, Arboria;
        font-weight: 700;
      }

      .cls-10 {
        letter-spacing: 0em;
      }

      .cls-11 {
        letter-spacing: -0.01em;
      }

      .cls-12, .cls-17 {
        fill: #decbad;
      }

      .cls-13 {
        fill: #9b8e7e;
      }

      .cls-14 {
        fill: #998675;
      }

      .cls-15, .cls-16 {
        stroke: #c7b299;
      }

      .cls-15, .cls-16, .cls-17 {
        stroke-width: 0.25px;
      }

      .cls-17 {
        stroke: #fff;
      }

      .cls-18 {
        fill: #f7ecdd;
      }

      .cls-19 {
        fill: #c6b193;
      }
    </style>
  </defs>
  <title>map ceremonie</title>
  <g id="Calque_2" data-name="Calque 2">
    <path class="cls-1" d="M344-209.35C321.4-79.74,216.67,34.08,199.33,164.5c-11.58,87.05,6.8,178.81,47,256.87,11.81,22.92,39.95,52.66,59.09,69.94,21.62,19.52,78,57.49,103.71,71.16,64,34,119.2,32.31,221.9,33.76C756.8,598,898.8,584.46,1021.79,610.7s209.64,110.67,258.07,226.72c21.16,50.69,32,99,59.77,146.33"/>
    <path class="cls-2" d="M647.94,595c-1.6-10.57-9.11-32.47-4.82-41,4.73-9.43,16.8-16.7,25.32-22.91,23.84-17.36,40.81-28.08,69.95-32.56,15.68-2.41,27-6.38,39.8-6,6.45.18,27.38,1.46,33.76,2.41,17.09,2.55,23,3.28,39.8,7.24,20.5,4.82,37.38,6,53.06,13.26,11.87,5.48,16.52,10.61,24.89,20.65,7.67,9.2,16.54,17.38,23.65,27s12.47,21.24,11.63,33.19"/>
    <text class="cls-3" transform="matrix(0.99, 0.14, -0.14, 0.99, 805.24, 505.51)">c</text>
    <text class="cls-3" transform="translate(811.32 506.39) rotate(8.45)">h</text>
    <text class="cls-3" transform="translate(817.72 507.34) rotate(8.77)">e</text>
    <text class="cls-3" transform="matrix(0.98, 0.18, -0.18, 0.98, 824.39, 508.33)">m</text>
    <text class="cls-3" transform="matrix(0.98, 0.2, -0.2, 0.98, 834.42, 510.17)">i</text>
    <text class="cls-3" transform="translate(836.79 510.64) rotate(12.27)">n</text>
    <text class="cls-3" transform="matrix(0.97, 0.22, -0.22, 0.97, 843.12, 512.03)"> </text>
    <text class="cls-3" transform="matrix(0.97, 0.23, -0.23, 0.97, 845.64, 512.61)">d</text>
    <text class="cls-3" transform="translate(852.58 514.21) rotate(11.7)">u</text>
    <text class="cls-3" transform="translate(858.84 515.49) rotate(11.11)"> </text>
    <text class="cls-3" transform="translate(861.4 515.99) rotate(10.89)">j</text>
    <text class="cls-3" transform="translate(863.8 516.46) rotate(10.74)">a</text>
    <text class="cls-3" transform="translate(870.82 517.76) rotate(11.56)">m</text>
    <text class="cls-3" transform="translate(880.79 519.81) rotate(14.04)">b</text>
    <text class="cls-3" transform="matrix(0.95, 0.3, -0.3, 0.95, 887.62, 521.5)">o</text>
    <text class="cls-3" transform="translate(894.37 523.65) rotate(20.93)">r</text>
    <text class="cls-3" transform="translate(898.09 525.04) rotate(24.38)">e</text>
    <text class="cls-3" transform="translate(904.11 527.76) rotate(29.93)">e</text>
    <path class="cls-2" d="M904.81,515.43c5.6-29,20.59-53.12,33.77-79.59,4.62-9.27,18.29-39,22.91-48.24,17.08-34.3,14.27-54.93,31.36-89.24,6.37-12.79,20.64-28.3,32.56-36.18,6.4-4.23,19-5.32,25.32-9.65,6.84-4.66,17.41-16.73,22.92-22.91,13.08-14.69,20.69-25.25,36.17-37.38,8.52-6.67,16.82-13.34,26.7-17.75,18.84-8.43,40.28-7.65,60.82-9.72,2.59-.26,10.15.65,12.58-.27,2.86-1.09.95-11.75,3.62-13.27,22.32-12.66,45.82-36.17,73.56-47,3.55-1.39,22.06-16.93,20.5-15.68"/>
    <path class="cls-2" d="M1209.92,164.5c14.22,11.59,24.51,33.62,26.53,51.86,1.4,12.63,8.09,31.91,8.44,44.62s-6.47,20.09,6,27.73c3.62,2.22,6.73,6.57,9.65,9.65,5.67,6,3.62,12.06,8.44,25.33,6.14,16.89,10.23,29,18.9,44.73s21.23,36.29,37.78,43.3"/>
    <path class="cls-2" d="M1244.89,129.53c38.59,12.06,84.35,28.85,124.21,54.27,6.37,4,11.41,17.55,14,24.64s2.9,15.15-3.13,18.77c-11.32,6.79-14.76,12.06-27.74,9.65-4.13-.77-15.68-8.44-19.29-2.41-1.81,3-10.69,20.53-13.27,22.91-17.81,16.43-37.66,29.4-55.47,45.82"/>
    <path class="cls-2" d="M347.39,529.26c-8.19,33.23.69,68.21-1.84,102.34-2,26.61-10.84,53.59-4.17,79.42,3,11.49,8.85,22,14.49,32.4q19.1,35.34,35.22,72.18c3.44,7.87,6.8,15.85,8.52,24.27,3.43,16.77.18,34.11-3.08,50.92"/>
    <path class="cls-2" d="M-45.45,441.92c19.76,25,45.81,16.86,69.91,20.39,5.05.74,10.21,1.36,14.89,3.38,6.3,2.72,11.27,7.78,15.65,13.06,13,15.65,22.09,34.08,31.08,52.32a16.13,16.13,0,0,1,2,5.85,14.69,14.69,0,0,1-1.52,6.62c-3.72,8.94-9.07,17.37-16.54,23.53-5.2,4.28-11.27,7.35-17.28,10.39L18.82,594.59C10.17,599,.2,605.45.69,615.13c.54,10.55,13,15.82,23.53,17,40,4.59,79.15-13.88,112.33-36.7,6.74-4.64,13.51-9.55,21.35-11.91,12.7-3.81,26.33-.41,39.57-.91,16.68-.62,32.64-7.49,46.47-16.84s25.81-21.14,37.79-32.77c5-4.83,10.27-9.82,17-11.66,9.77-2.7,21.92,1.4,29.28-5.57"/>
    <path class="cls-2" d="M367.67,768.57c-3.6,16.92-22,25.4-34.24,37.64-5.48,5.5-9.84,12-14.16,18.43l-10.71,16c-6.16,9.18-14.09,19.38-25.15,19.46-7.37.06-13.86-4.55-19.77-9L244,836.44c-3.66-2.73-7.42-5.56-9.78-9.46-3.23-5.32-3.45-11.85-3.54-18.06-.26-18.68,1.2-40.06,15.92-51.55,6.84-5.34,15.58-7.59,24.15-8.92,9-1.4,18.56-1.87,27,1.66,14,5.87,29.34,42.11,35.5,56"/>
    <path class="cls-2" d="M899.64,596.84a76.52,76.52,0,0,1-28.5,58.63c-7.58,6-16.23,10.52-24.45,15.64-38.8,24.18-67.1,61.67-94.23,98.47-11.36,15.4-23,31.13-38.77,41.95-14.69,10.06-25.49,19.83-35.75,33.24-9.85,12.86-6.88,32.35-15.06,46.33-8.64,14.75-26.35,50.68-35,65.43"/>
    <path class="cls-2" d="M1112.19,774.75q80.54-35,163.88-63c12.88-4.34,25.86-8.55,39.24-11,25.45-4.64,51.64-2.73,77.36-5.58a210.57,210.57,0,0,0,87.23-30.11c10.27-6.36,20-13.62,30.85-19,9.44-4.66,19.58-7.78,29.06-12.38,15.79-7.66,29.32-19.2,44.1-28.68,48.34-31,107.53-38.77,164.55-45.76a14.48,14.48,0,0,0-12.44,4.15"/>
    <path class="cls-2" d="M1084.51,626.13c28.93-20.25,83.21,2.73,125.41,5.07,21.71,1.21,35,12,49.44,16.89,21.13,7.07,45.83,36.18,41,56.68"/>
    <path class="cls-4" d="M749.68,495.35a190.81,190.81,0,0,0-24.85-10.94c-3.75-1.42-7.52-2.81-11.23-4.33-4.5-1.85-10.7-3.77-14.49-6.91-3.15-2.61-5-7.4-6.66-11-2.47-5.26-4.67-10.63-6.84-16a139.87,139.87,0,0,0-19.07-33.51c-3.53-4.59-7.31-9-11-13.4-2.76-3.25-6.18-6.71-7.64-10.82-.64-1.8-3.54-1-2.89.8,2.22,6.25,7.81,11.42,12,16.36,8,9.43,15.39,19.33,20.95,30.41,3.92,7.8,6.77,16.11,10.32,24.09A90.59,90.59,0,0,0,694,471.55c2.09,3.34,4.23,4.63,7.8,6.44,15.06,7.62,31.54,11.82,46.37,19.95,1.7.92,3.21-1.67,1.52-2.59Z"/>
    <path class="cls-4" d="M736.08,489.42c-1.59-8.2.46-17.25,3.95-24.73,3.29-7.07,9.61-11.53,15.55-16.3A120.54,120.54,0,0,0,788,409.11c.88-1.71-1.71-3.23-2.59-1.51a114.72,114.72,0,0,1-16.9,24.75c-6.61,7.32-14.4,13-21.82,19.47-10.61,9.2-16.16,24.41-13.46,38.39.37,1.9,3.26,1.1,2.9-.79Z"/>
    <text class="cls-3" transform="translate(716.65 586.76) rotate(-1.03)">c</text>
    <text class="cls-3" transform="matrix(1, -0.02, 0.02, 1, 722.79, 586.65)">h</text>
    <text class="cls-3" transform="matrix(1, -0.02, 0.02, 1, 729.27, 586.53)">e</text>
    <text class="cls-3" transform="translate(736.07 586.4) rotate(-1.08)">m</text>
    <text class="cls-3" transform="translate(746.32 586.21) rotate(-1.06)">i</text>
    <text class="cls-3" transform="translate(748.75 586.16) rotate(-1.05)">n</text>
    <text class="cls-3" transform="matrix(1, -0.02, 0.02, 1, 755.25, 586.04)"> </text>
    <text class="cls-3" transform="translate(757.88 586) rotate(-1)">d</text>
    <text class="cls-3" transform="translate(765.04 585.87) rotate(-0.94)">u</text>
    <text class="cls-3" transform="translate(771.44 585.77) rotate(-0.9)"> </text>
    <text class="cls-3" transform="translate(774.08 585.73) rotate(-0.85)">v</text>
    <text class="cls-3" transform="matrix(1, -0.01, 0.01, 1, 780.26, 585.63)">i</text>
    <text class="cls-3" transform="matrix(1, -0.01, 0.01, 1, 782.72, 585.6)">l</text>
    <text class="cls-3" transform="translate(785.16 585.57) rotate(-0.73)">l</text>
    <text class="cls-3" transform="translate(787.61 585.53) rotate(-0.66)">a</text>
    <text class="cls-3" transform="translate(794.77 585.45) rotate(-0.54)">g</text>
    <text class="cls-3" transform="translate(801.89 585.38) rotate(-0.41)">e</text>
    <text class="cls-3" transform="matrix(0.2, -0.98, 0.98, 0.2, 680.91, 874.67)">v</text>
    <text class="cls-3" transform="translate(682.04 868.84) rotate(-74.46)">e</text>
    <text class="cls-3" transform="matrix(0.37, -0.93, 0.93, 0.37, 683.84, 862.52)">r</text>
    <text class="cls-3" transform="translate(685.21 858.85) rotate(-61)">s</text>
    <text class="cls-3" transform="translate(687.9 854.16) rotate(-53.57)"> </text>
    <text class="cls-3" transform="matrix(0.62, -0.79, 0.79, 0.62, 689.41, 852.13)">l</text>
    <text class="cls-3" transform="translate(690.87 850.23) rotate(-50.09)">e</text>
    <text class="cls-3" transform="matrix(0.67, -0.75, 0.75, 0.67, 695.21, 845.09)"> </text>
    <text class="cls-3" transform="matrix(0.69, -0.72, 0.72, 0.69, 696.89, 843.17)">c</text>
    <text class="cls-3" transform="translate(701.07 838.77) rotate(-43.73)">h</text>
    <text class="cls-3" transform="matrix(0.75, -0.66, 0.66, 0.75, 705.68, 834.36)">e</text>
    <text class="cls-3" transform="translate(710.69 829.94) rotate(-37.95)">m</text>
    <text class="cls-3" transform="matrix(0.81, -0.59, 0.59, 0.81, 718.77, 823.72)">i</text>
    <text class="cls-3" transform="matrix(0.82, -0.57, 0.57, 0.82, 720.7, 822.29)">n</text>
    <text class="cls-3" transform="matrix(0.8, -0.59, 0.59, 0.8, 726.17, 818.5)"> </text>
    <text class="cls-3" transform="matrix(0.77, -0.64, 0.64, 0.77, 728.53, 816.83)">d</text>
    <text class="cls-3" transform="translate(734.28 812.04) rotate(-43.41)">u</text>
    <text class="cls-3" transform="matrix(0.7, -0.71, 0.71, 0.7, 739.05, 807.46)"> </text>
    <text class="cls-3" transform="translate(741.02 805.49) rotate(-47.46)">c</text>
    <text class="cls-3" transform="translate(745.23 800.9) rotate(-49.74)">a</text>
    <text class="cls-3" transform="translate(749.84 795.43) rotate(-51.4)">s</text>
    <text class="cls-3" transform="translate(753.34 791.05) rotate(-52.36)">t</text>
    <text class="cls-3" transform="translate(755.96 787.66) rotate(-53.13)">o</text>
    <text class="cls-3" transform="translate(760.25 781.92) rotate(-53.53)">r</text>
  </g>
  <g id="Calque_3" data-name="Calque 3">
    <path class="cls-5" d="M488.44,140.46c-1.92,19.25-.69,40.39-12.35,55.84-7.44,9.86-19.2,15.84-26.34,25.92-11.92,16.81-8,39.63-11,60-4.17,28.25-30.85,53.83-58.55,60.75-24.12,6-37.32,20.44-36.31,41.23.27,5.53,11.35,14.8,12.19,20.28,4.83,31.35-42.21,72.35-22.91,79.59,14,5.24,20.5-25.33,35-27.74,19.18-3.2,47.68-2.78,64.49-14.25,39.22-26.75,66.74-61.89,110.38-85.84,61.5-33.77,135.06-39.8,197.77-59.1,14.42-4.43,41.37-26.87,55.59-31.91,12.56-4.45,23.06-.16,36.06-3.06,55.73-12.4,66.33-37.38,133.87-31.35,24.25,2.16,89.66-8.73,108.53-24.12,25.73-21,9-62.68,28.94-89.24,7.24-9.65,18.2-20.18,35,1.2,13.56,17.29,34.57,24,53.06,12.06,16.88-10.85,48.77-25.08,63.92-41,5-5.27,15.85-22.36,22.91-24.12,9.44-2.35,32.63-.85,43.41,7.24,9.65,7.23,20.5,0,24.12-6,5.38-9,.79-26.2,13.27-36.18,10.9-8.73,30.15-26.53,36.18-35,2.89-4.05-16.89-12.06-20-19.67-5-12.24-25.72-5-35.46,4s-16.07,21.75-25.46,31.09c-16.32,16.25-40.83,21.26-63.85,21.18s-45.94-4.46-68.94-3.62c-25.35.92-50,8.12-74.77,13.44-48.31,10.38-98,13.71-147.36,11.76-45.28-1.79-90.35-8-135.67-8.29-29.6-.2-59.16,2.13-88.67,4.46C711.66,51.88,704,66.19,680.5,62c-33.76-6-63.74,5.25-85.62,8.45-22.12,3.23-53.75,6.31-76,15.67C496,95.76,490.36,121.21,488.44,140.46Z"/>
    <path class="cls-5" d="M354.57,622.7c5,40.82,7.91,82.12,19,121.72,3.33,11.86,7.56,24,16.29,32.7,13.16,13.1,34.35,15.47,52.06,9.9s32.52-17.85,45.6-31,50.59-31.23,65.13-42.78c23.24-18.44,26.77-31.61,55.48-24.12,27.73,7.24,61.18,9.29,84.41,27.74,5.13,4.07,16,4,21.71,7.23,8.44,4.83,29.36,1,39.8-3.61,34.47-15.34,54.11-31.84,84.62-54-2.91-5.47-10.07-6.75-16.25-7.13-26.35-1.63-53,1.61-79.23-1.56C713.88,654.18,689,634.82,660,633.62c-10.93-.46-16.86,2.4-27.73,1.2-9.19-1-26.83.92-36.06,1.38-20.62,1-41.4,8.26-58,10.68-24.12,3.52-43.74-4.38-67.53,1.21-16.12,3.79-28.53,15.77-44.62,12.06-15.68-3.62-27.57-2.75-35-12.06-4.93-6.21-15-33.11-15.67-41-2.41-27.74-19.3-48.24-24.12-44.62C346.08,566.36,352.44,605.36,354.57,622.7Z"/>
  </g>
  <g id="textes">
    <text class="cls-6" transform="translate(604.23 171.68)"><tspan xml:space="preserve">petit  lac long</tspan></text>
    <g>
      <path class="cls-7" d="M534.76,347.59h3.76V366h-3.76Z"/>
      <path class="cls-7" d="M541,359a7.19,7.19,0,0,1,7.25-7.28A7,7,0,0,1,555,359a11.54,11.54,0,0,1-.09,1.34H544.76a3.71,3.71,0,0,0,3.89,2.86,6.92,6.92,0,0,0,3.78-1.09l1.4,2.68a9.41,9.41,0,0,1-5.21,1.54C544.54,366.29,541,363.63,541,359Zm10.53-1.2a3.39,3.39,0,0,0-3.39-2.94,3.52,3.52,0,0,0-3.39,2.94Z"/>
      <path class="cls-7" d="M564.22,368.39l1.4-2.35a6.93,6.93,0,0,0,4.06,1.26,3.69,3.69,0,0,0,4-3.81.92.92,0,0,0,0-.3,4.75,4.75,0,0,1-4.2,2.07c-3.89,0-6.33-3-6.33-6.75s2.44-6.78,6.33-6.78a5,5,0,0,1,4.39,2.19V352h3.56v10.62c0,4.59-2.77,7.5-7.42,7.5A9.18,9.18,0,0,1,564.22,368.39Zm9.55-10a3.38,3.38,0,1,0-3.39,3.55A3.35,3.35,0,0,0,573.77,358.43Z"/>
      <path class="cls-7" d="M580.32,352H584v2.69c.4-1.15,1.82-3,4.9-3v4.09c-3.24,0-4.84,1.49-4.84,4.82V366h-3.75Z"/>
      <path class="cls-7" d="M590.42,359c0-4,2.47-7.28,6.33-7.28a5.48,5.48,0,0,1,4.37,2V352h3.67v14h-3.67v-1.68a5.39,5.39,0,0,1-4.37,2C592.89,366.29,590.42,363.05,590.42,359ZM601,359c0-2.18-1.4-3.8-3.33-3.8a3.82,3.82,0,0,0,0,7.61C599.64,362.82,601,361.25,601,359Z"/>
      <path class="cls-7" d="M607.64,352h3.67v1.88a5.23,5.23,0,0,1,4.43-2.16c3.69,0,5,2.38,5,6.22V366H617v-7.58c0-2.05-.53-3.14-2.44-3.14s-3.13,1.51-3.13,3.64V366h-3.76Z"/>
      <path class="cls-7" d="M623,359c0-4,2.52-7.28,6.38-7.28a5.51,5.51,0,0,1,4.23,1.85v-6h3.76V366h-3.56v-1.68a5.58,5.58,0,0,1-4.48,2C625.42,366.29,623,363.05,623,359Zm10.61,0c0-2.18-1.4-3.8-3.33-3.8a3.82,3.82,0,0,0,0,7.61C632.17,362.82,633.57,361.25,633.57,359Z"/>
      <path class="cls-7" d="M646.34,347.59h3.75V366h-3.75Z"/>
      <path class="cls-7" d="M652.53,359a7.49,7.49,0,1,1,7.47,7.28A7.32,7.32,0,0,1,652.53,359Zm11.14,0a3.67,3.67,0,1,0-3.67,3.81A3.64,3.64,0,0,0,663.67,359Z"/>
      <path class="cls-7" d="M669.52,359c0-4,2.52-7.28,6.39-7.28a5.54,5.54,0,0,1,4.23,1.85v-6h3.75V366h-3.56v-1.68a5.58,5.58,0,0,1-4.48,2C672,366.29,669.52,363.05,669.52,359Zm10.62,0c0-2.18-1.4-3.8-3.34-3.8a3.82,3.82,0,0,0,0,7.61C678.74,362.82,680.14,361.25,680.14,359Z"/>
      <path class="cls-7" d="M687.33,368.39l1.4-2.35a7,7,0,0,0,4.06,1.26,3.69,3.69,0,0,0,4-3.81.92.92,0,0,0,0-.3,4.74,4.74,0,0,1-4.2,2.07c-3.89,0-6.33-3-6.33-6.75s2.44-6.78,6.33-6.78a5,5,0,0,1,4.4,2.19V352h3.55v10.62c0,4.59-2.77,7.5-7.42,7.5A9.18,9.18,0,0,1,687.33,368.39Zm9.55-10a3.38,3.38,0,1,0-3.39,3.55A3.35,3.35,0,0,0,696.88,358.43Z"/>
      <path class="cls-7" d="M703,359a7.19,7.19,0,0,1,7.25-7.28,7,7,0,0,1,6.81,7.23,11.54,11.54,0,0,1-.09,1.34H706.82a3.71,3.71,0,0,0,3.89,2.86,6.94,6.94,0,0,0,3.78-1.09l1.4,2.68a9.41,9.41,0,0,1-5.21,1.54C706.59,366.29,703,363.63,703,359Zm10.53-1.2a3.39,3.39,0,0,0-3.39-2.94,3.52,3.52,0,0,0-3.39,2.94Z"/>
      <path class="cls-7" d="M569.75,381.51a6.82,6.82,0,0,1,0-9.55l.54.58a6.36,6.36,0,0,0,0,8.39Z"/>
      <path class="cls-7" d="M571.4,376.57a4,4,0,0,1,4.07-4,4.05,4.05,0,0,1,2.69,1l-.57.66a3.16,3.16,0,1,0,.17,4.55l.61.67a4.09,4.09,0,0,1-2.9,1.18A4,4,0,0,1,571.4,376.57Z"/>
      <path class="cls-7" d="M579.5,372.67h1v3.22H585v-3.22h1v7.82h-1v-3.76h-4.52v3.76h-1Z"/>
      <path class="cls-7" d="M590.68,372.65h.87l3.66,7.84h-1l-.73-1.52h-4.78l-.73,1.52h-1Zm2.48,5.53-1.43-3c-.27-.57-.57-1.32-.62-1.41,0,.09-.33.83-.61,1.41l-1.44,3Z"/>
      <path class="cls-7" d="M596.29,372.67h1v7h4.93v.85h-5.89Z"/>
      <path class="cls-7" d="M603.57,372.67h5.91v.85h-4.94v2.37h4.63v.84h-4.63v2.91h5.12v.85h-6.09Z"/>
      <path class="cls-7" d="M613.24,373.52h-2.9v-.85h6.76v.85h-2.89v7h-1Z"/>
      <path class="cls-7" d="M620.93,372.67h3.2c2.16,0,3.34,1.32,3.34,2.93s-1.18,2.93-3.35,2.93h-2.23v2h-1Zm3.29,5a2.09,2.09,0,1,0,0-4.17h-2.34v4.17Z"/>
      <path class="cls-7" d="M628.9,372.67h3.2c2.17,0,3.36,1.32,3.36,2.95a2.77,2.77,0,0,1-1.8,2.59l1.86,2.28h-1.15l-1.59-2a4.34,4.34,0,0,1-.76.06h-2.16v2h-1Zm3.28,5a2.1,2.1,0,1,0,0-4.19h-2.33v4.19Z"/>
      <path class="cls-7" d="M636.89,372.67h1v7.82h-1Z"/>
      <path class="cls-7" d="M639.69,372.67h1l3.89,5.08c.4.53.83,1.27.83,1.27v-6.35h1v7.82h-1l-3.82-5a10.94,10.94,0,0,1-.88-1.35v6.31h-1Z"/>
      <path class="cls-7" d="M647.86,376.57a4,4,0,0,1,4.07-4,4.05,4.05,0,0,1,2.69,1l-.57.66a3.14,3.14,0,1,0-2.12,5.52,3.15,3.15,0,0,0,2.29-1l.6.67a4.05,4.05,0,0,1-2.89,1.18A4,4,0,0,1,647.86,376.57Z"/>
      <path class="cls-7" d="M656,372.67h1v7.82h-1Z"/>
      <path class="cls-7" d="M658.76,372.67H662c2.16,0,3.34,1.32,3.34,2.93s-1.18,2.93-3.35,2.93h-2.23v2h-1Zm3.29,5a2.09,2.09,0,1,0,0-4.17h-2.34v4.17Z"/>
      <path class="cls-7" d="M668.66,372.65h.87l3.66,7.84h-1l-.72-1.52H666.7l-.72,1.52h-1Zm2.48,5.53-1.43-3c-.27-.57-.57-1.32-.62-1.41-.05.09-.34.83-.61,1.41l-1.44,3Z"/>
      <path class="cls-7" d="M674.27,372.67h1v7h4.93v.85h-5.89Z"/>
      <path class="cls-7" d="M681.15,380.93a6.36,6.36,0,0,0,0-8.39l.54-.58a6.82,6.82,0,0,1,0,9.55Z"/>
    </g>
    <text class="cls-8" transform="translate(923.55 496.52)">le log home</text>
    <text class="cls-9" transform="translate(478.12 522.22)">le chalet du lac</text>
    <text class="cls-8" transform="translate(820.18 373.91)">le g<tspan class="cls-10" x="29.29" y="0">r</tspan><tspan x="36.05" y="0">and shack</tspan></text>
    <text class="cls-9" transform="translate(507.84 850.55)">le hôm</text>
    <text class="cls-6" transform="translate(387.98 706.27)">lac barbot<tspan class="cls-11" x="89.53" y="0">t</tspan><tspan x="96.46" y="0">e</tspan></text>
  </g>
  <g id="chalets_fenetres">
    <g>
      <polygon class="cls-12" points="868.82 477.22 869.02 476.68 875 472.12 881.09 467.75 892.03 460.57 897.39 463.93 914.49 476.68 914.43 477.34 868.82 477.22"/>
      <rect class="cls-13" x="868.69" y="477.1" width="45.77" height="24.42"/>
      <path class="cls-14" d="M864.32,480c2.95-2.54,5.2-4,8.16-6.24q9.42-7,19.73-13.67a98.46,98.46,0,0,1,9.25,6.36c6.65,4.89,12.16,8.62,18.61,13.76-.17.28-.27.43-.39.67-.08,0-3.74-2.79-5-3.77-2.53-2-7.4-5.74-11.36-8.48s-6.88-5.55-11.2-7.65c-2.25,1.35-8.12,4.95-10.6,6.64-3.56,2.44-6.76,4.81-10,7.39-2.31,1.84-4.78,3.91-6.84,5.67A3.69,3.69,0,0,1,864.32,480Z"/>
      <path class="cls-15" d="M871.93,474.58l0,2.1"/>
      <path class="cls-15" d="M874.07,472.91c.08,1.24.17,2.47.28,3.71"/>
      <path class="cls-15" d="M876.33,471.27c0,1.73,0,3.62.08,5.35"/>
      <path class="cls-15" d="M878.4,469.71a63.56,63.56,0,0,0,.27,6.76"/>
      <path class="cls-15" d="M881,468l.23,8.16"/>
      <path class="cls-15" d="M882.91,466.66c-.06,3.16,0,6.33.15,9.49"/>
      <path class="cls-15" d="M885.05,465.32q.21,5.49,0,11"/>
      <path class="cls-15" d="M887.38,463.7q0,6.26.07,12.51"/>
      <path class="cls-15" d="M889.23,462.65v13.44"/>
      <path class="cls-15" d="M891.5,461.17a73.59,73.59,0,0,0,0,7.86c0,2.34-.06,4.68-.25,7"/>
      <path class="cls-15" d="M893.21,461.55q.28,7.23.5,14.44"/>
      <path class="cls-15" d="M895.78,463q-.13,6.59.11,13.16"/>
      <path class="cls-15" d="M897.68,464.32l-.29,11.78"/>
      <path class="cls-15" d="M899.4,465.7l.71,10.59"/>
      <path class="cls-15" d="M902.44,468.19l-.11,6.15a8.2,8.2,0,0,0,.15,2.1"/>
      <path class="cls-15" d="M904.91,469.85l.2,6.43"/>
      <path class="cls-15" d="M907.37,471.62l.11,4.53"/>
      <path class="cls-15" d="M910,473.63l-.11,2.81"/>
      <path class="cls-15" d="M912.34,475.15l-.09,1.53"/>
      <path class="cls-15" d="M869.16,477.41c5.82-.34,12.13.2,18.48.07,1.77,0,3.63-.15,5.4-.24,2.87-.16,6.25,0,9.12-.06,4.14-.08,5.86-.12,10,.12.12,0,1.79,0,2.29,0"/>
      <path class="cls-15" d="M869,477a355.37,355.37,0,0,1,45.22-.33"/>
      <g>
        <path class="cls-15" d="M869.53,477c0,3.33-.11,7.45-.08,10.88,0,4.2-.38,9.05.08,13.55"/>
        <path class="cls-15" d="M914.84,476.93c-.09,2.32-.17,3.26-.19,5.55,0,.68,0,4.26,0,4.95.07,5.1-.06,9,0,14.08"/>
        <path class="cls-15" d="M870.57,477.31q0,12.07-.1,24.14"/>
        <path class="cls-15" d="M871.46,477.25c.39,4.7-.35,9.42-.05,14.13.21,3.33.17,6.08.09,10.17"/>
        <path class="cls-15" d="M872.6,477.24a16.63,16.63,0,0,1,0,2.64q-.33,10.85.24,21.69"/>
        <path class="cls-15" d="M873.72,477.19c-.3,2.79,0,7,.08,10.15.06,4.79-.08,9.32,0,14.11"/>
        <path class="cls-15" d="M874.67,477.05a44.1,44.1,0,0,0,0,5c.08,4.5.16,7.62.17,12.2,0,1.48-.14,3.21-.13,4.69,0,.61.11,2.1.13,2.71"/>
        <path class="cls-15" d="M875.9,501.51c0-3.33-.11-7.1-.08-10.54,0-4.2-.38-9.05.08-13.55"/>
        <path class="cls-15" d="M876.94,501.56q0-12.07-.1-24.14"/>
        <path class="cls-15" d="M877.83,501.62c.39-4.7-.35-9.42-.05-14.13.21-3.33.17-6.08.09-10.17"/>
        <path class="cls-15" d="M882.25,501.52c-.29-2.79,0-7,.08-10.15.06-4.79-.08-9.32-.05-14.11"/>
        <path class="cls-15" d="M883.2,501.66a44.1,44.1,0,0,1,0-5c.08-4.5.17-7.62.17-12.2,0-1.47-.14-3.2-.13-4.68,0-.61.12-1.8.13-2.41"/>
        <path class="cls-15" d="M884.43,477.42c0,3.33-.11,6.89-.08,10.32,0,4.2-.37,9.05.08,13.55"/>
        <path class="cls-15" d="M893.89,501.52c-.29-2.79,0-7,.08-10.15.06-4.79-.08-9.32-.05-14.11"/>
        <path class="cls-15" d="M894.83,501.54a42,42,0,0,1,0-4.89c.09-4.5.17-7.62.17-12.2,0-1.47-.14-3.2-.13-4.68,0-.61.12-2.11.13-2.72"/>
        <path class="cls-15" d="M896.08,477.2c0,3.33-.11,7.11-.09,10.54,0,4.2-.37,9.05.09,13.55"/>
        <path class="cls-15" d="M885.47,477.44c0,8-.05,15.81-.1,23.85"/>
        <path class="cls-15" d="M886.39,477.44c.39,4.7-.38,9.08-.08,13.78.21,3.33.17,6.08.09,10.17"/>
        <path class="cls-15" d="M912.25,477.25c.4,4.7-.36,9.27-.06,14,.21,3.33.17,6.08.09,10.17"/>
        <path class="cls-15" d="M879,501.63A15.53,15.53,0,0,0,879,499q-.35-10.85.24-21.69"/>
        <path class="cls-15" d="M880.08,501.68c-.29-2.79,0-7,.09-10.15.06-4.79-.09-9.32-.06-14.11"/>
        <path class="cls-15" d="M881,501.82a44.1,44.1,0,0,1,0-5c.08-4.5.16-7.62.16-12.2,0-1.48-.13-3.21-.12-4.68,0-.62.11-2.11.12-2.72"/>
        <path class="cls-15" d="M887.45,501.39c.38-4.63-.38-9.12-.07-13.9.22-3.33.18-6.08.09-10.17"/>
        <path class="cls-15" d="M913.48,501.62c.4-4.7-.35-9.42-.05-14.13.22-3.33.17-6.11.09-10.2"/>
        <path class="cls-15" d="M891.86,501.52c-.3-2.79,0-7,.08-10.15.06-4.79-.08-9.32-.05-14.11"/>
        <path class="cls-15" d="M892.79,501.5a41.39,41.39,0,0,1,0-4.85c.08-4.5.16-7.62.16-12.2,0-1.47-.13-3.2-.12-4.68,0-.61.11-2.11.12-2.72"/>
        <path class="cls-15" d="M888.59,501.48a15.93,15.93,0,0,0,0-2.49q-.35-10.85.24-21.69"/>
        <path class="cls-15" d="M889.67,501.48c-.29-2.79.06-6.79.1-10,.06-4.79-.08-9.32,0-14.11"/>
        <path class="cls-15" d="M898.13,501.52c-.3-2.79,0-7,.08-10.15.06-4.79-.08-9.32-.05-14.11"/>
        <path class="cls-15" d="M900.24,501.66a44.1,44.1,0,0,0,0-5c-.08-4.5-.16-7.62-.17-12.2,0-1.47.14-3.2.13-4.68,0-.61-.12-2.11-.13-2.72"/>
        <path class="cls-15" d="M899,477.2c0,3.33.11,7.11.08,10.54,0,4.2.38,9.05-.08,13.55"/>
        <path class="cls-15" d="M901.35,477.16q0,12.06-.1,24.13"/>
        <path class="cls-15" d="M908.62,501.66a46.51,46.51,0,0,0,0-5c-.09-4.5-.17-7.62-.17-12.2,0-1.47.13-3.2.12-4.68,0-.61-.11-2.11-.12-2.72"/>
        <path class="cls-15" d="M907.39,477.2c0,3.33.11,7.11.08,10.54,0,4.2.38,9.05-.08,13.55"/>
        <path class="cls-15" d="M906.35,477.16q0,12.06.1,24.13"/>
        <path class="cls-15" d="M902.24,477.09c.39,4.7-.35,9.43,0,14.13.21,3.33.17,6.08.09,10.17"/>
        <path class="cls-15" d="M896.88,501.37c-.07-1.57,0-3.05,0-4.56.09-4.5.17-7.62.17-12.2,0-1.48-.13-3.21-.12-4.68,0-.62.11-2.11.12-2.72"/>
        <path class="cls-15" d="M909.47,477.2c0,3.33-.11,7.11-.08,10.54,0,4.2-.38,9.05.08,13.55"/>
        <path class="cls-15" d="M911.52,501.52c-.29-2.79,0-7,.08-10.15.06-4.79-.08-9.37-.05-14.16"/>
        <path class="cls-15" d="M910.31,501.82a44.1,44.1,0,0,1,0-5c.08-4.5.16-7.62.16-12.2,0-1.48-.13-3.21-.12-4.68,0-.62.11-2.11.12-2.72"/>
        <path class="cls-15" d="M903.31,501.62c.4-4.7-.35-9.42,0-14.13.21-3.33.18-6.08.09-10.17"/>
        <path class="cls-15" d="M904.45,501.63a17.91,17.91,0,0,0,.06-2.64q-.35-10.85.24-21.69"/>
        <path class="cls-15" d="M905.57,501.68c-.29-2.79,0-7,.08-10.15.06-4.79-.08-9.32,0-14.11"/>
        <path class="cls-15" d="M890.62,501.54a39.38,39.38,0,0,1,0-4.73c.09-4.5.17-7.62.17-12.2,0-1.48-.13-3.21-.13-4.68,0-.62.12-2.11.13-2.72"/>
      </g>
      <path class="cls-16" d="M909.61,491.57c-1.49.14-3.12.18-4.32.23a42.82,42.82,0,0,1-5-.13c0-2.26,0-4.23-.06-6.49,2.67-.2,4.59-.32,7.24-.33h2.21c-.14,1.76,0,3.13,0,5A12.17,12.17,0,0,1,909.61,491.57Z"/>
      <path class="cls-16" d="M896,472.88c-1.49.13-3.12.17-4.32.22a40.7,40.7,0,0,1-5-.13c0-2.26,0-4.22-.07-6.48,2.68-.21,4.59-.32,7.24-.34h2.22c-.14,1.76,0,3.14,0,5A14.17,14.17,0,0,1,896,472.88Z"/>
      <path class="cls-16" d="M883.58,485.18a32.23,32.23,0,0,0-3.35-.05c-1.66,0-5-.17-6-.05,0,2.26-.1,4.41,0,6.64,2.42.06,4.84.08,7.49.1h1.95c-.14-1.76-.14-3.57-.14-5.45A10.5,10.5,0,0,1,883.58,485.18Z"/>
      <path class="cls-16" d="M887,501.75c0-.76,0-2,0-2.92,0-1.61-.1-3.07-.11-5.2s-.06-5.44,0-6.48h1.92c1.16,0,1.72,0,2.87-.09a21.38,21.38,0,0,1,3.66.26q.18,7.24,0,14.5"/>
    </g>
    <g>
      <polygon class="cls-12" points="388.78 490.64 389.13 489.68 399.66 481.67 410.36 473.98 429.6 461.36 439.02 467.27 469.09 489.68 468.99 490.85 388.78 490.64"/>
      <rect class="cls-13" x="388.57" y="490.43" width="80.48" height="42.93"/>
      <path class="cls-14" d="M380.87,495.45c5.19-4.47,9.16-7.1,14.35-11,11-8.24,22.58-16.22,34.69-24a174.43,174.43,0,0,1,16.27,11.19c11.68,8.6,21.38,15.15,32.72,24.19a12.78,12.78,0,0,0-.68,1.17c-.14,0-6.59-4.9-8.82-6.63-4.45-3.43-13-10.08-20-14.9s-12.11-9.76-19.7-13.45c-3.95,2.37-14.28,8.7-18.64,11.68-6.26,4.28-11.88,8.45-17.55,13-4.05,3.24-8.4,6.87-12,10A7.33,7.33,0,0,1,380.87,495.45Z"/>
      <path class="cls-15" d="M394.26,486l.08,3.69"/>
      <path class="cls-15" d="M398,483.05q.21,3.27.48,6.52"/>
      <path class="cls-15" d="M402,480.16c0,3-.06,6.37.14,9.41"/>
      <path class="cls-15" d="M405.64,477.43a109.72,109.72,0,0,0,.46,11.89"/>
      <path class="cls-15" d="M410.18,474.49l.42,14.35"/>
      <path class="cls-15" d="M413.57,472.06q-.18,8.35.26,16.69"/>
      <path class="cls-15" d="M417.32,469.72c.25,6.42.27,12.86.08,19.28"/>
      <path class="cls-15" d="M421.43,466.86q0,11,.12,22"/>
      <path class="cls-15" d="M424.67,465v23.62"/>
      <path class="cls-15" d="M428.67,462.41a125.08,125.08,0,0,0-.09,13.83c.05,4.11-.1,8.23-.45,12.33"/>
      <path class="cls-15" d="M431.67,463.09q.51,12.69.88,25.39"/>
      <path class="cls-15" d="M436.19,465.69q-.24,11.56.19,23.13"/>
      <path class="cls-15" d="M439.53,468,439,488.67"/>
      <path class="cls-15" d="M442.56,470.38,443.81,489"/>
      <path class="cls-15" d="M447.91,474.75l-.2,10.81a13.88,13.88,0,0,0,.27,3.7"/>
      <path class="cls-15" d="M452.24,477.68l.35,11.3"/>
      <path class="cls-15" d="M456.57,480.79l.19,8"/>
      <path class="cls-15" d="M461.12,484.31l-.18,4.94"/>
      <path class="cls-15" d="M465.31,487l-.17,2.69"/>
      <path class="cls-15" d="M389.38,491c10.23-.61,21.33.34,32.49.12,3.12-.06,6.4-.26,9.51-.43,5-.27,11,0,16-.09,7.27-.15,10.29-.22,17.55.21.2,0,3.14,0,4,.07"/>
      <path class="cls-15" d="M389.05,490.3a626,626,0,0,1,79.51-.59"/>
      <g>
        <path class="cls-15" d="M390,490.28c0,5.85-.19,13.09-.14,19.12.07,7.39-.66,15.92.14,23.83"/>
        <path class="cls-15" d="M469.71,490.12c-.16,4.08-.3,5.73-.34,9.75,0,1.2,0,7.51,0,8.71.13,9-.11,15.79,0,24.75"/>
        <path class="cls-15" d="M391.87,490.8q0,21.21-.17,42.43"/>
        <path class="cls-15" d="M393.43,490.68c.69,8.26-.62,16.57-.09,24.85.37,5.85.31,10.68.16,17.88"/>
        <path class="cls-15" d="M395.43,490.67a28.85,28.85,0,0,1,.1,4.65q-.6,19.05.42,38.12"/>
        <path class="cls-15" d="M397.4,490.58c-.52,4.9.07,12.29.14,17.85.11,8.42-.14,16.38-.09,24.8"/>
        <path class="cls-15" d="M399.08,490.34a76,76,0,0,0,0,8.8c.15,7.92.29,13.4.29,21.45,0,2.6-.23,5.64-.22,8.24,0,1.07.2,3.7.22,4.77"/>
        <path class="cls-15" d="M401.24,533.34c0-5.85-.19-12.49-.14-18.53.06-7.38-.67-15.91.14-23.82"/>
        <path class="cls-15" d="M403.07,533.42q-.06-21.21-.18-42.43"/>
        <path class="cls-15" d="M404.62,533.54c.7-8.27-.61-16.58-.08-24.85.37-5.85.3-10.69.15-17.88"/>
        <path class="cls-15" d="M412.4,533.36c-.52-4.9.08-12.29.15-17.85.1-8.42-.15-16.39-.09-24.8"/>
        <path class="cls-15" d="M414.08,533.6a78.31,78.31,0,0,1,0-8.8c.15-7.92.29-13.4.3-21.45,0-2.6-.24-5.64-.22-8.24,0-1.08.2-3.16.22-4.24"/>
        <path class="cls-15" d="M416.24,491c0,5.86-.19,12.11-.14,18.14.06,7.39-.67,15.92.14,23.83"/>
        <path class="cls-15" d="M432.87,533.36c-.52-4.9.07-12.29.14-17.85.11-8.42-.14-16.39-.09-24.8"/>
        <path class="cls-15" d="M434.52,533.39a74.72,74.72,0,0,1,0-8.59c.15-7.92.29-13.4.29-21.45,0-2.6-.23-5.64-.22-8.24,0-1.08.2-3.7.22-4.77"/>
        <path class="cls-15" d="M436.71,490.6c0,5.85-.19,12.49-.14,18.52.06,7.39-.67,15.92.14,23.83"/>
        <path class="cls-15" d="M418.07,491c0,14.15-.1,27.8-.18,41.94"/>
        <path class="cls-15" d="M419.67,491c.7,8.27-.66,16-.13,24.24.37,5.85.3,10.68.16,17.88"/>
        <path class="cls-15" d="M465.15,490.68c.7,8.27-.63,16.3-.11,24.57.38,5.85.31,10.68.16,17.88"/>
        <path class="cls-15" d="M406.62,533.55a27.77,27.77,0,0,0,.1-4.65q-.59-19,.43-38.12"/>
        <path class="cls-15" d="M408.59,533.64c-.51-4.9.08-12.29.15-17.85.11-8.42-.15-16.39-.09-24.81"/>
        <path class="cls-15" d="M410.27,533.88a80.94,80.94,0,0,1,0-8.81c.15-7.91.29-13.39.3-21.44,0-2.6-.24-5.64-.22-8.24,0-1.08.2-3.7.22-4.77"/>
        <path class="cls-15" d="M421.55,533.13c.66-8.14-.68-16-.12-24.44.38-5.85.3-10.69.15-17.88"/>
        <path class="cls-15" d="M467.32,533.54c.69-8.27-.62-16.58-.09-24.85.37-5.85.29-10.75.15-17.94"/>
        <path class="cls-15" d="M429.29,533.36c-.51-4.9.08-12.29.15-17.85.1-8.42-.15-16.39-.09-24.8"/>
        <path class="cls-15" d="M430.94,533.31a73.33,73.33,0,0,1,0-8.51c.15-7.92.29-13.4.3-21.45,0-2.6-.24-5.64-.22-8.24,0-1.08.2-3.7.22-4.77"/>
        <path class="cls-15" d="M423.55,533.28a25.62,25.62,0,0,0,.06-4.38q-.58-19,.43-38.12"/>
        <path class="cls-15" d="M425.45,533.28c-.52-4.9.11-11.93.18-17.49.11-8.42-.15-16.39-.09-24.81"/>
        <path class="cls-15" d="M440.32,533.36c-.52-4.9.08-12.29.15-17.85.1-8.42-.15-16.39-.1-24.8"/>
        <path class="cls-15" d="M444,533.6a80.75,80.75,0,0,0,0-8.8c-.15-7.92-.29-13.4-.3-21.45,0-2.6.24-5.64.22-8.24,0-1.08-.2-3.7-.22-4.77"/>
        <path class="cls-15" d="M441.86,490.6c0,5.85.2,12.49.15,18.52-.07,7.39.66,15.92-.15,23.83"/>
        <path class="cls-15" d="M446,490.52q-.06,21.21-.18,42.43"/>
        <path class="cls-15" d="M458.77,533.6a78.31,78.31,0,0,0,0-8.8c-.15-7.92-.29-13.4-.29-21.45,0-2.6.23-5.64.22-8.24,0-1.08-.2-3.7-.22-4.77"/>
        <path class="cls-15" d="M456.61,490.6c0,5.85.19,12.49.14,18.52-.06,7.39.67,15.92-.14,23.83"/>
        <path class="cls-15" d="M454.78,490.52q.06,21.21.18,42.43"/>
        <path class="cls-15" d="M447.55,490.4c.69,8.26-.62,16.58-.09,24.85.37,5.85.3,10.68.16,17.88"/>
        <path class="cls-15" d="M438.12,533.09c-.11-2.76,0-5.36.08-8,.15-7.91.29-13.39.3-21.44,0-2.6-.24-5.64-.22-8.24,0-1.08.2-3.7.22-4.77"/>
        <path class="cls-15" d="M460.26,490.6c0,5.85-.2,12.49-.14,18.52.06,7.39-.67,15.92.14,23.83"/>
        <path class="cls-15" d="M463.87,533.36c-.52-4.9.07-12.29.14-17.85.11-8.42-.14-16.47-.09-24.89"/>
        <path class="cls-15" d="M461.74,533.88a78.49,78.49,0,0,1,0-8.81c.15-7.91.29-13.39.29-21.44,0-2.6-.23-5.64-.22-8.24,0-1.08.2-3.7.22-4.77"/>
        <path class="cls-15" d="M449.43,533.54c.7-8.27-.61-16.58-.08-24.85.37-5.85.3-10.69.15-17.88"/>
        <path class="cls-15" d="M451.43,533.55a27.77,27.77,0,0,0,.1-4.65q-.58-19,.43-38.12"/>
        <path class="cls-15" d="M453.4,533.64c-.51-4.9.08-12.29.15-17.85.1-8.42-.15-16.39-.09-24.81"/>
        <path class="cls-15" d="M427.11,533.38a72.2,72.2,0,0,1,.06-8.31c.15-7.91.29-13.39.3-21.44,0-2.6-.24-5.64-.22-8.24,0-1.08.2-3.7.22-4.77"/>
      </g>
      <path class="cls-16" d="M460.51,515.87c-2.62.23-5.48.3-7.6.39a72.46,72.46,0,0,1-8.74-.23c0-4,0-7.42-.11-11.4,4.71-.36,8.07-.56,12.73-.59h3.89c-.25,3.1,0,5.51,0,8.81A23.32,23.32,0,0,1,460.51,515.87Z"/>
      <path class="cls-16" d="M436.56,483c-2.63.23-5.48.3-7.6.39a74.59,74.59,0,0,1-8.74-.23c0-4,0-7.43-.11-11.4,4.71-.36,8.07-.56,12.73-.59h3.89c-.25,3.09,0,5.51,0,8.81A23.42,23.42,0,0,1,436.56,483Z"/>
      <path class="cls-16" d="M414.74,504.63a57.06,57.06,0,0,0-5.88-.1c-2.92,0-8.73-.3-10.58-.07,0,4-.17,7.74,0,11.67,4.26.1,8.51.14,13.17.17h3.43c-.25-3.09-.25-6.28-.25-9.58A17.77,17.77,0,0,1,414.74,504.63Z"/>
      <path class="cls-16" d="M420.8,533.75c0-1.33.08-3.47.06-5.12,0-2.84-.18-5.41-.2-9.15s-.1-9.57,0-11.39h3.39c2,0,3,0,5-.17a39,39,0,0,1,6.42.46q.33,12.75-.08,25.5"/>
    </g>
    <g>
      <polygon class="cls-12" points="574.27 818.93 574.62 817.98 585.15 809.96 595.85 802.27 615.09 789.65 624.5 795.57 654.58 817.98 654.48 819.15 574.27 818.93"/>
      <rect class="cls-13" x="574.05" y="818.73" width="80.48" height="42.93"/>
      <path class="cls-14" d="M566.36,823.75c5.19-4.47,9.16-7.1,14.35-11q16.56-12.35,34.69-24a174.78,174.78,0,0,1,16.26,11.18c11.69,8.6,21.39,15.16,32.73,24.2a9.38,9.38,0,0,0-.68,1.17c-.15,0-6.59-4.9-8.82-6.63-4.45-3.44-13-10.08-20-14.9s-12.11-9.76-19.7-13.45c-4,2.37-14.29,8.7-18.64,11.68-6.27,4.28-11.88,8.45-17.55,13-4,3.24-8.41,6.87-12,10A6.85,6.85,0,0,1,566.36,823.75Z"/>
      <path class="cls-15" d="M579.74,814.28l.08,3.7"/>
      <path class="cls-15" d="M583.5,811.35q.22,3.27.49,6.52"/>
      <path class="cls-15" d="M587.49,808.46c0,3-.07,6.37.14,9.41"/>
      <path class="cls-15" d="M591.13,805.73a109.72,109.72,0,0,0,.46,11.89"/>
      <path class="cls-15" d="M595.67,802.79l.42,14.35"/>
      <path class="cls-15" d="M599.06,800.36q-.18,8.34.26,16.69"/>
      <path class="cls-15" d="M602.8,798q.38,9.65.08,19.29"/>
      <path class="cls-15" d="M606.91,795.16q0,11,.12,22"/>
      <path class="cls-15" d="M610.16,793.31l0,23.63"/>
      <path class="cls-15" d="M614.16,790.71a125.07,125.07,0,0,0-.09,13.83c0,4.11-.1,8.23-.45,12.33"/>
      <path class="cls-15" d="M617.15,791.38q.51,12.71.89,25.4"/>
      <path class="cls-15" d="M621.67,794c-.15,7.7-.09,15.42.19,23.12"/>
      <path class="cls-15" d="M625,796.25,624.5,817"/>
      <path class="cls-15" d="M628.05,798.68l1.25,18.61"/>
      <path class="cls-15" d="M633.39,803.05l-.19,10.81a14.3,14.3,0,0,0,.26,3.7"/>
      <path class="cls-15" d="M637.72,806l.36,11.3"/>
      <path class="cls-15" d="M642.05,809.08l.2,8"/>
      <path class="cls-15" d="M646.61,812.61l-.19,4.94"/>
      <path class="cls-15" d="M650.8,815.29l-.17,2.69"/>
      <path class="cls-15" d="M574.87,819.27c10.23-.61,21.33.34,32.49.12,3.11-.06,6.39-.26,9.5-.43,5-.27,11,0,16-.09,7.27-.15,10.29-.22,17.55.21.2,0,3.13,0,4,.07"/>
      <path class="cls-15" d="M574.54,818.59A627.66,627.66,0,0,1,654,818"/>
      <g>
        <path class="cls-15" d="M575.53,818.57c0,5.86-.19,13.1-.14,19.13.06,7.39-.67,15.92.14,23.83"/>
        <path class="cls-15" d="M655.19,818.42c-.15,4.07-.3,5.73-.33,9.75,0,1.2,0,7.51,0,8.71.12,9-.12,15.79,0,24.75"/>
        <path class="cls-15" d="M577.36,819.1q-.06,21.21-.18,42.43"/>
        <path class="cls-15" d="M578.92,819c.69,8.26-.62,16.57-.09,24.85.37,5.85.3,10.68.16,17.87"/>
        <path class="cls-15" d="M580.92,819a28.89,28.89,0,0,1,.09,4.65q-.59,19.07.43,38.13"/>
        <path class="cls-15" d="M582.88,818.88c-.51,4.9.08,12.29.15,17.85.11,8.41-.15,16.38-.09,24.8"/>
        <path class="cls-15" d="M584.56,818.64a78.34,78.34,0,0,0,0,8.8c.14,7.91.29,13.4.29,21.45,0,2.6-.24,5.64-.22,8.24,0,1.07.2,3.69.22,4.77"/>
        <path class="cls-15" d="M586.73,861.64c0-5.85-.2-12.49-.14-18.53.06-7.39-.67-15.91.14-23.82"/>
        <path class="cls-15" d="M588.55,861.72q0-21.22-.17-42.44"/>
        <path class="cls-15" d="M590.11,861.84c.69-8.27-.61-16.58-.09-24.85.38-5.86.31-10.69.16-17.88"/>
        <path class="cls-15" d="M597.89,861.66c-.52-4.9.07-12.29.14-17.85.11-8.42-.14-16.39-.09-24.81"/>
        <path class="cls-15" d="M599.56,861.9a78.52,78.52,0,0,1,0-8.81c.15-7.91.29-13.39.29-21.44,0-2.6-.23-5.64-.22-8.24,0-1.08.2-3.16.22-4.24"/>
        <path class="cls-15" d="M601.73,819.28c0,5.85-.19,12.11-.14,18.14.06,7.39-.67,15.92.14,23.83"/>
        <path class="cls-15" d="M618.35,861.66c-.51-4.9.08-12.29.15-17.85.11-8.42-.15-16.39-.09-24.81"/>
        <path class="cls-15" d="M620,861.69a74.9,74.9,0,0,1,0-8.6c.14-7.91.29-13.39.29-21.44,0-2.6-.24-5.64-.22-8.24,0-1.08.2-3.7.22-4.77"/>
        <path class="cls-15" d="M622.2,818.9c0,5.85-.2,12.49-.15,18.52.07,7.39-.66,15.92.15,23.83"/>
        <path class="cls-15" d="M603.56,819.31c0,14.15-.1,27.8-.18,41.94"/>
        <path class="cls-15" d="M605.16,819.31c.69,8.27-.66,16-.13,24.24.37,5.85.3,10.68.15,17.88"/>
        <path class="cls-15" d="M650.64,819c.69,8.26-.64,16.29-.11,24.57.37,5.85.31,10.68.16,17.88"/>
        <path class="cls-15" d="M592.11,861.85a28.87,28.87,0,0,0,.1-4.65q-.6-19.07.42-38.12"/>
        <path class="cls-15" d="M594.08,861.94c-.52-4.91.08-12.29.15-17.85.1-8.42-.15-16.39-.1-24.81"/>
        <path class="cls-15" d="M595.76,862.18a78.49,78.49,0,0,1,0-8.81c.15-7.91.29-13.39.3-21.44,0-2.6-.24-5.64-.23-8.24,0-1.08.21-3.7.23-4.78"/>
        <path class="cls-15" d="M607,861.43c.67-8.14-.67-16-.12-24.44.39-5.86.31-10.69.16-17.88"/>
        <path class="cls-15" d="M652.8,861.84c.7-8.27-.61-16.58-.08-24.85.37-5.86.29-10.75.14-17.94"/>
        <path class="cls-15" d="M614.78,861.66c-.52-4.9.07-12.29.14-17.85.11-8.42-.14-16.39-.09-24.81"/>
        <path class="cls-15" d="M616.43,861.61a73.51,73.51,0,0,1,0-8.52c.15-7.91.29-13.39.29-21.44,0-2.6-.23-5.64-.22-8.24,0-1.08.2-3.7.22-4.77"/>
        <path class="cls-15" d="M609,861.58a24.64,24.64,0,0,0,.07-4.38q-.6-19.07.42-38.12"/>
        <path class="cls-15" d="M610.93,861.58c-.51-4.91.12-11.93.19-17.49.1-8.42-.15-16.39-.09-24.81"/>
        <path class="cls-15" d="M625.81,861.66c-.52-4.9.07-12.29.14-17.85.11-8.42-.14-16.39-.09-24.81"/>
        <path class="cls-15" d="M629.52,861.9a78.52,78.52,0,0,0,0-8.81c-.14-7.91-.29-13.39-.29-21.44,0-2.6.23-5.64.22-8.24,0-1.08-.2-3.7-.22-4.77"/>
        <path class="cls-15" d="M627.35,818.9c0,5.85.19,12.49.14,18.52-.06,7.39.67,15.92-.14,23.83"/>
        <path class="cls-15" d="M631.48,818.82q-.06,21.21-.18,42.43"/>
        <path class="cls-15" d="M644.26,861.9a78.49,78.49,0,0,0,0-8.81c-.15-7.91-.29-13.39-.3-21.44,0-2.6.24-5.64.22-8.24,0-1.08-.2-3.7-.22-4.77"/>
        <path class="cls-15" d="M642.09,818.9c0,5.85.2,12.49.15,18.52-.07,7.39.66,15.92-.15,23.83"/>
        <path class="cls-15" d="M640.27,818.82q0,21.21.17,42.43"/>
        <path class="cls-15" d="M633,818.7c.7,8.26-.61,16.57-.09,24.85.38,5.85.31,10.68.16,17.88"/>
        <path class="cls-15" d="M623.61,861.39c-.12-2.77,0-5.36.08-8,.15-7.91.29-13.39.29-21.44,0-2.6-.23-5.64-.22-8.24,0-1.08.2-3.7.22-4.78"/>
        <path class="cls-15" d="M645.74,818.9c0,5.85-.19,12.49-.14,18.52.07,7.39-.66,15.92.14,23.83"/>
        <path class="cls-15" d="M649.35,861.66c-.51-4.9.08-12.29.15-17.85.11-8.42-.15-16.47-.09-24.89"/>
        <path class="cls-15" d="M647.22,862.18a78.52,78.52,0,0,1,0-8.81c.14-7.91.29-13.39.29-21.44,0-2.6-.24-5.64-.22-8.24,0-1.08.2-3.7.22-4.78"/>
        <path class="cls-15" d="M634.92,861.84c.69-8.27-.62-16.58-.09-24.85.38-5.86.31-10.69.16-17.88"/>
        <path class="cls-15" d="M636.92,861.85a28.87,28.87,0,0,0,.1-4.65q-.6-19.07.42-38.12"/>
        <path class="cls-15" d="M638.89,861.94c-.52-4.91.08-12.29.15-17.85.1-8.42-.15-16.39-.1-24.81"/>
        <path class="cls-15" d="M612.6,861.68a70,70,0,0,1,.06-8.31c.15-7.91.29-13.39.3-21.44,0-2.6-.24-5.64-.22-8.24,0-1.08.2-3.7.22-4.78"/>
      </g>
      <path class="cls-16" d="M646,844.17c-2.63.23-5.48.3-7.6.39a74.52,74.52,0,0,1-8.74-.23c0-4,0-7.43-.11-11.4,4.7-.36,8.07-.56,12.73-.59h3.89c-.25,3.09,0,5.51,0,8.81A23.42,23.42,0,0,1,646,844.17Z"/>
      <path class="cls-16" d="M622.05,811.29c-2.63.24-5.49.31-7.61.4a74.35,74.35,0,0,1-8.73-.23c0-4,0-7.43-.11-11.4,4.7-.36,8.07-.56,12.72-.59h3.9c-.25,3.09,0,5.51,0,8.81A25.19,25.19,0,0,1,622.05,811.29Z"/>
      <path class="cls-16" d="M600.22,832.93a57,57,0,0,0-5.88-.1c-2.92,0-8.73-.3-10.57-.07,0,4-.17,7.73,0,11.67,4.26.1,8.51.14,13.17.17h3.42c-.24-3.1-.24-6.28-.25-9.58A20.23,20.23,0,0,1,600.22,832.93Z"/>
      <path class="cls-16" d="M606.29,862.05c0-1.33.07-3.47.06-5.13,0-2.83-.18-5.4-.21-9.14s-.1-9.57,0-11.39h3.4c2,0,3,0,5-.17a39.12,39.12,0,0,1,6.43.46q.33,12.75-.09,25.5"/>
    </g>
    <g>
      <polygon class="cls-12" points="753.76 392.67 754.11 391.71 764.64 383.7 775.34 376.01 794.58 363.39 804 369.3 834.07 391.71 833.97 392.88 753.76 392.67"/>
      <rect class="cls-13" x="753.54" y="392.46" width="80.48" height="42.93"/>
      <path class="cls-14" d="M745.85,397.49c5.19-4.48,9.16-7.11,14.35-11,11-8.24,22.58-16.22,34.69-24a174.43,174.43,0,0,1,16.27,11.19c11.68,8.6,21.38,15.15,32.72,24.19a10.82,10.82,0,0,0-.68,1.17c-.15,0-6.59-4.9-8.82-6.62-4.45-3.44-13-10.09-20-14.91s-12.11-9.76-19.7-13.45c-4,2.37-14.29,8.7-18.64,11.68-6.26,4.28-11.88,8.45-17.55,13-4,3.24-8.41,6.87-12,10A7.24,7.24,0,0,1,745.85,397.49Z"/>
      <path class="cls-15" d="M759.24,388l.07,3.69"/>
      <path class="cls-15" d="M763,385.09q.22,3.26.49,6.51"/>
      <path class="cls-15" d="M767,382.2c0,3-.07,6.36.14,9.4"/>
      <path class="cls-15" d="M770.62,379.46a109.72,109.72,0,0,0,.46,11.89"/>
      <path class="cls-15" d="M775.16,376.52l.42,14.35"/>
      <path class="cls-15" d="M778.55,374.09q-.18,8.36.26,16.69"/>
      <path class="cls-15" d="M782.3,371.75c.25,6.42.27,12.86.07,19.28"/>
      <path class="cls-15" d="M786.4,368.89q0,11,.12,22"/>
      <path class="cls-15" d="M789.65,367.05v23.63"/>
      <path class="cls-15" d="M793.65,364.44a125.08,125.08,0,0,0-.09,13.83c.05,4.11-.1,8.23-.45,12.33"/>
      <path class="cls-15" d="M796.65,365.12q.51,12.69.88,25.39"/>
      <path class="cls-15" d="M801.16,367.72q-.23,11.56.19,23.13"/>
      <path class="cls-15" d="M804.51,370,804,390.7"/>
      <path class="cls-15" d="M807.54,372.41,808.79,391"/>
      <path class="cls-15" d="M812.88,376.78l-.19,10.81a14.3,14.3,0,0,0,.26,3.7"/>
      <path class="cls-15" d="M817.22,379.71l.35,11.3"/>
      <path class="cls-15" d="M821.55,382.82l.19,8"/>
      <path class="cls-15" d="M826.1,386.34l-.18,5"/>
      <path class="cls-15" d="M830.29,389l-.17,2.69"/>
      <path class="cls-15" d="M754.36,393c10.23-.6,21.33.34,32.49.12,3.11-.06,6.39-.26,9.51-.43,5-.27,11,0,16-.09,7.27-.15,10.29-.21,17.55.21.2,0,3.13,0,4,.07"/>
      <path class="cls-15" d="M754,392.33a626,626,0,0,1,79.51-.59"/>
      <g>
        <path class="cls-15" d="M755,392.31c0,5.85-.19,13.09-.14,19.12.06,7.39-.66,15.92.14,23.83"/>
        <path class="cls-15" d="M834.68,392.15c-.15,4.08-.3,5.73-.33,9.75,0,1.2,0,7.51,0,8.71.13,9-.12,15.79,0,24.75"/>
        <path class="cls-15" d="M756.85,392.83q-.06,21.21-.18,42.43"/>
        <path class="cls-15" d="M758.41,392.71c.69,8.26-.62,16.57-.09,24.85.37,5.85.3,10.68.16,17.88"/>
        <path class="cls-15" d="M760.41,392.7a30,30,0,0,1,.1,4.65q-.6,19,.42,38.12"/>
        <path class="cls-15" d="M762.38,392.61c-.52,4.9.07,12.29.14,17.85.11,8.42-.14,16.38-.09,24.8"/>
        <path class="cls-15" d="M764.05,392.37a78.34,78.34,0,0,0,0,8.8c.14,7.92.29,13.4.29,21.45,0,2.6-.24,5.64-.22,8.24,0,1.08.2,3.7.22,4.77"/>
        <path class="cls-15" d="M766.22,435.37c0-5.85-.2-12.49-.14-18.52.06-7.39-.67-15.92.14-23.83"/>
        <path class="cls-15" d="M768.05,435.45q-.06-21.21-.18-42.43"/>
        <path class="cls-15" d="M769.6,435.57c.7-8.27-.61-16.58-.09-24.85.38-5.85.31-10.69.16-17.88"/>
        <path class="cls-15" d="M777.38,435.39c-.52-4.9.08-12.29.15-17.85.1-8.42-.15-16.38-.1-24.8"/>
        <path class="cls-15" d="M779.06,435.63a78.31,78.31,0,0,1,0-8.8c.15-7.92.29-13.4.29-21.45,0-2.6-.23-5.64-.22-8.24,0-1.08.2-3.16.22-4.24"/>
        <path class="cls-15" d="M781.22,393c0,5.85-.19,12.1-.14,18.13.06,7.39-.67,15.92.14,23.83"/>
        <path class="cls-15" d="M797.85,435.39c-.52-4.9.07-12.29.14-17.85.11-8.42-.14-16.38-.09-24.8"/>
        <path class="cls-15" d="M799.5,435.42a74.72,74.72,0,0,1,0-8.59c.14-7.92.29-13.4.29-21.45,0-2.6-.24-5.64-.22-8.24,0-1.08.2-3.7.22-4.77"/>
        <path class="cls-15" d="M801.69,392.63c0,5.85-.2,12.49-.14,18.52.06,7.39-.67,15.92.14,23.83"/>
        <path class="cls-15" d="M783.05,393c0,14.15-.1,27.8-.18,41.94"/>
        <path class="cls-15" d="M784.65,393c.7,8.27-.66,16-.13,24.24.37,5.85.3,10.69.16,17.88"/>
        <path class="cls-15" d="M830.13,392.71c.7,8.27-.64,16.3-.11,24.57.38,5.85.31,10.69.16,17.88"/>
        <path class="cls-15" d="M771.6,435.58a27.77,27.77,0,0,0,.1-4.65q-.6-19.05.42-38.12"/>
        <path class="cls-15" d="M773.57,435.67c-.51-4.9.08-12.29.15-17.85.1-8.42-.15-16.39-.09-24.8"/>
        <path class="cls-15" d="M775.25,435.91a78.49,78.49,0,0,1,0-8.81c.15-7.91.29-13.39.3-21.44,0-2.6-.24-5.64-.22-8.24,0-1.08.2-3.7.22-4.77"/>
        <path class="cls-15" d="M786.52,435.16c.67-8.14-.67-16-.12-24.44.39-5.85.31-10.69.16-17.88"/>
        <path class="cls-15" d="M832.3,435.57c.69-8.27-.62-16.58-.09-24.85.37-5.85.29-10.75.15-17.94"/>
        <path class="cls-15" d="M794.27,435.39c-.52-4.9.08-12.29.15-17.85.1-8.42-.15-16.38-.1-24.8"/>
        <path class="cls-15" d="M795.92,435.35a73.5,73.5,0,0,1,0-8.52c.15-7.92.29-13.4.29-21.45,0-2.6-.23-5.64-.22-8.24,0-1.08.2-3.7.22-4.77"/>
        <path class="cls-15" d="M788.53,435.31a25.62,25.62,0,0,0,.06-4.38q-.6-19.05.42-38.12"/>
        <path class="cls-15" d="M790.43,435.31c-.52-4.9.11-11.93.18-17.49.1-8.42-.15-16.39-.09-24.8"/>
        <path class="cls-15" d="M805.3,435.39c-.52-4.9.07-12.29.14-17.85.11-8.42-.14-16.38-.09-24.8"/>
        <path class="cls-15" d="M809,435.63a78.34,78.34,0,0,0,0-8.8c-.14-7.92-.29-13.4-.29-21.45,0-2.6.24-5.64.22-8.24,0-1.08-.2-3.7-.22-4.77"/>
        <path class="cls-15" d="M806.84,392.63c0,5.85.2,12.49.14,18.52-.06,7.39.67,15.92-.14,23.83"/>
        <path class="cls-15" d="M811,392.55q-.06,21.21-.18,42.43"/>
        <path class="cls-15" d="M823.75,435.63a78.31,78.31,0,0,0,0-8.8c-.15-7.92-.29-13.4-.3-21.45,0-2.6.24-5.64.22-8.24,0-1.08-.2-3.7-.22-4.77"/>
        <path class="cls-15" d="M821.59,392.63c0,5.85.19,12.49.14,18.52-.07,7.39.66,15.92-.14,23.83"/>
        <path class="cls-15" d="M819.76,392.55q.06,21.21.17,42.43"/>
        <path class="cls-15" d="M812.52,392.43c.7,8.27-.61,16.58-.08,24.85.37,5.85.3,10.69.15,17.88"/>
        <path class="cls-15" d="M803.1,435.12c-.11-2.76,0-5.36.08-8,.15-7.91.29-13.39.3-21.44,0-2.6-.24-5.64-.22-8.24,0-1.08.2-3.7.22-4.77"/>
        <path class="cls-15" d="M825.24,392.63c0,5.85-.2,12.49-.15,18.52.07,7.39-.66,15.92.15,23.83"/>
        <path class="cls-15" d="M828.84,435.39c-.51-4.9.08-12.29.15-17.85.11-8.42-.15-16.47-.09-24.89"/>
        <path class="cls-15" d="M826.71,435.91a78.52,78.52,0,0,1,0-8.81c.15-7.91.29-13.39.29-21.44,0-2.6-.23-5.64-.22-8.24,0-1.08.2-3.7.22-4.77"/>
        <path class="cls-15" d="M814.41,435.57c.69-8.27-.61-16.58-.09-24.85.38-5.85.31-10.69.16-17.88"/>
        <path class="cls-15" d="M816.41,435.58a28.87,28.87,0,0,0,.1-4.65q-.6-19.05.42-38.12"/>
        <path class="cls-15" d="M818.38,435.67c-.51-4.9.08-12.29.15-17.85.1-8.42-.15-16.39-.09-24.8"/>
        <path class="cls-15" d="M792.09,435.41a70,70,0,0,1,.06-8.31c.15-7.91.29-13.39.3-21.44,0-2.6-.24-5.64-.22-8.24,0-1.08.2-3.7.22-4.77"/>
      </g>
      <path class="cls-16" d="M825.49,417.9c-2.63.23-5.48.3-7.6.39a72.46,72.46,0,0,1-8.74-.23c0-4,0-7.42-.11-11.4,4.71-.36,8.07-.56,12.73-.59h3.89c-.25,3.1,0,5.51,0,8.81A23.32,23.32,0,0,1,825.49,417.9Z"/>
      <path class="cls-16" d="M801.54,385c-2.63.23-5.48.3-7.6.39a72.34,72.34,0,0,1-8.74-.23c0-4,0-7.42-.11-11.4,4.7-.36,8.07-.56,12.73-.59h3.89c-.25,3.1,0,5.51,0,8.81A23.32,23.32,0,0,1,801.54,385Z"/>
      <path class="cls-16" d="M779.71,406.66a57,57,0,0,0-5.88-.1c-2.91,0-8.73-.3-10.57-.07,0,4-.17,7.74,0,11.67,4.26.1,8.51.14,13.17.17h3.43c-.25-3.09-.25-6.28-.25-9.58A20.14,20.14,0,0,1,779.71,406.66Z"/>
      <path class="cls-16" d="M785.78,435.78c0-1.33.07-3.46.06-5.12,0-2.84-.18-5.41-.2-9.15s-.11-9.56,0-11.39H789c2,0,3,0,5-.16a38.13,38.13,0,0,1,6.42.45q.33,12.75-.08,25.5"/>
    </g>
  </g>
  <g id="chalet_avancee">
    <g>
      <polygon class="cls-12" points="577.03 250.72 577.66 249.04 596.14 234.97 614.93 221.47 648.72 199.31 665.25 209.69 718.06 249.04 717.88 251.1 577.03 250.72"/>
      <rect class="cls-13" x="576.66" y="250.43" width="141.31" height="84.81"/>
      <path class="cls-14" d="M563.15,259.19c9.11-7.86,16.08-12.47,25.2-19.28,19.38-14.47,39.64-28.48,60.9-42.21,11.43,6.78,17.87,11.77,28.57,19.64,20.52,15.1,37.55,26.62,57.46,42.49a20.35,20.35,0,0,0-1.2,2.06c-.25,0-11.56-8.62-15.47-11.64-7.82-6-22.87-17.71-35.06-26.17S662.29,206.94,649,200.46c-6.94,4.16-25.09,15.28-32.73,20.51-11,7.51-20.86,14.84-30.81,22.8-7.12,5.68-14.76,12.06-21.11,17.51A11.77,11.77,0,0,1,563.15,259.19Z"/>
      <path class="cls-15" d="M586.65,242.56l.14,6.48"/>
      <path class="cls-15" d="M593.25,237.41q.39,5.73.86,11.44"/>
      <path class="cls-15" d="M600.25,232.34c0,5.34-.11,11.18.25,16.51"/>
      <path class="cls-15" d="M606.64,227.54a193.76,193.76,0,0,0,.81,20.87"/>
      <path class="cls-15" d="M614.62,222.38l.73,25.19"/>
      <path class="cls-15" d="M620.57,218.11q-.32,14.65.45,29.31"/>
      <path class="cls-15" d="M627.15,214q.65,16.92.13,33.87"/>
      <path class="cls-15" d="M634.36,209q-.08,19.31.21,38.61"/>
      <path class="cls-15" d="M640.06,205.74l0,41.49"/>
      <path class="cls-15" d="M647.08,201.17c-.79,8.05-.26,16.17-.16,24.27q.14,10.84-.79,21.65"/>
      <path class="cls-15" d="M652.34,202.35q.9,22.29,1.56,44.58"/>
      <path class="cls-15" d="M660.28,206.92q-.42,20.29.33,40.61"/>
      <path class="cls-15" d="M666.15,210.89l-.9,36.38"/>
      <path class="cls-15" d="M671.47,215.16l2.2,32.68"/>
      <path class="cls-15" d="M680.86,222.83l-.35,19a24.9,24.9,0,0,0,.47,6.51"/>
      <path class="cls-15" d="M688.46,228l.62,19.84"/>
      <path class="cls-15" d="M696.06,233.43l.35,14"/>
      <path class="cls-15" d="M704.07,239.62l-.33,8.68"/>
      <path class="cls-15" d="M711.41,244.32l-.29,4.72"/>
      <path class="cls-15" d="M578.1,251.32c18-1.07,37.45.59,57,.21,5.47-.11,11.23-.47,16.69-.76,8.85-.48,19.29,0,28.15-.16,12.77-.27,18.08-.38,30.83.37.35,0,5.5,0,7.07.12"/>
      <path class="cls-15" d="M577.51,250.13a1098.59,1098.59,0,0,1,139.61-1"/>
      <g>
        <path class="cls-15" d="M579.26,250.13c0,11.56-.34,25.86-.25,37.78.11,14.59-1.17,31.44.25,47.07"/>
        <path class="cls-15" d="M719.13,249.81c-.26,8.06-.52,11.33-.58,19.27,0,2.38,0,14.83,0,17.2.22,17.71-.2,31.19,0,48.9"/>
        <path class="cls-15" d="M582.47,251.16q-.11,41.91-.31,83.82"/>
        <path class="cls-15" d="M585.2,250.92c1.21,16.33-1.08,32.74-.16,49.09.66,11.56.54,21.1.28,35.31"/>
        <path class="cls-15" d="M588.71,250.9a62.49,62.49,0,0,1,.17,9.18q-1,37.65.75,75.3"/>
        <path class="cls-15" d="M592.17,250.72c-.91,9.69.13,24.28.25,35.26.19,16.63-.25,32.37-.16,49"/>
        <path class="cls-15" d="M595.11,250.25c-.49,5-.06,12.15,0,17.39.26,15.63.51,26.46.51,42.37,0,5.13-.41,11.14-.38,16.27,0,2.13.35,7.3.38,9.43"/>
        <path class="cls-15" d="M598.91,335.19c0-11.56-.34-24.67-.24-36.59.11-14.6-1.17-31.44.24-47.07"/>
        <path class="cls-15" d="M602.12,335.35q-.09-41.91-.31-83.82"/>
        <path class="cls-15" d="M604.86,335.58c1.21-16.32-1.09-32.74-.16-49.08.66-11.56.54-21.11.28-35.31"/>
        <path class="cls-15" d="M618.51,335.23c-.9-9.68.14-24.28.26-35.26.18-16.62-.26-32.36-.16-49"/>
        <path class="cls-15" d="M621.46,335.71c-.5-5-.07-12.15,0-17.4.26-15.62.51-26.46.52-42.36,0-5.13-.42-11.14-.39-16.27,0-2.13.35-6.25.39-8.38"/>
        <path class="cls-15" d="M625.26,251.53c0,11.56-.34,23.91-.25,35.83.11,14.59-1.17,31.44.25,47.07"/>
        <path class="cls-15" d="M654.45,335.23c-.91-9.68.13-24.28.26-35.26.18-16.62-.26-32.36-.16-49"/>
        <path class="cls-15" d="M657.36,335.29c-.5-5,0-11.73.06-17,.26-15.62.51-26.46.52-42.36,0-5.13-.42-11.14-.39-16.27,0-2.13.35-7.31.39-9.43"/>
        <path class="cls-15" d="M661.2,250.77c0,11.55-.34,24.67-.25,36.59.11,14.59-1.17,31.44.25,47.07"/>
        <path class="cls-15" d="M628.46,251.58c-.06,27.94-.16,54.91-.3,82.85"/>
        <path class="cls-15" d="M631.28,251.58c1.22,16.33-1.16,31.53-.23,47.88.65,11.56.53,21.1.27,35.31"/>
        <path class="cls-15" d="M711.14,250.93c1.22,16.32-1.12,32.18-.19,48.53.65,11.56.53,21.1.28,35.31"/>
        <path class="cls-15" d="M608.37,335.61a63.9,63.9,0,0,0,.17-9.18q-1-37.65.75-75.31"/>
        <path class="cls-15" d="M611.82,335.78c-.9-9.68.14-24.28.26-35.26.19-16.62-.25-32.36-.16-49"/>
        <path class="cls-15" d="M614.77,336.26c-.49-5-.06-12.15,0-17.4.25-15.62.5-26.46.51-42.36,0-5.13-.41-11.14-.39-16.27,0-2.13.36-7.31.39-9.43"/>
        <path class="cls-15" d="M634.57,334.77c1.17-16.07-1.18-31.67-.21-48.27.68-11.56.54-21.11.28-35.31"/>
        <path class="cls-15" d="M714.94,335.58c1.22-16.32-1.08-32.74-.15-49.08.65-11.56.52-21.23.26-35.44"/>
        <path class="cls-15" d="M648.17,335.23c-.91-9.68.13-24.28.26-35.26.18-16.62-.26-32.36-.16-49"/>
        <path class="cls-15" d="M651.06,335.14c-.49-5,0-11.58.08-16.83.26-15.62.51-26.46.52-42.36,0-5.13-.42-11.14-.39-16.27,0-2.13.35-7.31.39-9.43"/>
        <path class="cls-15" d="M638.09,335.07a57.93,57.93,0,0,0,.11-8.64q-1.05-37.65.74-75.31"/>
        <path class="cls-15" d="M641.42,335.07c-.9-9.69.2-23.57.32-34.55.19-16.62-.26-32.36-.16-49"/>
        <path class="cls-15" d="M667.53,335.23c-.9-9.68.14-24.28.26-35.26.19-16.62-.26-32.36-.16-49"/>
        <path class="cls-15" d="M674.05,335.71c.49-5,.06-12.15,0-17.4-.25-15.62-.5-26.46-.51-42.36,0-5.13.41-11.14.39-16.27,0-2.13-.36-7.31-.39-9.43"/>
        <path class="cls-15" d="M670.25,250.77c0,11.55.34,24.67.25,36.59-.12,14.59,1.17,31.44-.25,47.07"/>
        <path class="cls-15" d="M677.49,250.61q-.09,41.91-.31,83.82"/>
        <path class="cls-15" d="M699.94,335.71c.49-5,.06-12.15,0-17.4-.25-15.62-.51-26.46-.51-42.36,0-5.13.41-11.14.38-16.27,0-2.13-.35-7.31-.38-9.43"/>
        <path class="cls-15" d="M696.14,250.77c0,11.55.34,24.67.25,36.59-.12,14.59,1.16,31.44-.25,47.07"/>
        <path class="cls-15" d="M692.93,250.61q.09,41.91.31,83.82"/>
        <path class="cls-15" d="M680.22,250.37c1.22,16.33-1.08,32.74-.15,49.09.65,11.56.53,21.1.28,35.31"/>
        <path class="cls-15" d="M663.67,334.69c-.19-5.45.06-10.58.15-15.83.26-15.62.51-26.46.52-42.36,0-5.13-.42-11.14-.39-16.27,0-2.13.35-7.31.39-9.43"/>
        <path class="cls-15" d="M702.54,250.77c0,11.55-.34,24.67-.25,36.59.12,14.59-1.16,31.44.25,47.07"/>
        <path class="cls-15" d="M708.88,335.23c-.9-9.68.14-24.28.26-35.26.18-16.62-.26-32.53-.16-49.16"/>
        <path class="cls-15" d="M705.14,336.26c-.49-5-.06-12.15,0-17.4.25-15.62.51-26.46.51-42.36,0-5.13-.41-11.14-.38-16.27,0-2.13.35-7.31.38-9.43"/>
        <path class="cls-15" d="M683.54,335.58c1.21-16.32-1.08-32.74-.16-49.08.66-11.56.54-21.11.28-35.31"/>
        <path class="cls-15" d="M687.05,335.61a62.49,62.49,0,0,0,.17-9.18q-1-37.65.75-75.31"/>
        <path class="cls-15" d="M690.51,335.78c-.91-9.68.13-24.28.25-35.26.19-16.62-.25-32.36-.16-49"/>
        <path class="cls-15" d="M644.35,335.28c-.5-5,0-11.17.1-16.42.26-15.62.51-26.46.52-42.36,0-5.13-.41-11.14-.39-16.27,0-2.13.36-7.31.39-9.43"/>
      </g>
      <path class="cls-16" d="M703,295c-4.61.41-9.63.54-13.35.69a129.11,129.11,0,0,1-15.34-.4c0-7-.07-13-.19-20,8.26-.64,14.17-1,22.35-1h6.83c-.43,5.43,0,9.67,0,15.46A42.48,42.48,0,0,1,703,295Z"/>
      <path class="cls-16" d="M660.93,237.31c-4.61.41-9.62.54-13.35.69a128.87,128.87,0,0,1-15.33-.4c0-7-.08-13-.2-20,8.26-.63,14.17-1,22.35-1,1.07,0,4.93,0,6.83,0-.43,5.43,0,9.67,0,15.46A40.65,40.65,0,0,1,660.93,237.31Z"/>
      <path class="cls-16" d="M622.61,275.3a96.87,96.87,0,0,0-10.32-.17c-5.13-.05-15.33-.53-18.57-.14,0,7-.3,13.59,0,20.5,7.48.17,14.94.25,23.12.29h6c-.43-5.43-.43-11-.44-16.82A35.68,35.68,0,0,1,622.61,275.3Z"/>
      <path class="cls-16" d="M637.81,312.51c0-1.95.11-5.08.09-7.51,0-4.16-.26-7.92-.29-13.4s-.14-14,0-16.69h4.76c2.85,0,4.22,0,7.07-.24,3.59-.27,7.66.59,9,.67q.45,18.68-.12,37.36"/>
      <g>
        <path class="cls-17" d="M630.75,315.67a21.62,21.62,0,0,1,.09-2.9,161.86,161.86,0,0,1,19.44-.33c5,.19,10.23.35,15.22.23.08.89.06,2.5,0,3.38"/>
        <path class="cls-17" d="M628.22,319.3c-.08-.91-.19-2.93-.19-3.84,3.1.06,6.28-.09,9.76,0,2,0,3.55.22,5.51.28,1.66,0,4.36.25,6,.18,1.94-.07,4.56.05,6.51,0,2.36,0,8.15-.51,11.23-.1,0,.67-.12,2.75-.08,3.43"/>
        <path class="cls-18" d="M622.08,333.66c.48-18.22.23-56.1.26-71.09h2.39a10.89,10.89,0,0,1,2.14.09c-.11,15-.17,54.94.38,71-1.56,0-2.53,0-3.88.09A12.37,12.37,0,0,1,622.08,333.66Z"/>
        <path class="cls-18" d="M667.8,335.64c.13.45-.08-29.82,0-31.9.07-14.94.43-25.19.49-40.13.87-.42,3.18-.16,4.13-.35-.06,7,.34,15.27.33,22.27,0,9.44-.41,40.55-.34,50C670.9,335.65,669.29,335.63,667.8,335.64Z"/>
        <path class="cls-17" d="M627,322.58a11.28,11.28,0,0,1-.07-2c0-.52,0-1.28.06-1.8a114.34,114.34,0,0,1,12.42,0c1.67.09,8.54.41,10.21.45,2.77.08,5.55,0,8.32-.12l10.06-.36a15.4,15.4,0,0,1,.06,3.8"/>
        <path class="cls-17" d="M625.94,326.18c0-.64,0-1.68,0-2.29a5.7,5.7,0,0,1,.19-1.68c3.09-.11,5.82,0,8.38-.09,3.38-.11,7-.15,10.39-.09,5.18.09,8.43-.13,13.51,0,3.66.07,7.19.16,10.88.21a32.84,32.84,0,0,1,.1,4"/>
        <path class="cls-17" d="M670.56,329.3c0-.7.05-2.77,0-3.48-7.23-.15-11.24-.1-18,0-1.76,0-8.49-.19-10.25-.12-7.84.32-10.56,0-17.78,0a17.3,17.3,0,0,0,0,3.88"/>
        <path class="cls-17" d="M623.23,332.32c0-.57,0-2.82.07-3.34,6.79-.32,13.09,0,19.87-.07,1.76,0,7.18-.3,8.94-.24,7.43.28,12-.23,19.85.15,0,.78.12,2.25.13,3"/>
        <path class="cls-17" d="M622.14,335.61a32,32,0,0,1,0-3.67c4.92,0,7.92.13,12.84.13,2.86,0,7.64-.27,10.51-.16,8.37.34,18-.35,27.48,0A7.61,7.61,0,0,1,673,334c0,.37,0,.81,0,1.41"/>
        <g>
          <path class="cls-19" d="M668.22,261.74c-.15-.32-6.56-7.43-7.32-8.11-3.09-2.75-6.42-5.34-11.86-9.47,0-.22.3-.42.23-.64a6.27,6.27,0,0,1,.33-4.59c1.67.45,4.73,3,6.26,3.76,4.82,2.46,8.45,6.71,11.74,11,1,1.24,1.89,2.49,2.83,3.75.17.22,3.17,1.88,3.34,2.11-.61,1.16-4.21.84-5.09,1.81"/>
          <path class="cls-18" d="M625.87,264.23c2.53,0,12.21.61,14.06.56,4.55-.12,9.08.09,13.61-.24,3-.23,5.43-.32,8.57-.32h7.32a6.43,6.43,0,0,0-.53-2.25c0-.14-.09-.27-.15-.41-1.91-.65-8.57.18-10.42,0-3-.29-8.17-.37-10.88-.33-8.19.11-13.38-.33-21.58-.29,0,1,0,2,0,3C625.88,264,625.91,264.16,625.87,264.23Z"/>
          <path class="cls-19" d="M626.39,261c4.23-4.25,14.64-13.1,19.55-17-.35-.35.79-1,.37-1.23s-.1-1.07-.5-1.45c-.22-.2.76-2.52.5-2.67-.31.35-4.4,3.62-4.76,3.93l-13,11-4.49,3.81c-.07.24-2.72,2-2.89,2.19,0,.11.57.57.65.65C622.68,260.93,625.55,260.24,626.39,261Z"/>
          <path class="cls-18" d="M617.32,266.06c8.45-10.28,20-19,30.36-27.39,4.24,3.77,9.67,7.05,15.52,12,4.84,4.09,7.69,8.52,12.49,14.26.29-.09,2.29-1.85,2.66-2.09-4-5.25-9.3-10.11-13.84-14.7s-12.17-9.59-16.7-13.58c-10.33,8.4-24.42,19.05-32.88,29.33C615.34,264.39,616.84,265.63,617.32,266.06Z"/>
          <path class="cls-12" d="M623.64,259.69a2.68,2.68,0,0,0-1.73,3.08,3.12,3.12,0,0,0,1.89,2.31,2.54,2.54,0,0,0,2.82-.74,3.46,3.46,0,0,0,.57-1.23,3.06,3.06,0,0,0-.39-2.7A2.86,2.86,0,0,0,623.64,259.69Z"/>
          <path class="cls-12" d="M670.29,259.55a2.12,2.12,0,0,0-1.85.74,3.72,3.72,0,0,0-.64,2.46,2.93,2.93,0,0,0,1.56,2.25,2.36,2.36,0,0,0,2.81-.75,3.06,3.06,0,0,0,.3-3A3.13,3.13,0,0,0,670.29,259.55Z"/>
          <path class="cls-12" d="M646.57,240.05a3.31,3.31,0,0,0-1.94,3,2.56,2.56,0,0,0,1.94,2.07,3.9,3.9,0,0,0,1.23,0,4.12,4.12,0,0,0,1.21-.29,2.83,2.83,0,0,0,1-3.59A2.8,2.8,0,0,0,646.57,240.05Z"/>
        </g>
      </g>
    </g>
  </g>
</svg>
