<?xml version="1.0" encoding="utf-8"?>
<!-- Generator: Adobe Illustrator 23.0.4, SVG Export Plug-In . SVG Version: 6.00 Build 0)  -->
<svg version="1.1" xmlns="http://www.w3.org/2000/svg" xmlns:xlink="http://www.w3.org/1999/xlink" x="0px" y="0px"
	 viewBox="0 0 1440 900" style="enable-background:new 0 0 1440 900;" xml:space="preserve">
<style type="text/css">
	.st0{display:none;}
	.st1{fill:none;stroke:#A1716A;stroke-width:12;stroke-miterlimit:10;}
	.st2{fill:none;stroke:#A1716A;stroke-width:3;stroke-miterlimit:10;}
	.st3{fill:#24BCB8;}
	.st4{fill:none;}
	.st5{fill:#FFFFFF;}
	.st6{font-family:'Arboria-Book';}
	.st7{font-size:18px;}
	.st8{opacity:8.000000e-02;fill:#C1272D;}
	.st9{opacity:8.000000e-02;fill:#00FF00;}
	.st10{opacity:8.000000e-02;fill:#29ABE2;}
	.st11{opacity:8.000000e-02;fill:#FF0000;}
	.st12{opacity:8.000000e-02;fill:#0071BC;}
	.st13{fill:#9B8E7E;}
	.st14{fill:none;stroke:#333333;stroke-width:0.25;stroke-miterlimit:10;}
	.st15{fill:#FFFFFF;stroke:#333333;stroke-width:0.25;stroke-miterlimit:10;}
	.st16{fill:#DECBAD;}
	.st17{fill:#DECBAD;stroke:#FFFFFF;stroke-width:0.25;stroke-miterlimit:10;}
	.st18{fill:#F7ECDD;}
	.st19{fill:#C6B193;}
</style>
<g id="Calque_1" class="st0">
	
		<image style="display:inline;overflow:visible;" width="3360" height="2100" xlink:href="map_ceremonie-base.jpg"  transform="matrix(0.5352 0 0 0.5352 -194.3707 -191.2057)">
	</image>
</g>
<g id="Calque_2">
	<path class="st1" d="M443.1-60.7c-18.8,107.5-105.6,201.9-120,310c-9.6,72.2,5.6,148.3,39,213c9.8,19,33.1,43.7,49,58
		c17.9,16.2,64.7,47.7,86,59c53,28.2,98.8,26.8,184,28c104.3,1.5,222-9.8,324,12c102,21.8,173.8,91.8,214,188
		c17.5,42,26.5,82.1,49.6,121.3"/>
	<path class="st2" d="M695.1,606.3c-1.3-8.8-7.6-26.9-4-34c3.9-7.8,13.9-13.8,21-19c19.8-14.4,33.8-23.3,58-27c13-2,22.4-5.3,33-5
		c5.4,0.1,22.7,1.2,28,2c14.2,2.1,19.1,2.7,33,6c17,4,31,5,44,11c9.8,4.5,13.7,8.8,20.6,17.1c6.4,7.6,13.7,14.4,19.6,22.4
		c5.9,8,10.3,17.6,9.6,27.5"/>
	<path class="st2" d="M908.1,540.3c4.6-24.1,17.1-44.1,28-66c3.8-7.7,15.2-32.3,19-40c14.2-28.4,11.8-45.6,26-74
		c5.3-10.6,17.1-23.5,27-30c5.3-3.5,15.7-4.4,21-8c5.7-3.9,14.4-13.9,19-19c10.8-12.2,17.2-20.9,30-31c7.1-5.5,13.9-11.1,22.1-14.7
		c15.6-7,33.4-6.3,50.4-8.1c2.1-0.2,8.4,0.5,10.4-0.2c2.4-0.9,0.8-9.7,3-11c18.5-10.5,38-30,61-39c2.9-1.2,18.3-14,17-13"/>
	<path class="st2" d="M1161.1,249.3c11.8,9.6,20.3,27.9,22,43c1.2,10.5,6.7,26.5,7,37c0.3,10.5-5.4,16.7,5,23c3,1.8,5.6,5.4,8,8
		c4.7,5,3,10,7,21c5.1,14,8.5,24,15.7,37.1c7.2,13.1,17.6,30.1,31.3,35.9"/>
	<path class="st2" d="M1190.1,220.3c32,10,69.9,23.9,103,45c5.3,3.4,9.5,14.6,11.6,20.4c2.1,5.9,2.4,12.6-2.6,15.6
		c-9.4,5.6-12.2,10-23,8c-3.4-0.6-13-7-16-2c-1.5,2.5-8.9,17-11,19c-14.8,13.6-31.2,24.4-46,38"/>
	<path class="st2" d="M445.9,551.8c-6.8,27.6,0.6,56.6-1.5,84.9c-1.6,22.1-9,44.4-3.5,65.9c2.5,9.5,7.3,18.2,12,26.9
		c10.6,19.5,20.3,39.5,29.2,59.9c2.9,6.5,5.6,13.1,7.1,20.1c2.8,13.9,0.1,28.3-2.6,42.2"/>
	<path class="st2" d="M120.2,479.3c18.4,8.3,38,14,58,16.9c4.2,0.6,8.5,1.1,12.4,2.8c5.2,2.3,9.3,6.4,13,10.8
		c10.8,13,18.3,28.3,25.8,43.4c0.8,1.5,1.5,3.1,1.7,4.9c0.1,1.9-0.5,3.7-1.3,5.5c-3.1,7.4-7.5,14.4-13.7,19.5
		c-4.3,3.6-9.3,6.1-14.3,8.6c-9.4,4.7-18.7,9.5-28.1,14.2c-7.2,3.6-15.4,9-15,17c0.4,8.7,10.8,13.1,19.5,14.1
		c33.2,3.8,65.6-11.5,93.1-30.4c5.6-3.8,11.2-7.9,17.7-9.9c10.5-3.2,21.8-0.3,32.8-0.8c13.8-0.5,27.1-6.2,38.5-14
		c11.5-7.8,21.4-17.5,31.3-27.2c4.1-4,8.5-8.1,14.1-9.7c8.1-2.2,18.2,1.2,24.3-4.6"/>
	<path class="st2" d="M462.7,750.2c-3,14-18.3,21.1-28.4,31.2c-4.5,4.6-8.2,9.9-11.7,15.3c-3,4.4-5.9,8.8-8.9,13.3
		c-5.1,7.6-11.7,16.1-20.9,16.1c-6.1,0-11.5-3.8-16.4-7.4c-5.4-4.1-10.9-8.1-16.3-12.2c-3-2.3-6.1-4.6-8.1-7.8
		c-2.7-4.4-2.9-9.8-2.9-15c-0.2-15.5,1-33.2,13.2-42.7c5.7-4.4,12.9-6.3,20-7.4c7.5-1.2,15.4-1.5,22.4,1.4
		c11.6,4.9,24.3,34.9,29.4,46.4"/>
	<path class="st2" d="M903.8,607.8c-0.1,18.6-9,37-23.6,48.6c-6.3,5-13.5,8.7-20.3,13c-32.2,20.1-55.6,51.1-78.1,81.7
		c-9.4,12.8-19.1,25.8-32.1,34.8c-12.2,8.3-26.8,12.8-38.3,22.1c-10.4,8.5-17.4,20.3-24.2,31.9c-7.2,12.2-14.3,24.5-21.5,36.7"/>
	<path class="st2" d="M1080.1,755.3c44.5-19.3,89.9-36.8,135.9-52.2c10.7-3.6,21.5-7.1,32.5-9.1c21.1-3.8,42.8-2.3,64.1-4.6
		c25.6-2.8,50.5-11.4,72.3-25c8.5-5.3,16.6-11.3,25.6-15.7c7.8-3.9,16.2-6.4,24.1-10.3c13.1-6.4,24.3-15.9,36.6-23.8
		c40.1-25.7,89.2-32.2,136.4-37.9c-3.7-0.6-7.7,0.7-10.3,3.4"/>
	<path class="st2" d="M1057.1,632.1c24-16.8,69,2.3,104,4.2c18,1,29,10,41,14c17.5,5.9,38,30,34,47"/>
</g>
<g id="Calque_3">
	<g>
		<path class="st3" d="M562.9,229.4c-1.6,16-0.6,33.5-10.2,46.3c-6.2,8.2-15.9,13.1-21.8,21.5c-9.9,13.9-6.6,32.9-9.1,49.8
			c-3.5,23.4-25.6,44.6-48.6,50.4c-20,5-30.9,16.9-30.1,34.2c0.2,4.6,9.4,12.3,10.1,16.8c4,26-35,60-19,66c11.6,4.3,17-21,29-23
			c15.9-2.7,39.5-2.3,53.5-11.8c32.5-22.2,55.3-51.3,91.5-71.2c51-28,112-33,164-49c12-3.7,34.3-22.3,46.1-26.5
			c10.4-3.7,19.1-0.1,29.9-2.5c46.2-10.3,55-31,111-26c20.1,1.8,74.3-7.2,90-20c21.3-17.4,7.5-52,24-74c6-8,15.1-16.7,29,1
			c11.2,14.3,28.7,19.9,44,10c14-9,40.4-20.8,53-34c4.2-4.4,13.1-18.5,19-20c7.8-2,27.1-0.7,36,6c8,6,17,0,20-5
			c4.5-7.4,0.7-21.7,11-30c9-7.2,25-22,30-29c2.4-3.4-14-10-16.6-16.3c-4.2-10.1-21.3-4.1-29.4,3.3c-8.1,7.4-13.3,18-21.1,25.8
			c-13.5,13.5-33.9,17.6-53,17.6c-19.1-0.1-38.1-3.7-57.2-3c-21,0.8-41.4,6.7-62,11.1c-40.1,8.6-81.3,11.4-122.2,9.7
			c-37.5-1.5-74.9-6.6-112.5-6.9c-24.5-0.2-49.1,1.8-73.5,3.7c-19.7,1.6-26.1,13.4-45.6,9.9c-28-5-52.9,4.3-71,7
			c-18.3,2.7-44.6,5.2-63,13C569.1,192.3,564.5,213.4,562.9,229.4z"/>
	</g>
	<path class="st3" d="M451.9,629.2c4.1,33.8,6.6,68.1,15.8,100.9c2.8,9.8,6.3,19.9,13.5,27.1c10.9,10.9,28.5,12.8,43.2,8.2
		c14.7-4.6,27-14.8,37.8-25.7c10.8-10.9,42-25.9,54-35.5c19.3-15.3,22.2-26.2,46-20c23,6,50.7,7.7,70,23c4.3,3.4,13.3,3.3,18,6
		c7,4,24.3,0.9,33-3c28.6-12.7,44.9-26.4,70.2-44.8c-2.4-4.5-8.4-5.6-13.5-5.9c-21.8-1.4-44,1.3-65.7-1.3c-24.3-2.9-45-19-69-20
		c-9.1-0.4-14,2-23,1c-7.6-0.8-22.2,0.8-29.9,1.1c-17.1,0.9-34.3,6.8-48.1,8.9c-20,2.9-36.3-3.6-56,1c-13.4,3.1-23.7,13.1-37,10
		c-13-3-22.9-2.3-29-10c-4.1-5.1-12.4-27.5-13-34c-2-23-16-40-20-37C444.8,582.5,450.1,614.9,451.9,629.2z"/>
</g>
<g id="textes">
	<rect x="611.6" y="292" class="st4" width="166.2" height="18.8"/>
	<text transform="matrix(1 0 0 1 611.561 303.8559)" class="st5 st6 st7">petit  lac long</text>
	<rect x="479.6" y="688" class="st4" width="166.2" height="18.8"/>
	<text transform="matrix(1 0 0 1 479.5609 699.8558)" class="st5 st6 st7">lac barbotte</text>
</g>
<g id="guides">
	<rect x="693.7" y="352.7" class="st8" width="120" height="72.6"/>
	<rect x="776.7" y="373.6" class="st9" width="25" height="17"/>
	<rect x="706.7" y="373.6" class="st9" width="25" height="17"/>
	<rect x="745.2" y="373.6" class="st9" width="18" height="32"/>
	<rect x="738.7" y="405.6" class="st10" width="30" height="2.8"/>
	<rect x="737.7" y="408.4" class="st11" width="32" height="2.8"/>
	<rect x="736.7" y="411.2" class="st10" width="34" height="2.8"/>
	<rect x="735.7" y="414" class="st11" width="36" height="2.8"/>
	<rect x="734.7" y="416.7" class="st10" width="38" height="2.8"/>
	<rect x="733.7" y="419.5" class="st11" width="40" height="2.8"/>
	<rect x="732.7" y="422.3" class="st10" width="42" height="2.8"/>
	<rect x="693.7" y="352.9" class="st12" width="120" height="9.8"/>
</g>
<g id="chalet_ok">
	<rect x="692.1" y="352.2" class="st13" width="121.8" height="73.1"/>
	<path class="st14" d="M693.4,352.9c15.5-0.9,32.3,0.5,49.2,0.2c4.7-0.1,9.7-0.4,14.4-0.7c7.6-0.4,16.6,0,24.3-0.1
		c11-0.2,15.6-0.3,26.6,0.3c0.3,0,4.7,0,6.1,0.1"/>
	<path class="st14" d="M692.9,351.9c39.6-2.8,80.6-3.2,120.3-0.9"/>
	<g>
		<path class="st14" d="M693.4,351.9c0,10-0.3,22.3-0.2,32.6c0.1,12.6-1,27.1,0.2,40.6"/>
		<path class="st14" d="M813.9,351.6c-0.2,6.9-0.5,9.8-0.5,16.6c0,2,0,12.8,0,14.8c0.2,15.3-0.2,26.9,0,42.1"/>
		<path class="st14" d="M696.1,352.8c-0.1,24.1-0.1,48.2-0.3,72.2"/>
		<path class="st14" d="M698.5,352.6c1,14.1-0.9,28.2-0.1,42.3c0.6,10,0.5,18.2,0.2,30.4"/>
		<path class="st14" d="M701.5,352.6c0.3,2.6,0.2,5.3,0.1,7.9c-0.6,21.6-0.4,43.3,0.6,64.9"/>
		<path class="st14" d="M704.5,352.4c-0.8,8.3,0.1,20.9,0.2,30.4c0.2,14.3-0.2,27.9-0.1,42.2"/>
		<path class="st14" d="M707,352c-0.4,4.3-0.1,10.5,0,15c0.2,13.5,0.4,22.8,0.4,36.5c0,4.4-0.4,9.6-0.3,14c0,1.8,0.3,6.3,0.3,8.1"/>
		<path class="st14" d="M710.3,425.2c0-10-0.3-21.3-0.2-31.5c0.1-12.6-1-27.1,0.2-40.6"/>
		<path class="st14" d="M713.1,425.3c-0.1-24.1-0.1-48.2-0.3-72.2"/>
		<path class="st14" d="M715.4,425.5c1-14.1-0.9-28.2-0.1-42.3c0.6-10,0.5-18.2,0.2-30.4"/>
		<path class="st14" d="M727.2,425.2c-0.8-8.3,0.1-20.9,0.2-30.4c0.2-14.3-0.2-27.9-0.1-42.2"/>
		<path class="st14" d="M729.7,425.7c-0.4-4.3-0.1-10.5,0-15c0.2-13.5,0.4-22.8,0.4-36.5c0-4.4-0.4-9.6-0.3-14
			c0-1.8,0.3-5.4,0.3-7.2"/>
		<path class="st14" d="M733,353.1c0,10-0.3,20.6-0.2,30.9c0.1,12.6-1,27.1,0.2,40.6"/>
		<path class="st14" d="M758.2,425.2c-0.8-8.3,0.1-20.9,0.2-30.4c0.2-14.3-0.2-27.9-0.1-42.2"/>
		<path class="st14" d="M760.7,425.3c-0.4-4.3,0-10.1,0.1-14.6c0.2-13.5,0.4-22.8,0.4-36.5c0-4.4-0.4-9.6-0.3-14
			c0-1.8,0.3-6.3,0.3-8.1"/>
		<path class="st14" d="M764,352.5c0,10-0.3,21.3-0.2,31.5c0.1,12.6-1,27.1,0.2,40.6"/>
		<path class="st14" d="M735.8,353.2c-0.1,24.1-0.1,47.3-0.3,71.4"/>
		<path class="st14" d="M738.2,353.2c1,14.1-1,27.2-0.2,41.3c0.6,10,0.5,18.2,0.2,30.4"/>
		<path class="st14" d="M807,352.6c1,14.1-1,27.7-0.2,41.8c0.6,10,0.5,18.2,0.2,30.4"/>
		<path class="st14" d="M718.5,425.6c0.3-2.6,0.2-5.3,0.1-7.9c-0.6-21.6-0.4-43.3,0.6-64.9"/>
		<path class="st14" d="M721.4,425.7c-0.8-8.3,0.1-20.9,0.2-30.4c0.2-14.3-0.2-27.9-0.1-42.2"/>
		<path class="st14" d="M724,426.1c-0.4-4.3-0.1-10.5,0-15c0.2-13.5,0.4-22.8,0.4-36.5c0-4.4-0.4-9.6-0.3-14c0-1.8,0.3-6.3,0.3-8.1"
			/>
		<path class="st14" d="M741,424.9c1-13.8-1-27.3-0.2-41.6c0.6-10,0.5-18.2,0.2-30.4"/>
		<path class="st14" d="M810.3,425.5c1-14.1-0.9-28.2-0.1-42.3c0.6-10,0.4-18.3,0.2-30.5"/>
		<path class="st14" d="M752.8,425.2c-0.8-8.3,0.1-20.9,0.2-30.4c0.2-14.3-0.2-27.9-0.1-42.2"/>
		<path class="st14" d="M755.3,425.2c-0.4-4.3,0-10,0.1-14.5c0.2-13.5,0.4-22.8,0.4-36.5c0-4.4-0.4-9.6-0.3-14
			c0-1.8,0.3-6.3,0.3-8.1"/>
		<path class="st14" d="M744.1,425.1c0.3-2.6,0.2-4.8,0.1-7.5c-0.6-21.6-0.4-43.3,0.6-64.9"/>
		<path class="st14" d="M747,425.1c-0.8-8.3,0.2-20.3,0.3-29.8c0.2-14.3-0.2-27.9-0.1-42.2"/>
		<path class="st14" d="M769.5,425.2c-0.8-8.3,0.1-20.9,0.2-30.4c0.2-14.3-0.2-27.9-0.1-42.2"/>
		<path class="st14" d="M775.1,425.7c0.4-4.3,0.1-10.5,0-15c-0.2-13.5-0.4-22.8-0.4-36.5c0-4.4,0.4-9.6,0.3-14
			c0-1.8-0.3-6.3-0.3-8.1"/>
		<path class="st14" d="M771.8,352.5c0,10,0.3,21.3,0.2,31.5c-0.1,12.6,1,27.1-0.2,40.6"/>
		<path class="st14" d="M778,352.3c-0.1,24.1-0.1,48.2-0.3,72.2"/>
		<path class="st14" d="M797.4,425.7c0.4-4.3,0.1-10.5,0-15c-0.2-13.5-0.4-22.8-0.4-36.5c0-4.4,0.4-9.6,0.3-14
			c0-1.8-0.3-6.3-0.3-8.1"/>
		<path class="st14" d="M794.1,352.5c0,10,0.3,21.3,0.2,31.5c-0.1,12.6,1,27.1-0.2,40.6"/>
		<path class="st14" d="M791.3,352.3c0.1,24.1,0.1,48.2,0.3,72.2"/>
		<path class="st14" d="M780.4,352.1c1,14.1-0.9,28.2-0.1,42.3c0.6,10,0.5,18.2,0.2,30.4"/>
		<path class="st14" d="M766.1,424.8c-0.2-4.7,0.1-9.1,0.1-13.6c0.2-13.5,0.4-22.8,0.4-36.5c0-4.4-0.4-9.6-0.3-14
			c0-1.8,0.3-6.3,0.3-8.1"/>
		<path class="st14" d="M799.6,352.5c0,10-0.3,21.3-0.2,31.5c0.1,12.6-1,27.1,0.2,40.6"/>
		<path class="st14" d="M805.1,425.2c-0.8-8.3,0.1-20.9,0.2-30.4c0.2-14.3-0.2-28-0.1-42.4"/>
		<path class="st14" d="M801.9,426.1c-0.4-4.3-0.1-10.5,0-15c0.2-13.5,0.4-22.8,0.4-36.5c0-4.4-0.4-9.6-0.3-14
			c0-1.8,0.3-6.3,0.3-8.1"/>
		<path class="st14" d="M783.2,425.5c1-14.1-0.9-28.2-0.1-42.3c0.6-10,0.5-18.2,0.2-30.4"/>
		<path class="st14" d="M786.3,425.6c0.3-2.6,0.2-5.3,0.1-7.9c-0.6-21.6-0.4-43.3,0.6-64.9"/>
		<path class="st14" d="M789.2,425.7c-0.8-8.3,0.1-20.9,0.2-30.4c0.2-14.3-0.2-27.9-0.1-42.2"/>
		<path class="st14" d="M749.5,425.3c-0.4-4.3,0-9.6,0.1-14.1c0.2-13.5,0.4-22.8,0.4-36.5c0-4.4-0.4-9.6-0.3-14
			c0-1.8,0.3-6.3,0.3-8.1"/>
	</g>
	<path class="st15" d="M801,390.6c-4,0.4-8.3,0.5-11.5,0.6c-4,0.2-10.4,0-13.2-0.3c0-6-0.1-11.2-0.2-17.2c7.1-0.5,12.2-0.9,19.3-0.9
		c0.9,0,4.2,0,5.9,0c-0.4,4.7,0,8.3,0,13.3C801.3,386.8,801.2,389.8,801,390.6z"/>
	<path class="st15" d="M764.8,340.9c-4,0.4-8.3,0.5-11.5,0.6c-4,0.2-10.4,0-13.2-0.3c0-6-0.1-11.2-0.2-17.2
		c7.1-0.5,12.2-0.9,19.3-0.9c0.9,0,4.2,0,5.9,0c-0.4,4.7,0,8.3,0,13.3C765,337.1,765,340.1,764.8,340.9z"/>
	<path class="st15" d="M731.7,373.6c-4-0.4-5.7-0.1-8.9-0.2c-4.4,0-13.2-0.5-16-0.1c0,6-0.3,11.7,0,17.7c6.4,0.2,12.9,0.2,19.9,0.3
		c0.9,0,3.5,0,5.2,0c-0.4-4.7-0.4-9.5-0.4-14.5C731.6,376,731.6,374.6,731.7,373.6z"/>
	<path class="st15" d="M744.8,405.7c0-1.7,0.1-4.4,0.1-6.5c0-3.6-0.2-6.8-0.2-11.5c0-4.7-0.1-12.1,0-14.4c0.7,0,3.8,0,4.1,0
		c2.5,0,3.6,0,6.1-0.2c3.1-0.2,6.6,0.5,7.8,0.6c0.3,10.7,0.2,21.5-0.1,32.2"/>
	<path class="st16" d="M738.8,408.4c-0.1-0.7,0-1.8,0.1-2.5c6.3-0.5,11-0.5,16.8-0.3c4.3,0.2,8.8,0.3,13.1,0.2c0.1,0.8,0,2.1,0,2.9"
		/>
	<path class="st17" d="M736.6,411.5c-0.1-0.8-0.2-2.5-0.2-3.3c2.7,0,5.4-0.1,8.4,0c1.7,0,3.1,0.2,4.7,0.2c1.4,0,3.8,0.2,5.2,0.2
		c1.7-0.1,3.9,0,5.6,0c2,0,7-0.4,9.7-0.1c0,0.6-0.1,2.4-0.1,3"/>
	<path class="st18" d="M731.3,423.9c0.4-15.7,0.2-48.3,0.2-61.3c0.4,0,1.1,0,1.5,0c0.2,0,0.4,0,0.5,0c0.6,0,1.2,0,1.8,0.1
		c-0.1,12.9-0.1,47.3,0.3,61.2c-1.3,0-2.2,0-3.3,0.1C732.3,424,731.4,423.9,731.3,423.9z"/>
	<path class="st18" d="M770.7,425.6c0.1,0.4-0.1-25.7,0-27.5c0.1-12.9,0.4-21.7,0.4-34.6c0.8-0.4,2.7-0.1,3.6-0.3
		c-0.1,6,0.3,13.2,0.3,19.2c0,8.1-0.4,34.9-0.3,43.1C773.4,425.6,772,425.6,770.7,425.6z"/>
	<path class="st17" d="M735.5,414.3c-0.1-0.3-0.1-1.4-0.1-1.7c0-0.4,0-1.1,0-1.5c5.1-0.1,5.7-0.2,10.7,0c1.4,0.1,7.4,0.4,8.8,0.4
		c2.4,0.1,4.8,0,7.2-0.1c2.9-0.1,5.8-0.2,8.7-0.3c0.1,0.7,0.3,2.4,0,3.3"/>
	<path class="st17" d="M734.6,417.4c0-0.5,0-1.4,0-2c0-0.6,0-0.9,0.2-1.5c2.7-0.1,5,0,7.2-0.1c2.9-0.1,6-0.1,9-0.1
		c4.5,0.1,7.3-0.1,11.6,0c3.2,0.1,6.2,0.1,9.4,0.2c0.1,0.8,0.1,2.6,0.1,3.4"/>
	<path class="st17" d="M773.1,420.1c0-0.6,0-2.4,0-3c-6.2-0.1-9.7-0.1-15.5,0c-1.5,0-7.3-0.2-8.8-0.1c-6.7,0.3-9.1,0-15.3,0
		c-0.2,0.5-0.1,2.6,0,3.3"/>
	<path class="st17" d="M732.3,422.7c0-0.5,0-2.4,0.1-2.9c5.9-0.3,11.3,0,17.1-0.1c1.5,0,6.2-0.3,7.7-0.2c6.4,0.2,10.4-0.2,17.1,0.1
		c0,0.7,0.1,1.9,0.1,2.6"/>
	<path class="st17" d="M731.3,425.6c-0.1-0.7-0.1-2.4,0-3.2c4.2,0,6.8,0.1,11.1,0.1c2.5,0,6.6-0.2,9.1-0.1c7.2,0.3,15.6-0.3,23.7,0
		c0.1,0.6,0.1,1.2,0.1,1.8c0,0.3,0,0.7,0,1.2"/>
	<g>
		<path class="st19" d="M771,361.9c-0.1-0.3-5.7-6.4-6.3-7c-2.7-2.4-5.5-4.6-10.2-8.2c0-0.2,0.3-0.4,0.2-0.5c-0.5-1.4-0.2-3.2,0.3-4
			c1.4,0.4,4.1,2.6,5.4,3.2c4.2,2.1,7.3,5.8,10.1,9.5c0.8,1.1,1.6,2.1,2.4,3.2c0.1,0.2,2.7,1.6,2.9,1.8c-0.5,1-3.6,0.7-4.4,1.6"/>
		<path class="st18" d="M734.6,364.1c2.2,0,10.5,0.5,12.1,0.5c3.9-0.1,7.8,0.1,11.7-0.2c2.6-0.2,4.7-0.3,7.4-0.3c1.4,0,4.9,0,6.3,0
			c0-0.5-0.3-1.4-0.5-1.9c0-0.1-0.1-0.2-0.1-0.4c-1.7-0.6-7.4,0.2-9,0c-2.6-0.2-7-0.3-9.4-0.3c-7.1,0.1-11.5-0.3-18.6-0.2
			c0,0.8,0,1.7,0,2.5C734.6,363.9,734.6,364,734.6,364.1z"/>
		<path class="st19" d="M735,361.2c3.6-3.7,12.6-11.3,16.9-14.6c-0.3-0.3,0.7-0.8,0.3-1.1c-0.4-0.3-0.1-0.9-0.4-1.2
			c-0.2-0.2,0.7-2.2,0.4-2.3c-0.3,0.3-3.8,3.1-4.1,3.4c-3.7,3.2-7.4,6.3-11.2,9.5c-1.3,1.1-2.6,2.2-3.9,3.3
			c-0.1,0.2-2.3,1.7-2.5,1.9c0,0.1,0.5,0.5,0.6,0.6C731.8,361.2,734.3,360.6,735,361.2z"/>
		<path class="st18" d="M727.2,365.6c7.3-8.9,17.3-16.4,26.2-23.6c3.7,3.3,8.3,6.1,13.4,10.3c4.2,3.5,6.6,7.3,10.8,12.3
			c0.2-0.1,2-1.6,2.3-1.8c-3.4-4.5-8-8.7-11.9-12.7c-3.9-4-10.5-8.3-14.4-11.7c-8.9,7.2-21,16.4-28.3,25.3
			C725.5,364.2,726.8,365.3,727.2,365.6z"/>
		<path class="st16" d="M732.6,360.2c-0.6,0.4-1.4,1.1-1.5,1.7c0,0.3-0.1,0.6,0,0.9c0.2,0.9,0.8,1.7,1.6,2c0.8,0.3,1.9,0.1,2.4-0.6
			c0.2-0.3,0.4-0.7,0.5-1.1c0.2-0.8,0.2-1.6-0.3-2.3C734.8,360.1,733.4,359.7,732.6,360.2z"/>
		<path class="st16" d="M772.8,360c-0.7,0-1.2,0.2-1.6,0.6c-0.5,0.6-0.6,1.4-0.6,2.1c0,0.8,0.7,1.6,1.3,1.9c0.8,0.4,1.9,0.1,2.4-0.6
			c0.5-0.7,0.6-1.7,0.3-2.6C774.5,360.9,773.5,360,772.8,360z"/>
		<path class="st16" d="M752.4,343.2c-1.1,0.5-1.8,1.7-1.7,2.6c0.1,0.9,0.8,1.6,1.7,1.8c0.3,0.1,0.7,0.1,1.1,0c0.4,0,0.7-0.1,1-0.2
			c1-0.5,1.4-2.1,0.9-3.1C754.9,343.3,753.4,342.8,752.4,343.2z"/>
	</g>
</g>
<g id="chalet">
	<path class="st14" d="M680.5,359.7c7.8-6.8,13.9-10.7,21.7-16.6c16.7-12.5,34.2-24.5,52.5-36.4c9.8,5.8,15.4,10.1,24.6,16.9
		c17.7,13,32.1,23,49.3,36.7"/>
	<path class="st14" d="M827.6,359.5c0,0.9,0.1,1.6,0.2,2.5c-0.2,0-10-7.4-13.3-10c-6.7-5.2-19.7-15.3-30.2-22.5
		c-10.5-7.3-18.3-14.8-29.8-20.4c-6,3.6-21.6,13.2-28.2,17.7c-9.5,6.5-18,12.8-26.5,19.6c-6.1,4.9-12.7,10.4-18.2,15.1
		c0-0.8-0.1-1.6-0.1-2.5"/>
	<path class="st14" d="M813.9,351.5"/>
	<path class="st14" d="M813.8,352.7"/>
	<path class="st14" d="M700.8,345.4c0,1.9,0.1,3.7,0.1,5.6"/>
	<path class="st14" d="M706.4,341c0.2,3.3,0.5,6.6,0.7,9.9"/>
	<path class="st14" d="M712.5,336.6c0,4.6-0.1,9.6,0.2,14.2"/>
	<path class="st14" d="M718,332.4c0,5.9,0.1,12.1,0.7,18"/>
	<path class="st14" d="M724.9,328c0.2,7.2,0.4,14.5,0.6,21.7"/>
	<path class="st14" d="M730,324.3c-0.2,8.4-0.1,16.8,0.4,25.3"/>
	<path class="st14" d="M735.6,320.8c0.4,9.7,0.4,19.5,0.1,29.2"/>
	<path class="st14" d="M741.9,316.5c0,11.1,0,22.2,0.2,33.3"/>
	<path class="st14" d="M746.8,313.7c0,11.9,0,23.8,0,35.8"/>
	<path class="st14" d="M752.8,309.7c-0.7,6.9-0.2,13.9-0.1,20.9c0.1,6.2-0.2,12.5-0.7,18.7"/>
	<path class="st14" d="M757.4,310.7c0.5,12.8,1,25.6,1.3,38.4"/>
	<path class="st14" d="M764.2,314.7c-0.2,11.7-0.1,23.3,0.3,35"/>
	<path class="st14" d="M769.3,318.1c-0.3,10.4-0.5,20.9-0.8,31.3"/>
	<path class="st14" d="M773.8,321.8c0.6,9.4,1.3,18.8,1.9,28.2"/>
	<path class="st14" d="M781.9,328.4c-0.1,5.5-0.2,10.9-0.3,16.4c0,1.9-0.1,3.8,0.4,5.6"/>
	<path class="st14" d="M788.5,332.8c0.2,5.7,0.4,11.4,0.5,17.1"/>
	<path class="st14" d="M795,337.5c0.1,4,0.2,8,0.3,12.1"/>
	<path class="st14" d="M801.9,342.9c-0.1,2.5-0.2,5-0.3,7.5"/>
	<path class="st14" d="M808.3,346.9c-0.1,1.4-0.2,2.7-0.3,4.1"/>
</g>
</svg>
