<?xml version="1.0" encoding="utf-8"?>
<!-- Generator: Adobe Illustrator 23.0.4, SVG Export Plug-In . SVG Version: 6.00 Build 0)  -->
<svg version="1.1" xmlns="http://www.w3.org/2000/svg" xmlns:xlink="http://www.w3.org/1999/xlink" x="0px" y="0px"
	 viewBox="0 0 1920 1080" style="enable-background:new 0 0 1920 1080;" xml:space="preserve">
<style type="text/css">
	.st0{display:none;}
	.st1{display:inline;fill:#24BCB8;}
	.st2{display:inline;}
	.st3{fill:#FFFFFF;}
	.st4{display:inline;fill:#FFFFFF;}
	.st5{display:inline;fill:#F9E6C2;}
	.st6{fill:#24BCB8;}
	.st7{fill:#F9E6C2;}
	.st8{fill:#C1272D;}
	.st9{fill:#F7931E;}
	.st10{fill:none;stroke:#E39D23;stroke-width:2;stroke-linecap:round;stroke-linejoin:round;stroke-miterlimit:10;}
	.st11{fill:none;}
	.st12{fill:#E39D23;}
	.st13{font-family:'Arboria-Bold';}
	.st14{font-size:24px;}
	.st15{font-family:'Arboria-Book';}
</style>
<g id="_base" class="st0">
	
		<image style="display:inline;overflow:visible;" width="3360" height="2100" xlink:href="map_base.jpg"  transform="matrix(0.6548 0 0 0.6548 -145.2 -226)">
	</image>
</g>
<g id="fond_bleu_-_copie" class="st0">
	<rect x="-94.9" y="-71.1" class="st1" width="2101.4" height="1199.7"/>
</g>
<g id="terres_-_copie" class="st0">
	<g class="st2">
		<path class="st3" d="M1242.9,728.8c-9.6,17.7-14.8,38.3-29.9,51.7c-7.4,6.6-20.3,16.7-29.6,15.5c-9.6-1.2-12.6-18.5-25.4-10.6
			c-6.7,4.1-9.3,16.5-0.6,23.4c5.4,4.2-14.3,6.8-18.5,11.4c-4.2,4.5-13.3,9.9-14.4,15.9c-1.7,9.3,7.4,20.1,11.4,27.9
			c1.8,3.4,1.5,8,5,10.3c9.6,6.3,28,1.7,47.4-5.6c14.9-5.6,30-11.9,44.2-21.5c18.1-12.2,16.4-3.4,26.2-2.6
			c7.2,0.6,19.2-5.2,24.4-10.3c6.9-6.9,5.1-21.4,14.8-20.2c6.3,0.8,7.7,13.2,14.1,12.7c9.8-0.8,16.7,2.7,21.1,3.4
			c17.7,2.6,26.6-4.9,42.6,2.8c13.5,6.5,31.4-1.5,41.8,6.9c7,5.6,12.9,12.8,21.1,16.3c16.9,7.3,37,2.3,49-11.6
			c12-13.9,29.1-33.1,34.6-58.2c2.6-11.8,18.6-3.4,21.5-12.6c1.3-4.1-5.5-23.3-7.1-27.4c-5.5-14.2-3.8-25.4-0.4-40.2
			c5.2-22.6,10.1-23.4,19.6-44.6c8.5-19.1,22.5-20.5,16.6-36.1c-5.5-14.5-6.4-38.6,0-45.1c8.8-8.9,16.5-29.6,17.1-35.1
			c1.5-14.5-6.8-25.5-6-33.6c3-33.1,18.1-37.6,11.5-45.1c-5.2-6-12.8,5.1-17.6,5c-7.9-0.2-13.5-6-21.1,2.5
			c-6.2,6.9-12.8,13.8-16.6,25.5c-3.8,11.9-18.9,14.6-29,22c-22.3,16.4-46.4,30.9-60.6,54.7c-16.1,27.1-19.5,64.5-41.4,87.2
			c-11.9,12.3-27.7,20.2-40.7,31.5c-15.2,13.2-27.2,31.5-46.2,38c-11.5,3.9-27-0.3-35.5-7.6c-4.9-4.2-12.5,4.4-18.6,2.5
			C1260.6,725.1,1249.4,716.8,1242.9,728.8z"/>
	</g>
	<path class="st4" d="M1209.9,717c-3.5,1-6.7,3.2-10.4,3.7c-2.8,0.4-6-0.2-8.1,1.8c-1.2,1.2-1.6,2.9-2.1,4.4
		c-1.1,3.3-3.2,6.3-5.9,8.5c-0.9,0.7-1.8,1.4-2.4,2.4c-0.8,1.5-0.4,3.4-1.3,4.8c-1.6,2.9-6.2,2.3-8.6,4.6c-1.8,1.7-2,4.8-4.1,6.2
		c-2.1,1.4-5.2,0.2-7.4,1.4c-1.5,0.9-2.2,2.7-2.8,4.4c-1.3,3.9-2.5,7.8-3.8,11.6c-0.4,1.3-0.8,2.7-0.1,3.9c1.2,2,4.2,1.3,6.5,0.8
		c4.8-1.1,10-0.2,14,2.5c4.3,2.9,7.4,7.5,12.1,9.6c0.8,0.3,1.6,0.6,2.4,0.5c0.9-0.1,1.7-0.6,2.5-1c5.8-3.5,11.7-7,17.5-10.5
		c3.5-2.1,7.3-4.8,7.7-8.8c0.1-1.3-0.2-2.7,0.4-4c0.8-1.8,2.9-2.4,4.7-3.2c5.4-2.5,9-8.5,8.6-14.4c-0.1-0.8-0.2-1.5-0.1-2.3
		c0.1-1.2,0.8-2.4,1.4-3.4c1.4-2.3,2.8-4.7,4.2-7C1241.3,723,1217.4,714.9,1209.9,717z"/>
	<path class="st4" d="M1322,539.4c-2.3,2.5-4.7,5-6.1,8.1c-1.9,4-2.1,8.9-4.7,12.4c-1.5,2.1-3.8,3.6-5.4,5.6
		c-2.3,3.1-2.9,7.1-3.9,10.9c-2.6,9.3-8.7,17.6-16.7,22.9c-2.4,1.6-5.1,2.9-8,3c-2.3,0-4.9-0.7-6.8,0.5c-1.4,0.9-2.1,2.7-2.6,4.3
		c-2.5,7.7-5.1,15.3-7.6,23c-1,2.9-2.1,6-4.7,7.6c-2.4,1.4-5.4,1.2-7.9,2.6c-5,2.7-5.1,10-9,14.2c-4.9,5.3-14.3,4.1-19.1,9.5
		c-2.3,2.6-3,6.2-3.6,9.6c-1.9,10.2-3.7,20.5-5.6,30.7c-0.3,1.8-0.6,3.8,0.4,5.3c1.1,1.6,3.2,1.9,5.1,2.2
		c11.1,1.4,22.3,2.9,33.4,4.3c13.1,1.7,26.3,3.4,39.4,5.1c16.1,2.1,34.3,3.5,46.6-7.1c6.1-5.3,10.1-13.1,17.4-16.6
		c3.6-1.7,7.7-2.1,11.2-3.9c5.9-3.1,9.2-9.7,14.6-13.6c3.7-2.7,8.2-3.9,12.2-6.1c13.9-7.5,19.7-24.1,25.6-38.8
		c4.1-10.3,8.7-20.3,13.3-30.4c2.1-4.6,4.3-9.3,6.4-13.9c3.8-8.3,7.7-16.7,12.9-24.1c15.9-22.6,42.7-34.6,63.4-53
		c13.1-11.7,23.6-25.9,34.1-40c-14.1-2.8-29-5.5-42.5-0.5c-6.8,2.6-12.9,7-20,8.9c-12.8,3.4-26.8-2.3-39.5,1.7
		c-3.6,1.1-7,3-10.7,3.8c-7.3,1.5-14.8-1.8-22.3-1.9c-12.8-0.2-23.6,8.2-35,12.7c-2.8,1.1-5.7,2.1-8.6,2.6c-2.7,0.5-6.3-0.5-8.8,0.3
		c-5.7,1.7-12.3,12.1-16.4,16.5C1335.6,524.8,1328.8,532.1,1322,539.4z"/>
	<path class="st4" d="M1886.6-11.7c-12.4,19.6-20.9,41.8-24.5,64.8c-1.4,8.6-2.1,17.4-4.7,25.7c-2.1,6.6-5.3,12.7-8.4,18.8
		c-9,17.3-18.1,34.7-27.1,52c-19.8,38.1-39.7,76.2-63.1,112.2c-8,12.3-17.6,25.2-31.8,29.2c-5.8,1.6-12.1,1.7-17.2,4.7
		c-9.1,5.4-10.9,17.5-15.7,26.9c-8,15.6-25.3,24.4-35.2,38.8c-9.1,13.3-11.3,30.3-20.4,43.5c-4.5,6.5-10.5,11.8-16.4,17
		c-19.1,16.6-39.6,33-64.2,39.3c-15.2,3.9-31.1,3.7-46.8,4.8c-11.4,0.8-22.8,2.3-34.1,3.8c-3.8,0.5-7.6,1-11.3,1.5
		c-17.2,2.3-34.3,4.5-51.5,6.8c-5.3,0.7-10.7,1.4-15.9,2.7c-5.2,1.3-10.2,3.2-15.2,5.1c-28.7,10.8-55.8,30.2-72.8,55.8
		c-8.2,12.4-13.7,26.6-22.8,38.4c-9.4,12.3-22.5,21.7-30.1,35.2c-3.5,6.2-5.8,13.3-11.1,18.2c-3.4,3.2-7.8,5.1-11.9,7.4
		c-16.9,9.2-30.8,25.5-32.8,44.6c-0.8,7.2-0.7,16.1-7,19.6c-2.4,1.3-5.3,1.5-8,1.8c-15.5,1.8-30.2,9.4-40.6,20.9
		c-7.4,8.2-12.6,18.2-17.6,28.1c-1.6,3.2-3.4,6.7-6.4,8.5c-4.7,2.8-10.7,1.2-16.2,1.6s-11.6,6.1-8.5,10.6
		c-18.8,12.5-39.5,21.9-61.2,28c-0.8-5.3-6.6-8.4-12-8.6c-5.3-0.2-10.5,1.6-15.7,2.3c-19.1,2.4-38.5-13.7-39.8-32.9
		c-0.2-3.3-0.1-6.8-2-9.4c-1.2-1.7-3.1-2.7-4.9-3.7c-7.2-3.9-14.5-7.8-21.7-11.7c-2.1-1.1-4.2-2.3-5.3-4.4c-0.8-1.5-0.9-3.3-1.1-5.1
		c-1.5-11.5-10.3-21.7-21.4-24.9c-0.7,1.9-1.4,3.9-2.1,5.8c-13.7-6.2-32.4-7.2-47.3-5.6c-3.1,0.3-6.4,0.9-8.8,2.9
		c-2.3,1.9-4.9,5.1-7.5,3.6c-1.2-0.7-1.7-2.2-2.5-3.3c-2.9-4-8.9-3.1-13.7-1.7c-14,4-28,8.1-42,12.1c-1.8,0.5-3.9,1-5.5,0
		c-1.4-0.9-2.7-2.8-4.2-2.1c1.7-1.8,0.2-4.9-1.9-6.3s-4.7-1.9-6.5-3.6c-2-1.8-2.7-4.7-3.2-7.3c-1.7-7.8-3.4-15.6-5.1-23.3
		c-1.8-8.1-14.4-9.7-19.8-15.9c-2.8-3.1-4.3-7.2-6.6-10.7c-16.4-24.7-60.4-10.3-80.2-32.4c-2.4-2.7-4.5-5.9-7.7-7.5
		c-5-2.5-10.9-0.2-16.4,1c-32.9,7.1-62.1-26.9-95.8-26.8c-3.7,0-7.5,0.4-11-0.9c-10.8-4-10.3-19.4-16.5-29.2
		c-6.1-9.7-18.9-13.1-30.3-12.2s-22.3,5.1-33.6,7.3c-35.4,6.7-71.7-7.9-107.5-4.5c-28.1,2.7-56.5,16.3-83.3,7.7
		c-8.9-2.9-16.9-8-25.7-11c-15.3-5-32.9-2.7-46.4,6.1c-15.1,9.9-25.3,27.3-42.3,33.4c-9.1,3.2-19,2.8-28.6,3.1
		c-22.7,0.8-45.3,6.1-65.9,15.6c-4.9,2.3-10.2,4.9-15.5,4c-5.4-0.8-9.7-4.9-14.9-6.5c-14.9-4.8-33.2,10.7-45.6,1.2
		c1.7-4,3.5-8,5.2-11.9C-130.2,414.1-173.2,199-120.3,4.3c19.2-70.6,49.3-139.3,96.1-195.5c72.5-87,180.7-138.2,291.3-162.5
		s224.9-23.9,338.2-23.5c239.9,0.9,482.1-38.7,718.3,2.9c97.5,17.2,194.7,45.3,278.4,98.2C1704.4-211.4,1789.9-84.7,1886.6-11.7z"/>
	<path class="st5" d="M2614.7,572.4c-3.7,8.7-7.5,17.4-11.2,26.1"/>
	<path class="st4" d="M136.3,596.6c20.2-15.3,39.3-34.7,64.3-39.2c10.7-1.9,21.7-0.9,32.5,0.1c41.4,3.9,82.9,7.8,124.3,11.7
		c-6.2,5.8-12.4,11.6-18.7,17.4c20.2-7.1,44.4-1.4,59.3,14c20.2-11.1,40.6-21.9,61.2-32.3c6.7-3.4,14.6-6.8,21.4-3.6
		c5.7,2.7,8.5,9.1,12.5,14c5.6,6.8,14,10.7,22.2,14.1c30.8,12.7,63.3,20.7,94.9,31.5c28.2,9.7,55.5,21.6,81.8,35.5
		c36.2,19.2,73.2,46.5,81.5,86.7c30-12.6,67.7-3.3,88.5,21.7c30.7-1.8,60,11.5,87.9,24.6c27,12.6,54,25.2,80.9,37.8
		c2.4,1.1,4.9,2.3,7.3,3.4c20.2,9.4,54.6,20.4,59.2,22.9c10.6,5.7-19.6,11.5-20.1,23.7c-1.6,38.7,18,65.1,58.7,89.6
		c23.6,14.2-61.1,38.2-94.3,37.3c-10.8-0.3-21.6-1.9-32.4-1.6c-49.7,1.2-89.6,40-121.8,77.9c-9.8,11.5-19.5,23.4-24.9,37.5
		c-4.6,12.3-5.7,25.8-11.3,37.6c-13.2,27.9-46.5,38.8-76.4,46.3c-121,30.1-244.6,49.6-368.9,58.2c-124.8,8.6-254.7,5.2-368.2-47.2
		c-149.8-69.1-255.4-225.4-263.6-390.2c-2.6-51.7,4.3-105.6,31.1-149.9c23.3-38.6,79.6-85.8,128.9-72.1
		c16.9,4.7,24.6,19.3,38.1,28.8c20.7,14.5,47.2,10.1,70.6,5.5C76.5,631.6,108.8,617.4,136.3,596.6z"/>
	<path class="st4" d="M1112.4,884.3c-3.9,1.1-7.1,3.9-10.1,6.6c-2.8,2.5-5.9,5.7-5.1,9.4c0.7,3.4,4.6,5.5,4.9,9
		c0.4,3.7-3.4,6.4-4.4,9.9c-1.1,4,1.5,8.2,4.9,10.7c3.4,2.4,7.5,3.7,11.1,5.8c5.9,3.4,10.3,8.9,16.3,12.3c3.3,1.8,7.2,2.9,10.7,1.8
		c3.7-1.1,6.4-4.4,9.7-6.5c3.8-2.4,8.3-3.1,12.7-3.8c2.1-0.3,4.3-0.7,6.4-0.3c8.3,1.5,12.4,13.3,20.9,13.3c8.6,0,13.5-12.3,22-11.8
		c1.5,0.1,3.1,0.6,4.6,0.2c1.7-0.5,2.8-2,4.2-3c3.6-2.7,8.6-2.1,12.7-3.9c4.3-1.9,7.1-6.6,6.8-11.3c-0.2-2.9-1.9-6-4.7-6.8
		c-2.9-0.9-5.9,0.9-8.8,1.9c-6.1,2.1-13.2,0.9-18.5-2.9c-5.3-3.8-8.6-10-9.4-16.4c-0.5-4.1-0.2-9-3.5-11.5c-2.7-2-6.7-1.3-9.6,0.3
		c-3,1.6-5.5,4.1-8.6,5.5c-4.9,2.3-10.8,1.7-16,0.2c-5.1-1.5-10-4-14.3-7.3c-3.5-2.7-7-6.9-11.8-6.9c-3.3,0.1-5.6,2.4-8.6,3.5
		C1122.2,884.1,1117.2,882.9,1112.4,884.3z"/>
	<path class="st4" d="M1905.6-5.5c-10.6,46.4-43.3,85.4-54.4,131.7c-4.6,19.1-5.3,39-9.7,58.2c-27.7,121.3-185.7,177.7-213.3,299
		c-10.7,47-0.3,99.9-25.5,140.9c-10.8,17.7-24.8,39.8-36.5,56.6c-5.1,7.3-12.2,7.2-14.3,16c-6.9,27.7,10.5,53.6,21,80.2
		s12.2,72.3-8.4,92c-14.8,14.2-54.4,4.5-71-1.2c-18-6.2-31.9,9.2-48.1,9.2c-17.7,0-37.9-27.2-60.5-20.3
		c-7.2,2.2-18.6,21.4-25.8,23.7c-14.7,4.8-24-11.6-35.1,0.6c-9.8,10.8-5.8,17.1-11.2,34.4c-4.2,13.6-28.6,32.9-41.5,57
		c-5.2,9.7-16,5.6-23.4,6.4c-15.1,1.7,5.6,13.5-8.8,14c-38.5,1.5-63.9-3-81.8-0.9c-4.9,0.6-19.5,2.4-33.4,9.6
		c-15.2,7.9-37.6,15.1-43.9,14.1c-21-3.3-11.2,12.7-26.8,14.4c-23.3,2.6-26.6-6.1-45.4-13.5c-9.9-3.9-19.8,15.4-36.4,14.1
		c-7.9-0.6-22.6,10.8-27.1,17.4c-4.4,6.6,3.3,19.3,6,26.8c5.1,14.2-22.4,34.8-27.9,55.5c-5.5,20.7-0.7,45.7,16.9,57.9
		c9.5,6.6,21.4,8.6,32.9,9.8c46.9,5.1,94.3,0.3,141.4-2.3c279.1-15.5,559.4,45.7,837.6,18.3c35.5-3.5,74-10,98.1-36.3
		c17.2-18.9,24-44.7,30.3-69.5c26.1-104,52.2-208,76.2-312.5c40.1-174.5,74.5-354,52.9-531.8c-4.2-34.4-10.7-69.3-27.2-99.8
		c-15.3-28.5-38.7-52-54.4-80.3c-14.1-25.3-22.3-54.6-42.4-75.4C2039.8-37.9,1960.5-14.1,1905.6-5.5z"/>
	<path class="st4" d="M1604.7,558.3c-0.3,1.2-0.6,2.5-1.7,3.1c-0.9,0.5-2,0.2-3,0.4c-2.5,0.4-3.9,3.1-4.8,5.5
		c-3.2,8.4-6.4,16.9-9.7,25.3c-1.5,3.9-3,8.1-2.2,12.3c0.8,3.9,3.5,7.2,3.7,11.1c0.1,1.9-0.5,3.8-0.9,5.7c-0.8,3.3-1.2,6.6-1.3,9.9
		c-0.1,1.8,0.3,4.1,2,4.6c1,0.3,2.1-0.2,2.9-0.8c1.5-1.1,2.4-2.7,3.4-4.3c4.3-7.4,8.1-15,12-22.6c2-4,4-7.9,6.1-11.9
		c0.5-0.9,1-1.9,1-2.9c0.1-1.5-0.6-2.9-1-4.3c-1.2-4.8,1.6-9.6,3-14.4c1.7-5.8,1.1-12.1,2.9-17.8c0.6-2,1.5-3.9,1.5-6
		c0.2-5.3-3.6-5.3-7-2.9C1608.3,550.8,1605.7,554.3,1604.7,558.3z"/>
	<path class="st4" d="M1597.7,480.3c-1.1,1.8-1.3,4-1.5,6.1c-0.9,10.7-1.3,21.4-1.3,32.1c0,1.3,0,2.6,0.6,3.7s1.9,2,3.1,1.6
		c0.9-0.3,1.6-1.1,2.1-2c2.9-4.4,5.8-8.7,8.6-13.1c2.2-3.4,4.5-6.8,6.1-10.6c2.2-5.2,3.1-10.8,3-16.4c0-2.2-0.2-14.1-2.7-14.8
		c-1.6-0.5-6.1,6-8,7C1604.4,475.9,1599.9,476.6,1597.7,480.3z"/>
	<path class="st4" d="M1677.7,367.4c1.2-3.1,2.1-6.3,4-8.9c3-4.2,8.2-6.4,11.2-10.7c3-4.2,3.3-9.7,5.4-14.3c1.6-3.5,4.2-6.5,6.7-9.5
		c2.8-3.3,5.7-6.5,9.1-9.1c4.1-3.1,8.9-5.2,12.8-8.5c3.7-3.1,6.5-7.1,10.1-10.3c2.5-2.3,5.4-4.3,8.2-6.2c5.9-4,11.9-8.1,17.8-12.1
		c1.3-0.9,2.7-1.8,4.3-2c1.6-0.2,3.4,0.6,3.8,2.1c0.6,2.2-1.9,4-3.8,5.2c-10.2,6.5-14.9,18.8-23.7,27.1c-3.8,3.6-8.3,6.4-11.9,10.3
		c-6.1,6.7-9.2,16.6-17.3,20.6c-2.2,1.1-4.6,1.6-6.6,3c-2,1.4-3.4,4.1-2.3,6.2c0.3,0.5,0.7,1,0.8,1.6c0.1,0.8-0.4,1.6-1,2.1
		c-2.8,3-6.5,4.9-9.5,7.7c-7.5,7-9.7,18.9-18.4,24.4c-1.8,1.1-6,5.4-7.8,5.6c-2.4,0.2-3.9-3-3.7-5c0.3-3.2,4.4-6.4,6.1-9
		C1674.4,374.6,1676.3,371.1,1677.7,367.4z"/>
</g>
<g id="fond_bleu_-_copie_2">
	<rect class="st6" width="1920" height="1080"/>
</g>
<g id="terres_-_copie_2">
	<g>
		<path class="st3" d="M1242.9,728.8c-9.6,17.7-14.8,38.3-29.9,51.7c-7.4,6.6-20.3,16.7-29.6,15.5c-9.6-1.2-12.6-18.5-25.4-10.6
			c-6.7,4.1-9.3,16.5-0.6,23.4c5.4,4.2-14.3,6.8-18.5,11.4c-4.2,4.5-13.3,9.9-14.4,15.9c-1.7,9.3,7.4,20.1,11.4,27.9
			c1.8,3.4,1.5,8,5,10.3c9.6,6.3,28,1.7,47.4-5.6c14.9-5.6,30-11.9,44.2-21.5c18.1-12.2,16.4-3.4,26.2-2.6
			c7.2,0.6,19.2-5.2,24.4-10.3c6.9-6.9,5.1-21.4,14.8-20.2c6.3,0.8,7.7,13.2,14.1,12.7c9.8-0.8,16.7,2.7,21.1,3.4
			c17.7,2.6,26.6-4.9,42.6,2.8c13.5,6.5,31.4-1.5,41.8,6.9c7,5.6,12.9,12.8,21.1,16.3c16.9,7.3,37,2.3,49-11.6
			c12-13.9,29.1-33.1,34.6-58.2c2.6-11.8,18.6-3.4,21.5-12.6c1.3-4.1-5.5-23.3-7.1-27.4c-5.5-14.2-3.8-25.4-0.4-40.2
			c5.2-22.6,10.1-23.4,19.6-44.6c8.5-19.1,22.5-20.5,16.6-36.1c-5.5-14.5-6.4-38.6,0-45.1c8.8-8.9,16.5-29.6,17.1-35.1
			c1.5-14.5-6.8-25.5-6-33.6c3-33.1,18.1-37.6,11.5-45.1c-5.2-6-12.8,5.1-17.6,5c-7.9-0.2-13.5-6-21.1,2.5
			c-6.2,6.9-12.8,13.8-16.6,25.5c-3.8,11.9-18.9,14.6-29,22c-22.3,16.4-46.4,30.9-60.6,54.7c-16.1,27.1-19.5,64.5-41.4,87.2
			c-11.9,12.3-27.7,20.2-40.7,31.5c-15.2,13.2-27.2,31.5-46.2,38c-11.5,3.9-27-0.3-35.5-7.6c-4.9-4.2-12.5,4.4-18.6,2.5
			C1260.6,725.1,1249.4,716.8,1242.9,728.8z"/>
	</g>
	<path class="st3" d="M1209.9,717c-3.5,1-6.7,3.2-10.4,3.7c-2.8,0.4-6-0.2-8.1,1.8c-1.2,1.2-1.6,2.9-2.1,4.4
		c-1.1,3.3-3.2,6.3-5.9,8.5c-0.9,0.7-1.8,1.4-2.4,2.4c-0.8,1.5-0.4,3.4-1.3,4.8c-1.6,2.9-6.2,2.3-8.6,4.6c-1.8,1.7-2,4.8-4.1,6.2
		c-2.1,1.4-5.2,0.2-7.4,1.4c-1.5,0.9-2.2,2.7-2.8,4.4c-1.3,3.9-2.5,7.8-3.8,11.6c-0.4,1.3-0.8,2.7-0.1,3.9c1.2,2,4.2,1.3,6.5,0.8
		c4.8-1.1,10-0.2,14,2.5c4.3,2.9,7.4,7.5,12.1,9.6c0.8,0.3,1.6,0.6,2.4,0.5c0.9-0.1,1.7-0.6,2.5-1c5.8-3.5,11.7-7,17.5-10.5
		c3.5-2.1,7.3-4.8,7.7-8.8c0.1-1.3-0.2-2.7,0.4-4c0.8-1.8,2.9-2.4,4.7-3.2c5.4-2.5,9-8.5,8.6-14.4c-0.1-0.8-0.2-1.5-0.1-2.3
		c0.1-1.2,0.8-2.4,1.4-3.4c1.4-2.3,2.8-4.7,4.2-7C1241.3,723,1217.4,714.9,1209.9,717z"/>
	<path class="st3" d="M1322,539.4c-2.3,2.5-4.7,5-6.1,8.1c-1.9,4-2.1,8.9-4.7,12.4c-1.5,2.1-3.8,3.6-5.4,5.6
		c-2.3,3.1-2.9,7.1-3.9,10.9c-2.6,9.3-8.7,17.6-16.7,22.9c-2.4,1.6-5.1,2.9-8,3c-2.3,0-4.9-0.7-6.8,0.5c-1.4,0.9-2.1,2.7-2.6,4.3
		c-2.5,7.7-5.1,15.3-7.6,23c-1,2.9-2.1,6-4.7,7.6c-2.4,1.4-5.4,1.2-7.9,2.6c-5,2.7-5.1,10-9,14.2c-4.9,5.3-14.3,4.1-19.1,9.5
		c-2.3,2.6-3,6.2-3.6,9.6c-1.9,10.2-3.7,20.5-5.6,30.7c-0.3,1.8-0.6,3.8,0.4,5.3c1.1,1.6,3.2,1.9,5.1,2.2
		c11.1,1.4,22.3,2.9,33.4,4.3c13.1,1.7,26.3,3.4,39.4,5.1c16.1,2.1,34.3,3.5,46.6-7.1c6.1-5.3,10.1-13.1,17.4-16.6
		c3.6-1.7,7.7-2.1,11.2-3.9c5.9-3.1,9.2-9.7,14.6-13.6c3.7-2.7,8.2-3.9,12.2-6.1c13.9-7.5,19.7-24.1,25.6-38.8
		c4.1-10.3,8.7-20.3,13.3-30.4c2.1-4.6,4.3-9.3,6.4-13.9c3.8-8.3,7.7-16.7,12.9-24.1c15.9-22.6,42.7-34.6,63.4-53
		c13.1-11.7,23.6-25.9,34.1-40c-14.1-2.8-29-5.5-42.5-0.5c-6.8,2.6-12.9,7-20,8.9c-12.8,3.4-26.8-2.3-39.5,1.7
		c-3.6,1.1-7,3-10.7,3.8c-7.3,1.5-14.8-1.8-22.3-1.9c-12.8-0.2-23.6,8.2-35,12.7c-2.8,1.1-5.7,2.1-8.6,2.6c-2.7,0.5-6.3-0.5-8.8,0.3
		c-5.7,1.7-12.3,12.1-16.4,16.5C1335.6,524.8,1328.8,532.1,1322,539.4z"/>
	<path class="st3" d="M1879.9,0c-12.4,19.6-14.1,30.1-17.8,53.1c-1.4,8.6-2.1,17.4-4.7,25.7c-2.1,6.6-5.3,12.7-8.4,18.8
		c-9,17.3-18.1,34.7-27.1,52c-19.8,38.1-39.7,76.2-63.1,112.2c-8,12.3-17.6,25.2-31.8,29.2c-5.8,1.6-12.1,1.7-17.2,4.7
		c-9.1,5.4-10.9,17.5-15.7,26.9c-8,15.6-25.3,24.4-35.2,38.8c-9.1,13.3-11.3,30.3-20.4,43.5c-4.5,6.5-10.5,11.8-16.4,17
		c-19.1,16.6-39.6,33-64.2,39.3c-15.2,3.9-31.1,3.7-46.8,4.8c-11.4,0.8-22.8,2.3-34.1,3.8c-3.8,0.5-7.6,1-11.3,1.5
		c-17.2,2.3-34.3,4.5-51.5,6.8c-5.3,0.7-10.7,1.4-15.9,2.7c-5.2,1.3-10.2,3.2-15.2,5.1c-28.7,10.8-55.8,30.2-72.8,55.8
		c-8.2,12.4-13.7,26.6-22.8,38.4c-9.4,12.3-22.5,21.7-30.1,35.2c-3.5,6.2-5.8,13.3-11.1,18.2c-3.4,3.2-7.8,5.1-11.9,7.4
		c-16.9,9.2-30.8,25.5-32.8,44.6c-0.8,7.2-0.7,16.1-7,19.6c-2.4,1.3-5.3,1.5-8,1.8c-15.5,1.8-30.2,9.4-40.6,20.9
		c-7.4,8.2-12.6,18.2-17.6,28.1c-1.6,3.2-3.4,6.7-6.4,8.5c-4.7,2.8-10.7,1.2-16.2,1.6s-11.6,6.1-8.5,10.6
		c-18.8,12.5-39.5,21.9-61.2,28c-0.8-5.3-6.6-8.4-12-8.6c-5.3-0.2-10.5,1.6-15.7,2.3c-19.1,2.4-38.5-13.7-39.8-32.9
		c-0.2-3.3-0.1-6.8-2-9.4c-1.2-1.7-3.1-2.7-4.9-3.7c-7.2-3.9-14.5-7.8-21.7-11.7c-2.1-1.1-4.2-2.3-5.3-4.4c-0.8-1.5-0.9-3.3-1.1-5.1
		c-1.5-11.5-10.3-21.7-21.4-24.9c-0.7,1.9-1.4,3.9-2.1,5.8c-13.7-6.2-32.4-7.2-47.3-5.6c-3.1,0.3-6.4,0.9-8.8,2.9
		c-2.3,1.9-4.9,5.1-7.5,3.6c-1.2-0.7-1.7-2.2-2.5-3.3c-2.9-4-8.9-3.1-13.7-1.7c-14,4-28,8.1-42,12.1c-1.8,0.5-3.9,1-5.5,0
		c-1.4-0.9-2.7-2.8-4.2-2.1c1.7-1.8,0.2-4.9-1.9-6.3s-4.7-1.9-6.5-3.6c-2-1.8-2.7-4.7-3.2-7.3c-1.7-7.8-3.4-15.6-5.1-23.3
		c-1.8-8.1-14.4-9.7-19.8-15.9c-2.8-3.1-4.3-7.2-6.6-10.7c-16.4-24.7-60.4-10.3-80.2-32.4c-2.4-2.7-4.5-5.9-7.7-7.5
		c-5-2.5-10.9-0.2-16.4,1c-32.9,7.1-62.1-26.9-95.8-26.8c-3.7,0-7.5,0.4-11-0.9c-10.8-4-10.3-19.4-16.5-29.2
		c-6.1-9.7-18.9-13.1-30.3-12.2s-22.3,5.1-33.6,7.3c-35.4,6.7-71.7-7.9-107.5-4.5c-28.1,2.7-56.5,16.3-83.3,7.7
		c-8.9-2.9-16.9-8-25.7-11c-15.3-5-32.9-2.7-46.4,6.1c-15.1,9.9-25.3,27.3-42.3,33.4c-9.1,3.2-19,2.8-28.6,3.1
		c-22.7,0.8-45.3,6.1-65.9,15.6c-4.9,2.3-9.9,3.4-14,6c-4.6,3-10.3-1.2-13.4-5.7C12.8,595.8,0,588.1,0,597.8C0,560,0,169.6,0,0
		C73.5,0,1765.4,0,1879.9,0z"/>
	<path class="st7" d="M2614.7,572.4c-3.7,8.7-7.5,17.4-11.2,26.1"/>
	<path class="st3" d="M136.3,596.6c20.2-15.3,39.3-34.7,64.3-39.2c10.7-1.9,21.7-0.9,32.5,0.1c41.4,3.9,82.9,7.8,124.3,11.7
		c-6.2,5.8-12.4,11.6-18.7,17.4c20.2-7.1,44.4-1.4,59.3,14c20.2-11.1,40.6-21.9,61.2-32.3c6.7-3.4,14.6-6.8,21.4-3.6
		c5.7,2.7,8.5,9.1,12.5,14c5.6,6.8,14,10.7,22.2,14.1c30.8,12.7,63.3,20.7,94.9,31.5c28.2,9.7,55.5,21.6,81.8,35.5
		c36.2,19.2,73.2,46.5,81.5,86.7c30-12.6,67.7-3.3,88.5,21.7c30.7-1.8,60,11.5,87.9,24.6c27,12.6,54,25.2,80.9,37.8
		c2.4,1.1,4.9,2.3,7.3,3.4c20.2,9.4,54.6,20.4,59.2,22.9c10.6,5.7-19.6,11.5-20.1,23.7c-1.6,38.7,18,65.1,58.7,89.6
		c23.6,14.2-61.1,38.2-94.3,37.3c-10.8-0.3-21.6-1.9-32.4-1.6c-49.7,1.2-86.2,36.1-118.4,73.9c-36.1,0-731.3,0-890.7,0
		c0-137.3,0-370.9,0-437.6c20.7,14.5,19.3,0.5,42.7-4.1C76.5,631.6,108.8,617.4,136.3,596.6z"/>
	<path class="st3" d="M1112.4,884.3c-3.9,1.1-7.1,3.9-10.1,6.6c-2.8,2.5-5.9,5.7-5.1,9.4c0.7,3.4,4.6,5.5,4.9,9
		c0.4,3.7-3.4,6.4-4.4,9.9c-1.1,4,1.5,8.2,4.9,10.7c3.4,2.4,7.5,3.7,11.1,5.8c5.9,3.4,10.3,8.9,16.3,12.3c3.3,1.8,7.2,2.9,10.7,1.8
		c3.7-1.1,6.4-4.4,9.7-6.5c3.8-2.4,8.3-3.1,12.7-3.8c2.1-0.3,4.3-0.7,6.4-0.3c8.3,1.5,12.4,13.3,20.9,13.3c8.6,0,13.5-12.3,22-11.8
		c1.5,0.1,3.1,0.6,4.6,0.2c1.7-0.5,2.8-2,4.2-3c3.6-2.7,8.6-2.1,12.7-3.9c4.3-1.9,7.1-6.6,6.8-11.3c-0.2-2.9-1.9-6-4.7-6.8
		c-2.9-0.9-5.9,0.9-8.8,1.9c-6.1,2.1-13.2,0.9-18.5-2.9c-5.3-3.8-8.6-10-9.4-16.4c-0.5-4.1-0.2-9-3.5-11.5c-2.7-2-6.7-1.3-9.6,0.3
		c-3,1.6-5.5,4.1-8.6,5.5c-4.9,2.3-10.8,1.7-16,0.2c-5.1-1.5-10-4-14.3-7.3c-3.5-2.7-7-6.9-11.8-6.9c-3.3,0.1-5.6,2.4-8.6,3.5
		C1122.2,884.1,1117.2,882.9,1112.4,884.3z"/>
	<path class="st3" d="M1904.2,0c-10.6,46.4-41.9,79.8-53,126.2c-4.6,19.1-5.3,39-9.7,58.2c-27.7,121.3-185.7,177.7-213.3,299
		c-10.7,47-0.3,99.9-25.5,140.9c-10.8,17.7-24.8,39.8-36.5,56.6c-5.1,7.3-12.2,7.2-14.3,16c-6.9,27.7,10.5,53.6,21,80.2
		s12.2,72.3-8.4,92c-14.8,14.2-54.4,4.5-71-1.2c-18-6.2-31.9,9.2-48.1,9.2c-17.7,0-37.9-27.2-60.5-20.3
		c-7.2,2.2-18.6,21.4-25.8,23.7c-14.7,4.8-24-11.6-35.1,0.6c-9.8,10.8-5.8,17.1-11.2,34.4c-4.2,13.6-28.6,32.9-41.5,57
		c-5.2,9.7-16,5.6-23.4,6.4c-15.1,1.7,5.6,13.5-8.8,14c-38.5,1.5-63.9-3-81.8-0.9c-4.9,0.6-19.5,2.4-33.4,9.6
		c-15.2,7.9-37.6,15.1-43.9,14.1c-21-3.3-11.2,12.7-26.8,14.4c-23.3,2.6-26.6-6.1-45.4-13.5c-9.9-3.9-19.8,15.4-36.4,14.1
		c-7.9-0.6-22.6,10.8-27.1,17.4c-4.4,6.6,8.3,24.6,5.7,31.7c37.2,0,916,0,969.9,0c0-34.2,0-1016,0-1080C1913.1,0,1908.5,0,1904.2,0z
		"/>
	<path class="st3" d="M1604.7,558.3c-0.3,1.2-0.6,2.5-1.7,3.1c-0.9,0.5-2,0.2-3,0.4c-2.5,0.4-3.9,3.1-4.8,5.5
		c-3.2,8.4-6.4,16.9-9.7,25.3c-1.5,3.9-3,8.1-2.2,12.3c0.8,3.9,3.5,7.2,3.7,11.1c0.1,1.9-0.5,3.8-0.9,5.7c-0.8,3.3-1.2,6.6-1.3,9.9
		c-0.1,1.8,0.3,4.1,2,4.6c1,0.3,2.1-0.2,2.9-0.8c1.5-1.1,2.4-2.7,3.4-4.3c4.3-7.4,8.1-15,12-22.6c2-4,4-7.9,6.1-11.9
		c0.5-0.9,1-1.9,1-2.9c0.1-1.5-0.6-2.9-1-4.3c-1.2-4.8,1.6-9.6,3-14.4c1.7-5.8,1.1-12.1,2.9-17.8c0.6-2,1.5-3.9,1.5-6
		c0.2-5.3-3.6-5.3-7-2.9C1608.3,550.8,1605.7,554.3,1604.7,558.3z"/>
	<path class="st3" d="M1597.7,480.3c-1.1,1.8-1.3,4-1.5,6.1c-0.9,10.7-1.3,21.4-1.3,32.1c0,1.3,0,2.6,0.6,3.7s1.9,2,3.1,1.6
		c0.9-0.3,1.6-1.1,2.1-2c2.9-4.4,5.8-8.7,8.6-13.1c2.2-3.4,4.5-6.8,6.1-10.6c2.2-5.2,3.1-10.8,3-16.4c0-2.2-0.2-14.1-2.7-14.8
		c-1.6-0.5-6.1,6-8,7C1604.4,475.9,1599.9,476.6,1597.7,480.3z"/>
	<path class="st3" d="M1677.7,367.4c1.2-3.1,2.1-6.3,4-8.9c3-4.2,8.2-6.4,11.2-10.7c3-4.2,3.3-9.7,5.4-14.3c1.6-3.5,4.2-6.5,6.7-9.5
		c2.8-3.3,5.7-6.5,9.1-9.1c4.1-3.1,8.9-5.2,12.8-8.5c3.7-3.1,6.5-7.1,10.1-10.3c2.5-2.3,5.4-4.3,8.2-6.2c5.9-4,11.9-8.1,17.8-12.1
		c1.3-0.9,2.7-1.8,4.3-2c1.6-0.2,3.4,0.6,3.8,2.1c0.6,2.2-1.9,4-3.8,5.2c-10.2,6.5-14.9,18.8-23.7,27.1c-3.8,3.6-8.3,6.4-11.9,10.3
		c-6.1,6.7-9.2,16.6-17.3,20.6c-2.2,1.1-4.6,1.6-6.6,3c-2,1.4-3.4,4.1-2.3,6.2c0.3,0.5,0.7,1,0.8,1.6c0.1,0.8-0.4,1.6-1,2.1
		c-2.8,3-6.5,4.9-9.5,7.7c-7.5,7-9.7,18.9-18.4,24.4c-1.8,1.1-6,5.4-7.8,5.6c-2.4,0.2-3.9-3-3.7-5c0.3-3.2,4.4-6.4,6.1-9
		C1674.4,374.6,1676.3,371.1,1677.7,367.4z"/>
</g>
<g id="route">
	<g>
		<g>
			<path class="st8" d="M825.1,0c0.8,10.9,0.6,21.9-0.6,32.8c-0.7,6-0.4,14.8-7.5,16.2c-3.5,0.7-5.7,2.1-7.9,5
				c-5.6,7.4-10,15-17.1,21.3c-7.5,6.7-19.8,15.8-30,9.3c-0.8-0.5-2,0-2.2,0.9c-1.3,6.3,2.1,11.5,6.7,15.5c2.9,2.5,6.1,4.4,9,6.9
				c4.5,4,5.5,8.6,5.8,14.4c0.4,7.9,2.8,12.4,8.5,17.8c6.4,6.1,12.7,13.1,19.9,18.3c5.7,4.1,11.4,4.6,18.2,3.5c4.1-0.6,9-2.1,13-0.2
				c4.4,2.1,5.2,6.6,5.6,11.1c0.5,5.6,0.2,11.8,4.2,16.2c3.8,4.3,9.7,4.9,15.1,5c7.8,0.1,14.6,0.2,21.6,3.8
				c5.9,3,11.1,7.1,16.7,10.6c4.7,2.9,9.8,5.6,15.3,6.2c6.8,0.7,12.4-2.3,18.1-5.6c4.7-2.7,9.1-4.4,14.6-3.4
				c4.7,0.9,9.3,2.7,13.8,4.1c9.4,2.9,20.1,5,28.8,9.8c8.2,4.6,12.4,13.1,15.8,21.4c3.1,7.4,5.8,14.9,8.7,22.4
				c5.5,14.2,11.7,28.5,21.6,40.2c10.5,12.3,27.4,20.3,32.3,36.7c2.6,8.7,1.8,18,1.3,26.9c-0.4,7.8-1.4,16.5,1.9,23.8
				c2.4,5.4,6.5,10.7,10.3,15.2c4.6,5.4,11.3,8.5,16.9,12.7c7.2,5.3,14.1,11.6,19,19.2c2.6,4.1,1.8,8,3.1,12.4
				c0.9,3.2,2.8,6.1,4.8,8.6c5.6,7,13,12.7,19.6,18.7c7.3,6.6,14.7,13.2,22,19.8c29,26.1,57.8,52.4,85.6,79.8
				c6.5,6.4,13.2,12.6,19.4,19.3c3,3.3,5.8,6.8,7.9,10.8c1.8,3.5,2.9,7.3,5.4,10.4c4.7,6.1,12.3,10.2,18.8,14.1
				c7,4.2,14.6,6.6,21.8,10.3c7.7,3.9,12.3,11.1,17.8,17.5c6,6.9,12.1,13.7,18.1,20.6c5.8,6.7,11.7,13.8,18.7,19.2
				c6.6,5.1,11.4,3.4,19,1.9c8.5-1.7,17.6,2.8,24.4,7.4c1.6,1.1,3.1-1.5,1.5-2.6c-5.7-3.8-12.2-7-19-8c-3.3-0.5-6.2-0.2-9.4,0.6
				c-2.9,0.8-5.8,1.9-8.9,1.3c-2.6-0.6-4.9-2.3-6.9-4c-7-6-13.1-13.2-19.1-20.1c-5.9-6.9-12.1-13.6-18.1-20.5
				c-4.8-5.6-8.9-11.6-15.5-15.3c-6.9-3.9-14.5-6-21.4-10c-7.4-4.4-16.8-9.2-21.2-16.9c-1.9-3.3-3-7-5-10.2
				c-2.1-3.3-4.6-6.3-7.3-9.2c-25.6-27.1-53.3-52.5-81-77.4c-14.7-13.2-29.3-26.4-44-39.6c-6.6-5.9-13.8-11.5-19.6-18.2
				c-3.4-3.9-5.6-7.8-6-13c-0.3-3.9-1.1-6.6-3.4-9.9c-4.4-6.2-9.4-11.6-15.3-16.3c-5.8-4.7-13.1-8.1-18.5-13.2
				c-4.5-4.3-8.8-10.5-11.6-16.1c-4-8.3-1.9-19.4-1.5-28.3c0.4-8,0.5-16.3-2.2-24c-2.3-6.6-6.6-12.1-11.6-16.9
				c-5.5-5.3-11.8-9.9-17.2-15.4c-5.8-5.9-10.5-12.8-14.4-20c-7.8-14.4-12.6-30.2-18.9-45.3c-2.7-6.4-5.6-13-10.5-18.1
				c-5.5-5.7-12.9-7.9-20.2-10.2c-9-2.8-18-5.9-27.1-8.4c-7.4-2-13.1-0.7-19.6,3c-7,4-13.3,6.8-21.4,4c-6.3-2.2-11.8-6.4-17.3-10.1
				c-5.1-3.4-10.5-6.8-16.5-8.4c-6.4-1.7-13-0.5-19.6-1.3c-18-2.2-5.9-22.7-17.3-30.7c-5-3.5-11.3-1.9-16.9-1c-5,0.8-9.5,0.8-14-1.9
				c-3.9-2.4-7.1-5.8-10.4-8.9c-6.9-6.5-17.4-13.3-18.3-23.4c-0.7-7.2-0.6-13.3-6.3-18.6c-5.8-5.5-17.5-10.2-15.5-20
				c-0.7,0.3-1.5,0.6-2.2,0.9c8.5,5.4,18.7,1.4,26.2-3.9c9-6.3,16.5-14.5,22.3-23.8c1.8-2.8,3.5-6.2,6.9-7.3
				c2.2-0.7,4.4-0.3,6.4-1.7c3.3-2.4,3.6-7.1,4.2-10.8c2-13.2,2.5-26.5,1.6-39.7C828-1.9,825-1.9,825.1,0L825.1,0z"/>
		</g>
	</g>
	<g>
		<g>
			<path class="st9" d="M1304,627c1.4-27.3-10.3-54.7-30.9-72.7c-12.2-10.6-28-15.5-39.5-27c-5.5-5.5-10.3-11.6-15.5-17.2
				c-5.4-5.9-11.3-11.3-17.3-16.5c-23.9-20.4-50.7-37.5-68.5-64c-16.6-24.6-26.2-52.9-39.9-79.1c-6.5-12.5-14-24.5-23.4-35
				c-5.1-5.8-11-10.8-16.3-16.4c-6.3-6.7-10.3-14.2-12.9-23c-4.2-14.4-7.1-27.8-16.4-40c-8.5-11.2-19.6-20.1-30.7-28.7
				c-11.8-9-27.5-18.6-31.7-33.9c-4.1-15.1,9.6-23.9,15.4-35.9c2.1-4.4,3.1-9.9,1.3-14.5c-1.6-4.1-5.8-6.5-9.4-8.7
				c-2.2-1.4-4.5-2.6-6.6-4.1c-3.1-2.2-4.2-4.6-5.8-7.9c-2.4-5.2-5.6-10.3-10.3-13.8c-6.7-5-15.1-4-22.2-7.8
				c-3.9-2.1-6.6-5.9-10.1-8.6c-4.5-3.5-9.2-6.6-13.4-10.4c-9.5-8.5-3.9-23.7-5.8-34.8c-0.9-5.3-4.2-8.9-6.8-13.5
				c-2.4-4.2-4.1-7.3-9.1-7.7c-8.2-0.6-16-2.6-23-7.1c-1.6-1-3.1,1.6-1.5,2.6c5.8,3.7,12.3,6,19.1,6.9c3.8,0.5,7.4-0.1,9.8,3.3
				c1.5,2.1,2.4,4.5,3.9,6.7c1.6,2.4,3.3,4.3,4.1,7.1c1,3.4,1,7.1,1,10.6c-0.1,6-0.7,12.1,0.5,18.1c2,9.9,12,14.7,19.4,20.5
				c3.4,2.6,6,6.2,9.6,8.4c3.2,1.9,6.8,2.7,10.4,3.4c4.1,0.8,8.1,1.7,11.6,4.1c6,4.1,8.4,10.5,11.6,16.7c4.8,9.4,20.9,9.6,20.7,21.8
				c-0.1,6.5-4.5,11.8-8.2,16.7c-3.6,4.7-7.1,9.5-8.9,15.2c-4,12.6,3.9,24.4,12.5,32.9c10.5,10.3,23.4,18.1,34.4,27.8
				c11.3,9.9,21.3,21.5,26.2,36c4.8,14.2,6.2,28.7,16.2,40.6c5.2,6.2,11.5,11.4,17,17.3c5.1,5.5,9.7,11.4,13.8,17.6
				c16.1,24.2,25.7,52,39,77.7c6.5,12.4,13.9,24.4,23.1,35c10.1,11.6,22.1,21.4,34.1,31c12.3,9.7,24.8,19.3,36,30.3
				c10.7,10.6,19.2,23.6,32,31.8c6.8,4.4,14.2,7.5,20.9,12.1c6.2,4.3,11.9,9.5,16.7,15.3c9.4,11.2,16.1,24.8,19.1,39.2
				c1.5,7.2,2,14.5,1.6,21.8C1300.9,628.9,1304,628.9,1304,627L1304,627z"/>
		</g>
	</g>
	<g>
		<g>
			<path class="st9" d="M840.6,0c-0.6,5,0.3,9.5,2.2,14.1c1.6,3.9,2.9,8.9,7.1,10.6c4.5,1.8,9.4,0.2,14,2.7
				c5.2,2.8,8.7,8.1,11.3,13.2c4.5,8.7,5,18.6,9,27.4c1.4,3.2,3.4,6.1,6.3,8.1c4.1,2.7,9.9,2.7,13.3,6.4c3.4,3.7,4.3,7.8,9.4,9.8
				c4.8,2,11.1,0.2,15.2,3.4c3.5,2.7,5.5,7,8.3,10.3c3.6,4.2,8.7,6,13.6,8.2c5.2,2.4,11,4.8,14.9,9.1c6.5,7.3-0.2,12.2-5,17.3
				c-3.9,4.2-1,8.8-2.2,13.8c-1.3,5.2-4.7,9.7-5.5,15c-1.7,11.2,7.3,20.1,15.3,26.3c10.9,8.5,23.3,15,34.6,23
				c1.6,1.1,3.1-1.5,1.5-2.6c-9.7-6.9-20.1-12.6-29.8-19.5c-9.2-6.5-21.8-16.3-18.1-29.2c1.4-4.9,4.6-9.2,5.2-14.3
				c0.4-3.3-1.1-7.7,1.1-10.6c1.6-2.1,4.1-3.4,5.8-5.5c5.4-7,2.2-14.5-4.4-19.3c-4.5-3.3-9.7-5.4-14.8-7.7c-5.6-2.6-9.1-5-12.8-10
				c-2.1-2.9-4.3-6.3-7.6-8.1c-4.6-2.5-10.4-0.6-15.2-3.1c-4.3-2.2-5.2-7.3-8.9-10.1c-3.5-2.7-8.3-2.9-12-5.2
				c-8.1-4.9-8.3-17.6-10.9-25.7c-2.9-8.9-8.1-19.2-16.7-23.6c-5-2.5-14-0.5-16.8-5.6c-3.1-5.7-5.2-12.4-4.4-18.9
				C843.8-1.9,840.8-1.9,840.6,0L840.6,0z"/>
		</g>
	</g>
</g>
<g id="textes">
	<g>
		<path class="st10" d="M96-408.5c1.4-3.7,3.3-7.1,5.7-10.3c0.4-0.5,0.8-1,1.4-1c0.6,0,1.1,0.4,1.4,0.9c2.3,2.6,3.8,5.8,4.5,9.2
			c0.2,0.9,0.3,2-0.1,2.8c-0.4,0.9-1.4,1.5-2.3,1.2c-1.1-0.4-1.2-2-0.6-3c0.6-1,1.7-1.5,2.7-2.1c2-1.2,3.8-2.8,5.1-4.8
			c0.2,1.2,0.4,2.4,1.1,3.4c0.7,1,2.1,1.5,3.2,0.9c0.7-0.4,1-1.2,1.2-2c0.4-1.6,0.4-3.4-0.6-4.7s-3.3-1.5-4.2-0.2
			c-0.6,0.8-0.5,1.9-0.4,2.9c0.1,0.9,0.2,1.8,0.6,2.5s1.4,1.3,2.2,1c0.5-0.2,0.8-0.5,1.1-0.9c1.1-1.5,1.8-3.3,1.8-5.2
			c-1.2,3-1.3,6.4-0.3,9.5c0.3,0.9,0.9,1.9,1.8,1.7c0.5-0.1,0.9-0.5,1.2-0.9c2.1-2.8,3.4-6.3,3.7-9.8c-0.8,2.5-0.7,5.3,0.4,7.7
			c1.1-1.7,2.3-3.4,3.6-4.9c0.5-0.5,1.1-1.1,1.8-0.9c0.6,0.2,0.8,0.8,1,1.4c0.4,1.5,0.7,3.1,0.7,4.7c0.4-1.9,1.1-3.7,2-5.4
			c0.3-0.5,0.7-1.1,1.3-1c0.3,0.1,0.6,0.3,0.8,0.6c0.8,1.2,1,2.7,1.6,4c0.6,1.3,2,2.5,3.4,1.9c0.8-0.3,1.2-1,1.6-1.7
			c2.2-4.4,2.1-9.7,1.8-14.6c-0.9,4.5-0.7,9.2,0.5,13.6c0.5,1.8,1.3,3.8,3,4.6c1.7,0.9,4.3-0.3,4.2-2.2"/>
		<path class="st10" d="M141.6-418.9c2.7-0.2,5.3-0.7,7.9-1.6c0,0.1-0.1,0.3-0.1,0.4"/>
		<path class="st10" d="M125.5-427.4c0.9,0.6,2,0.8,3,0.7"/>
		<path class="st10" d="M168.2-416.5c-1.4-0.3-2.9,0.3-3.6,1.5c-0.7,1.2-0.5,2.9,0.4,3.9c2-1.2,3.4-3.2,3.9-5.5c0,1.7,0.4,3.4,1.2,5
			c0.2,0.4,0.5,0.9,1,0.9c0.4,0,0.7-0.2,1-0.5c0.8-0.8,1.6-1.7,2.2-2.7c0.5,1.7,2.7,2.7,4.4,2.1c1.7-0.6,2.8-2.5,2.7-4.3
			c-0.2-1.8-1.4-3.4-3.1-4.2c-1-0.5-2.3-0.6-3.2,0.2c-0.4,0.4-0.6,0.8-0.7,1.3c-0.7,2.1-0.6,4.4,0.2,6.4c0.2,0.6,0.5,1.1,1.1,1.4
			c1,0.5,2.2-0.5,2.9-1.4c3.4-4.8,4.2-11,4.8-16.9c-1.3,5.8-2.5,11.8-1.8,17.7c0.1,1.3,0.4,2.5,1.2,3.5c0.8,1,2.2,1.6,3.3,1
			c0.6-0.3,1-0.8,1.3-1.3c1.6-2.3,2.2-5.1,1.9-7.9c-0.2,1.4-0.4,2.9,0.2,4.2c0.5,1.3,2.1,2.3,3.4,1.8c0.7-0.3,1.2-0.9,1.5-1.6
			c1-2.3,0.1-5.2-1.9-6.5c-1.1-0.7-3-0.7-3.4,0.6c-0.3,1,0.8,2,1.8,2c1,0,2-0.6,2.8-1.2c1.8-1.3,3.6-2.8,4.7-4.8
			c1.1-2,1.4-4.5,0.2-6.5c-1.2,4.9-1.9,9.9-2,14.9c0,1.6,0.5,3.8,2.2,3.8c0.5,0,0.9-0.2,1.3-0.4c2.9-1.6,4.8-4.8,4.9-8.2
			c0.2,9.3,0.4,18.5,0.5,27.8c-0.2-0.4-0.3-0.7-0.5-1.1"/>
		<path class="st10" d="M205.1-415.2c0.1-0.9,1.6-0.9,2.2-0.3c0.7,0.7,0.9,1.7,1.4,2.4c1.5,1.9,4.7,1.2,6.1-0.7
			c1.4-1.9,1.5-4.5,1.3-6.9c-0.1-2.1-0.3-4.3-0.9-6.3c-1.1,0.2-1.4,1.5-1.5,2.5c-0.5,5.6-0.5,11.2,0.1,16.8c0.6-0.8,1.3-1.7,2.3-1.7
			c0.4,0,0.7,0.2,1.1,0.3c2,0.7,4.3,0.2,5.8-1.2c1.5-1.5,2.1-3.8,1.5-5.8c-0.1-0.3-0.3-0.7-0.6-0.8c-0.6-0.4-1.4,0.3-1.6,1
			c-0.6,1.8,0.6,3.9,2.3,4.7c1.7,0.9,3.7,0.8,5.6,0.6"/>
		<path class="st10" d="M94.6-378.3c2.1,1.1,4.7,1,6.6-0.3"/>
		<path class="st10" d="M106-383.3c-0.8-1.7-3.3-1.8-4.7-0.7c-1.4,1.2-1.8,3.2-1.6,5c0.1,1.1,0.8,2.5,2,2.4c0.7-0.1,1.2-0.8,1.5-1.4
			c2.2-4.3,2.6-9.4,2.9-14.3c-0.4,4.9-0.6,9.9,0.6,14.6c0.2,0.8,0.5,1.6,1,2.3c0.5,0.7,1.3,1.2,2.1,1.1c1,0,1.8-0.8,2.3-1.7
			s0.8-1.8,1.4-2.6"/>
		<path class="st10" d="M113-388.7c1-1.7,2.3-3.2,3.7-4.6"/>
		<path class="st10" d="M127.8-393.8c0.3,5.8,0.6,11.7,1,17.5c-0.2-0.1-0.3-0.3-0.4-0.5"/>
		<path class="st10" d="M127.5-384.6c2.8-0.6,5.5-1.3,8.3-1.9c0.9-0.2,1.9-0.7,1.8-1.5"/>
		<path class="st10" d="M137.6-395.8c0.1,6.6,0.4,13.2,1.1,19.8c0-0.2-0.1-0.4-0.1-0.6"/>
		<path class="st10" d="M144.2-383.1c0.7-0.4,1.5-0.7,2.2-1.1c0.2-0.1,0.4-0.2,0.6-0.1c0.4,0.1,0.5,0.5,0.5,0.9
			c0.2,1.6,0.5,3.1,1,4.6c0.5,1.4,1.5,3,2.9,2.9c0.9-0.1,1.7-0.9,2.1-1.7c1.1-1.9,1.2-4.4,0.3-6.4c-0.5-1.1-1.3-2.1-2.4-2.5
			c-1.1-0.4-2.5-0.2-3.2,0.8s-0.3,2.6,0.9,2.9c0.5,0.2,1.1,0,1.6-0.1c3.3-0.8,6.4-2,9.4-3.5c-0.8,1.8-0.9,3.9-0.3,5.9
			c0.4,1.4,1.5,2.9,2.9,2.9c1.4,0,2.4-1.4,3-2.7c0.6-1.4,1-2.9,1.1-4.4c-0.2,1.5-0.2,3.1,0.2,4.6c0.2,0.6,0.4,1.3,0.9,1.8
			c1.1,1.1,3.1,0.6,4.1-0.5c1-1.1,1.4-2.7,1.7-4.2c0.1-0.7,0.3-1.4-0.1-2c-0.3-0.6-1.4-0.8-1.7-0.2c1.6,1.2,4.1,0.9,5.4-0.7"/>
		<path class="st10" d="M184.7-385c-0.7-1.2-2.5-1.4-3.7-0.7c-1.2,0.7-1.9,2.1-2.1,3.4c-0.2,1.1,0,2.3,0.9,2.9
			c0.6,0.4,1.5,0.2,2.1-0.2c0.6-0.4,1-1.1,1.3-1.7c0.7-1.4,1-2.9,1-4.5c0.1,2.9,0.2,5.8,0.3,8.7c0.1,1,0.2,2.3,1.1,2.8
			c0.9,0.5,2.1,0.1,3-0.5c3.3-2.5,4.1-7.7,1.6-11c-0.4-0.6-1.1-1.1-1.8-0.9c-0.9,0.3-0.8,1.7,0,2.2s1.8,0.3,2.6-0.1
			c0.9-0.4,1.7-1,2.3-1.8c0.1,0.8,0.3,1.6,0.4,2.4c0.2,1.5,0.5,3.1,1.5,4.2c1,1.1,3.1,1.4,3.9,0.2"/>
		<path class="st10" d="M204.7-384.7c-0.8-1.6-3.3-1.4-4.5,0c-1.2,1.3-1.3,3.2-1.4,5c0,0.7-0.1,1.4,0.2,2.1c0.3,0.6,1,1.2,1.7,1
			c0.6-0.2,1-0.8,1.3-1.4c2.9-6,4.7-12.5,5.2-19.2c-0.6,1.4-0.9,3-1.1,4.5c-0.7,4.1-1,8.2-0.9,12.3c0,2.5,0.5,5.4,2.7,6.4
			c1,0.5,2.2,0.4,3.4,0.2c1.8-0.3,3.9-0.9,4.5-2.6"/>
	</g>
	<g>
		<path class="st10" d="M778.9,191.2c-1.4-0.2-2.9,0.7-3.6,2c-0.7,1.3-0.7,2.8-0.3,4.2c0.5,1.8,1.7,3.5,3.5,4s4-0.6,4.3-2.4"/>
		<path class="st10" d="M783.4,189.6c1.5-1.2,3-2.5,4.5-3.7"/>
		<path class="st10" d="M792.1,200.1c0.4,0.9,1.8,0.9,2.6,0.3c0.8-0.6,1.2-1.6,1.4-2.6c0.5-1.8,0.8-4-0.6-5.3
			c-0.2-0.2-0.4-0.3-0.7-0.3c-0.6-0.1-1,0.6-1.2,1.2c-1.2,3.2-1.2,7.4,1.4,9.7c0.4,0.4,0.9,0.7,1.5,0.5c0.5-0.1,0.8-0.6,1-1
			c0.7-1.2,1.1-2.6,1.3-4c0.2-1.7,0.2-3.7,1.6-4.7c1.3-0.9,3.1-0.3,4.5,0.3c1.5,0.7,3.2,1.4,4.1,2.9c0.9,1.4,0.4,3.8-1.3,4.1
			c-0.4,0.1-0.9,0-1.2-0.3c-0.4-0.4-0.2-1.1,0-1.6c2.3-6.1,4.6-12.2,6.9-18.2c1.2,1.5,1.6,3.5,1.8,5.5s0.3,3.9,0.9,5.7
			s2,3.5,3.9,3.9s4.2-1.1,4.1-3"/>
		<path class="st10" d="M813,188.5c2.2-0.5,4.5-1,6.7-1.5"/>
		<path class="st10" d="M788.9,226.5c1.5-1.8,3-3.7,4.5-5.5c0.8,2.2,1.7,4.4,2.5,6.6c0.6,1.4,1.3,3,2.7,3.6c1.1,0.4,2.5-0.1,3.3-0.9
			c0.9-0.9,1.3-2,1.5-3.2"/>
		<path class="st10" d="M795.1,215.6c0.6,0.2,1.2,0.3,1.8,0.5"/>
		<path class="st10" d="M808.7,220.4c-0.1-1.3-2.1-1.6-3-0.7c-0.9,0.9-1,2.4-1,3.7c0,1.4,0.1,2.9,0.8,4.2c0.7,1.3,2.1,2.2,3.5,2
			c0.9-0.2,1.6-0.7,2.3-1.3c2.2-2,4.3-4.9,3.1-7.7c0.1,2.1,0.6,4.1,1.4,6c0.5,1,1,1.9,1.9,2.5s2.1,0.9,3,0.4
			c1.4-0.7,1.6-2.5,1.7-4.1"/>
		<path class="st10" d="M814.2,187.8c-0.2,0-0.3,0.3-0.2,0.4c0.1,0.2,0.4,0.1,0.5-0.1"/>
		<g>
			<path class="st10" d="M825.8,214.6c1.4,3.5,4.6,6,8.2,6.9c3.6,1,7.4,0.6,11-0.5c2.2-0.7,4.3-1.6,6.1-3.1c2.1-1.8,3.4-4.2,4.6-6.6
				c4.3-9.1,6.2-19.5,5.3-29.5"/>
			<path class="st10" d="M854.6,180.1c2.9-3.6,6.1-7,9.5-10.2c1.6,0.9,2.4,2.9,3,4.6c1,2.7,2,5.4,2.9,8.1c-0.3-0.1-0.6-0.2-0.9-0.3"
				/>
		</g>
	</g>
	<rect x="563.6" y="49.9" class="st11" width="167.6" height="56"/>
	<text transform="matrix(1 0 0 1 572.3461 65.6781)"><tspan x="0" y="0" class="st12 st13 st14">saint adolphe </tspan><tspan x="22.6" y="28.8" class="st12 st13 st14">d’howard</tspan></text>
	<rect x="675.4" y="251.4" class="st11" width="243.1" height="82.3"/>
	<text transform="matrix(1 0 0 1 724.2373 267.2269)"><tspan x="0" y="0" class="st12 st13 st14">1438, chemin </tspan><tspan x="-1.7" y="28.8" class="st12 st13 st14">de Jamboree</tspan></text>
	<rect x="1339.1" y="726.9" class="st11" width="181.3" height="95.7"/>
	<text transform="matrix(1 0 0 1 1340.5826 742.718)"><tspan x="0" y="0" class="st12 st13 st14">environ le milieu </tspan><tspan x="21.1" y="28.8" class="st12 st13 st14">de la ville de </tspan><tspan x="38.6" y="57.6" class="st12 st13 st14">montréal</tspan></text>
	<rect x="965" y="461.3" class="st11" width="159.4" height="85.5"/>
	<text transform="matrix(1 0 0 1 1007.8551 477.0531)"><tspan x="0" y="0" class="st12 st13 st14">la route 15 </tspan><tspan x="-36.1" y="28.8" class="st12 st15 st14">(celle qu’il faut </tspan><tspan x="23.5" y="57.6" class="st12 st15 st14">prendre)</tspan></text>
	<rect x="1173.6" y="266.9" class="st11" width="311.8" height="93.2"/>
	<text transform="matrix(1 0 0 1 1173.5801 282.6815)"><tspan x="0" y="0" class="st12 st15 st14">(évidemment il y a d’autres </tspan><tspan x="0" y="28.8" class="st12 st15 st14">routes dans le Québec mais </tspan><tspan x="0" y="57.6" class="st12 st15 st14">c’était long à tout dessiner)</tspan></text>
	<rect x="1666" y="452.5" class="st11" width="177.6" height="54.5"/>
	<text transform="matrix(1 0 0 1 1665.9916 468.2435)"><tspan x="0" y="0" class="st12 st13 st14">le saint laurent,</tspan><tspan x="0" y="28.8" class="st12 st13 st14">évidemment.</tspan></text>
	<g>
		<g>
			<path class="st12" d="M1695.9,444.6c4.3-9.1-5.4-17.9-11.9-22.9c-8.9-6.9-19.5-11-30.7-12.2c-1.9-0.2-1.9,2.8,0,3
				c8.5,0.9,16.8,3.7,24.1,8.2c6.2,3.9,20,13.8,15.9,22.4C1692.5,444.9,1695.1,446.4,1695.9,444.6L1695.9,444.6z"/>
		</g>
	</g>
	<g>
		<g>
			<path class="st12" d="M1652.7,402.2c-3.3,1.4-6.6,2.7-9.9,4.1c-0.7,0.3-1.4,1-1,1.8c1.7,4.6,4.4,8.2,8.3,11.2
				c1.5,1.2,3-1.4,1.5-2.6c-3.2-2.4-5.6-5.6-6.9-9.4c-0.3,0.6-0.7,1.2-1,1.8c3.3-1.4,6.6-2.7,9.9-4.1
				C1655.3,404.4,1654.5,401.5,1652.7,402.2L1652.7,402.2z"/>
		</g>
	</g>
</g>
</svg>
