<svg width="254" height="189" viewBox="0 0 254 189" fill="none" xmlns="http://www.w3.org/2000/svg">
<path d="M78.3533 23.5025C85.3474 20.3041 93.7319 20.5653 101.207 21.6832C140.735 27.5946 159.657 4.48802 193.426 0.652527C197.236 0.219718 202.346 0.131282 205.482 2.71011C221.764 16.0949 207.947 43.8495 233.55 63.3546C240.904 68.9568 248.158 77.7803 251.776 86.3129C254.363 92.4125 253.629 99.5117 249.952 104.983C245.384 111.777 238.891 118.144 232.507 123.219C205.239 144.901 189.091 130.145 152.525 153.943C148.031 156.868 129.504 189 118.6 189C107.696 189 94.9289 182.707 92.0829 180.182C85.416 174.266 79.0572 167.976 72.4009 162.032C62.3575 153.063 51.6642 143.687 44.4203 132.23C36.1193 119.1 30.7297 100.798 39.4672 86.4429C43.1376 80.4127 48.0104 77.6192 54.1527 74.6605C58.3142 72.6559 61.0609 70.2766 61.0609 65.4989C61.0609 55.5163 59.5922 43.7306 64.363 34.5918C67.179 29.1975 73.0065 25.9476 78.3533 23.5025Z" fill="#E39D24"/>
<path d="M85.7924 22.5969C87.6078 15.5555 93.4448 8.87451 100.272 6.38414C106.841 3.98798 125.253 2.95499 131.401 4.96275C139.903 7.7389 145.079 8.40788 147.342 7.27251C149.921 5.97904 152.055 3.65168 154.538 2.1866C158.382 -0.0818698 163.859 0.112244 168.066 1.20939C179.083 4.08276 198.423 18.368 206.058 27.5273C209.851 32.0771 211.393 37.4163 210.221 43.2514C209.566 46.5123 207.443 48.3355 204.951 50.314C199.911 54.3166 194.863 58.116 190.073 62.4402C185.584 66.4925 181.259 70.4675 177.63 75.3215C174.447 79.5785 171.005 84.0165 166.472 86.9147C155.939 93.6486 145.193 93.9149 134.811 87.2257C130.958 84.7433 127.559 82.563 122.899 81.9621C118.322 81.3717 113.745 82.1684 109.327 80.4963C102.94 78.0786 95.9376 74.9639 91.9252 69.214C87.4288 62.7705 83.2532 54.1627 83.1798 46.1386C83.1074 38.2252 83.8132 30.2733 85.7924 22.5969Z" fill="#005655"/>
<path d="M81.9206 94.7616C80.7377 94.7628 79.5641 94.5533 78.455 94.1427C76.413 93.3465 74.675 91.9265 73.4893 90.0854C72.3036 88.2443 71.7308 86.0763 71.8526 83.8908L75.4044 84.1383C75.3107 85.5595 75.6778 86.9731 76.4514 88.1697C77.225 89.3663 78.364 90.2824 79.6996 90.7823C81.0353 91.2822 82.4967 91.3393 83.8675 90.9452C85.2382 90.5512 86.4454 89.7268 87.3104 88.5943L90.1562 90.7469C89.1808 91.9987 87.9316 93.0112 86.5043 93.707C85.0769 94.4028 83.509 94.7635 81.9206 94.7616V94.7616Z" fill="#EFEAE8"/>
<path d="M136.519 41.7745C135.161 39.2183 132.385 37.3885 129.092 36.8773C125.799 36.366 122.597 37.2702 120.527 39.2936L118.032 36.7535C120.905 33.9497 125.238 32.685 129.636 33.3631C134.034 34.0412 137.78 36.5921 139.661 40.1116L136.519 41.7745Z" fill="#EFEAE8"/>
<path d="M97.8364 24.166C96.9578 24.1674 96.0834 24.046 95.2385 23.8054C93.371 23.2374 91.7116 22.1345 90.466 20.6335C89.2205 19.1325 88.4436 17.2995 88.2318 15.3617L91.7729 15.0227C91.8911 16.2616 92.3801 17.4364 93.1761 18.394C93.9722 19.3517 95.0385 20.048 96.2363 20.3923C97.4341 20.7366 98.708 20.7129 99.8921 20.3244C101.076 19.9359 102.116 19.2005 102.876 18.214L105.695 20.3666C104.759 21.553 103.565 22.5115 102.204 23.1697C100.842 23.8279 99.3489 24.1686 97.8364 24.166V24.166Z" fill="#EFEAE8"/>
<path d="M60.6791 25.1697C60.319 25.1691 59.9591 25.1494 59.6011 25.1105C58.4246 24.9902 57.2834 24.6392 56.2429 24.0777C55.2024 23.5163 54.2831 22.7553 53.5377 21.8385C52.8247 20.8905 52.3074 19.8105 52.016 18.6612C51.7245 17.512 51.6647 16.3164 51.8399 15.1438C51.984 13.9679 52.3608 12.8324 52.9484 11.8032C53.5359 10.774 54.3225 9.8717 55.2624 9.14871L57.3752 11.9956C56.8158 12.4352 56.3491 12.9812 56.0022 13.6019C55.6553 14.2226 55.435 14.9058 55.354 15.612C55.2431 16.3144 55.2726 17.0318 55.441 17.7227C55.6094 18.4137 55.9132 19.0644 56.3349 19.6374C57.2715 20.7188 58.5824 21.4072 60.0055 21.5649C61.4286 21.7225 62.8588 21.3378 64.01 20.4877L66.2737 23.2377C64.6869 24.505 62.711 25.1873 60.6791 25.1697V25.1697Z" fill="#EFEAE8"/>
<path d="M23.1718 86.4309C22.3956 83.4872 19.9379 81.0493 16.537 79.9245C13.136 78.7998 9.69737 79.2518 7.32587 81.1408L5.12146 78.3477C8.45772 75.7161 13.1522 75.0434 17.6742 76.5557C22.1962 78.0679 25.5433 81.3991 26.6266 85.5268L23.1718 86.4309Z" fill="#EFEAE8"/>
<path d="M129.749 20.7218C128.547 17.1054 127.351 13.9679 124.898 12.2297C124.217 11.7843 123.443 11.4974 122.635 11.3903C121.827 11.2832 121.006 11.3585 120.231 11.6108C119.803 11.7316 119.41 11.9543 119.087 12.2599C118.764 12.5655 118.521 12.9448 118.377 13.3652L114.944 12.3642C115.241 11.3968 115.771 10.5167 116.487 9.80013C117.202 9.0836 118.083 8.55241 119.051 8.25269C120.361 7.81233 121.755 7.68035 123.125 7.86706C124.495 8.05377 125.803 8.55411 126.947 9.329C130.563 11.8906 132.045 16.3251 133.129 19.6078L129.749 20.7218Z" fill="#EFEAE8"/>
<path d="M46.6335 58.1722C44.5242 58.2106 42.4599 57.5615 40.7534 56.3232C39.0468 55.0849 37.791 53.3249 37.1762 51.31C36.5614 49.295 36.6211 47.1349 37.3464 45.1569C38.0716 43.1789 39.4228 41.4908 41.1952 40.3484L43.1139 43.3406C41.8892 44.2069 41.0044 45.4715 40.6111 46.9178C40.2177 48.364 40.3404 49.9018 40.958 51.2677C41.6881 52.5769 42.8514 53.592 44.2487 54.1389C45.646 54.6857 47.1902 54.7304 48.6169 54.2652L49.8619 57.5964C48.8292 57.9806 47.7355 58.1757 46.6335 58.1722Z" fill="#EFEAE8"/>
<path d="M65.9124 53.6167C64.4752 53.6251 63.0727 53.1765 61.9078 52.3359C59.256 50.3609 58.135 46.6314 59.0782 43.0527L62.5168 43.9729C62.0264 45.7865 62.3929 48.2782 64.0368 49.4783C64.4331 49.7495 64.8833 49.9322 65.3567 50.0139C65.8301 50.0957 66.3157 50.0745 66.7802 49.9519C67.1204 49.8838 67.4415 49.742 67.7209 49.5365C68.0003 49.331 68.2311 49.0668 68.3971 48.7625L71.6309 50.2855C71.2414 51.0663 70.6829 51.7509 69.9959 52.2897C69.3089 52.8286 68.5106 53.2083 67.6587 53.4015C67.088 53.5462 66.5012 53.6185 65.9124 53.6167V53.6167Z" fill="#EFEAE8"/>
<path d="M90.241 45.1609H86.6784C86.6789 43.9959 86.3143 42.86 85.6357 41.9123C84.9571 40.9646 83.9984 40.2528 82.8942 39.8766C81.7899 39.5003 80.5955 39.4786 79.4782 39.8144C78.361 40.1502 77.377 40.8266 76.6642 41.749L73.84 39.5963C75.0088 38.0926 76.6182 36.9902 78.4441 36.4429C80.27 35.8957 82.2214 35.9307 84.0264 36.5431C85.8314 37.1555 87.4002 38.3148 88.5142 39.8595C89.6281 41.4042 90.2318 43.2574 90.241 45.1609V45.1609Z" fill="#EFEAE8"/>
<path d="M105.387 49.6963C105.176 48.5006 104.716 47.3624 104.038 46.3549C103.359 45.3474 102.477 44.4929 101.447 43.8465C100.407 43.2061 99.0004 42.8617 98.3213 43.4375L96.0199 40.7467C98.2459 38.8685 101.345 39.6273 103.323 40.8489C104.779 41.7641 106.028 42.9732 106.989 44.3986C107.949 45.8239 108.601 47.4341 108.901 49.1258L105.387 49.6963Z" fill="#EFEAE8"/>
<path d="M128.229 59.184C126.925 59.2046 125.643 58.8474 124.538 58.1558C123.434 57.4642 122.553 56.4678 122.003 55.287C121.454 54.1062 121.258 52.7917 121.441 51.5025C121.624 50.2133 122.177 49.0046 123.033 48.0226L125.728 50.3474C125.258 50.9313 125.005 51.6605 125.014 52.4099C125.023 53.1594 125.293 53.8824 125.777 54.455C126.261 55.0276 126.93 55.4142 127.668 55.5485C128.407 55.6827 129.169 55.5563 129.825 55.1909L131.662 58.2368C130.626 58.8586 129.439 59.1861 128.229 59.184V59.184Z" fill="#EFEAE8"/>
<path d="M114.534 83.0298C113.097 83.0472 111.683 82.6679 110.448 81.9336C109.213 81.1993 108.206 80.1387 107.537 78.8688C106.868 77.5989 106.563 76.169 106.656 74.7371C106.75 73.3052 107.238 71.9269 108.066 70.7544L110.976 72.7994C110.481 73.5056 110.212 74.3458 110.206 75.2083C110.2 76.0709 110.457 76.9147 110.944 77.6276C111.43 78.3404 112.122 78.8885 112.928 79.1989C113.734 79.5092 114.616 79.5671 115.455 79.3649L116.296 82.8253C115.719 82.9624 115.127 83.031 114.534 83.0298V83.0298Z" fill="#EFEAE8"/>
<path d="M89.1587 73.4667L85.6445 72.9285C85.9104 71.4438 86.6826 70.0967 87.8301 69.1157C88.9776 68.1348 90.4296 67.5805 91.9398 67.5469V67.5469C93.4452 67.5729 94.8957 68.1166 96.0464 69.0861C97.1971 70.0557 97.9777 71.3919 98.2566 72.8693L94.7424 73.4667C94.607 72.8163 94.2575 72.2298 93.7496 71.8007C93.2417 71.3716 92.6046 71.1245 91.9398 71.0988V71.0988C91.279 71.1301 90.6473 71.3796 90.144 71.8082C89.6406 72.2368 89.294 72.8201 89.1587 73.4667V73.4667Z" fill="#EFEAE8"/>
<path d="M137.354 87.2758C136.696 84.8918 135.856 82.1902 134.152 80.2798C132.832 78.7945 130.471 77.5405 128.402 78.3101L127.167 74.9735C130.827 73.6281 134.654 75.4848 136.815 77.9226C138.976 80.3605 140.049 83.5679 140.787 86.3394L137.354 87.2758Z" fill="#EFEAE8"/>
<path d="M117.282 111.671C116.738 111.669 116.199 111.559 115.698 111.348C113.754 110.471 112.146 108.993 111.11 107.132C110.074 105.27 109.666 103.126 109.947 101.015L113.466 101.553C113.302 102.884 113.564 104.232 114.216 105.404C114.868 106.576 115.875 107.512 117.094 108.076C117.151 108.097 117.211 108.111 117.271 108.119C117.073 108.166 116.893 108.269 116.751 108.414C116.609 108.56 116.511 108.743 116.468 108.942L119.95 109.69C119.876 110.045 119.723 110.38 119.502 110.667C119.281 110.955 118.997 111.19 118.673 111.353C118.24 111.566 117.764 111.674 117.282 111.671V111.671Z" fill="#EFEAE8"/>
<path d="M47.9247 92.913C46.6264 92.6384 45.4542 91.9461 44.588 90.9422C43.7217 89.9384 43.2091 88.6785 43.129 87.3559C43.0488 86.0332 43.4055 84.7208 44.1442 83.62C44.883 82.5192 45.963 81.6908 47.2186 81.2619L48.3667 84.6254C47.8497 84.804 47.4054 85.1465 47.1017 85.6007C46.7979 86.055 46.6513 86.596 46.6843 87.1412C46.7173 87.6864 46.928 88.2059 47.2843 88.6203C47.6406 89.0347 48.123 89.3214 48.6577 89.4365L47.9247 92.913Z" fill="#EFEAE8"/>
<path d="M81.446 125.308C80.3279 125.314 79.2227 125.069 78.2121 124.592C75.8945 123.467 74.0889 121.331 72.693 118.064L75.97 116.67C76.9994 119.081 78.2768 120.669 79.7697 121.39C81.1495 122.057 83.2731 121.82 83.9414 120.513L87.1106 122.127C86.0111 124.301 83.7204 125.308 81.446 125.308Z" fill="#EFEAE8"/>
<path d="M24.2122 9.22672C24.1745 8.41377 23.9626 7.61837 23.5906 6.89423C23.2187 6.17008 22.6955 5.53405 22.0563 5.02908C21.4562 4.48857 20.7483 4.08108 19.9791 3.83342C19.2099 3.58576 18.3969 3.50355 17.5936 3.5922C16.672 3.73212 15.939 4.13036 15.7288 4.63622L12.4518 3.21549C13.1632 1.60101 14.888 0.406299 17.0654 0.0780226C18.3769 -0.0933348 19.7099 0.0183297 20.9745 0.405474C22.239 0.792617 23.4056 1.44622 24.3955 2.32214C25.4163 3.15989 26.2455 4.20618 26.8275 5.39065C27.4095 6.57511 27.7307 7.87029 27.7695 9.18905L24.2122 9.22672Z" fill="#EFEAE8"/>
<path d="M9.63293 50.8371C7.50659 50.8461 5.43572 50.16 3.73653 48.8836C2.46419 47.8854 1.45986 46.5875 0.813615 45.1063C0.167367 43.6251 -0.100593 42.0069 0.0337656 40.3969L3.58023 40.7359C3.49928 41.7483 3.67108 42.7649 4.08025 43.6947C4.48943 44.6245 5.12319 45.4385 5.92478 46.0637C6.73816 46.6711 7.68946 47.0681 8.69384 47.2193C9.69822 47.3705 10.7245 47.2711 11.681 46.9301L12.9207 50.2613C11.8681 50.6481 10.7545 50.8431 9.63293 50.8371V50.8371Z" fill="#EFEAE8"/>
<path d="M167.219 64.9638C164.876 64.9632 162.599 64.1922 160.739 62.7701C158.88 61.348 157.541 59.3538 156.93 57.0959L160.363 56.1595C160.678 57.314 161.28 58.3706 162.112 59.2323C162.943 60.0939 163.979 60.7329 165.123 61.0903C166.266 61.4478 167.482 61.5123 168.657 61.2779C169.832 61.0435 170.93 60.5178 171.848 59.749L174.134 62.4721C172.192 64.086 169.745 64.9679 167.219 64.9638V64.9638Z" fill="#EFEAE8"/>
<path d="M171.337 48.3401L167.785 48.0925C167.843 47.2792 167.637 46.4688 167.197 45.7815C166.758 45.0941 166.109 44.5664 165.345 44.2765C164.582 43.9867 163.746 43.95 162.96 44.1721C162.174 44.3941 161.481 44.8631 160.983 45.5093L158.164 43.3567C159.127 42.1048 160.469 41.196 161.99 40.7652C163.511 40.3344 165.131 40.4043 166.609 40.9648C168.088 41.5252 169.346 42.5463 170.197 43.8767C171.049 45.2071 171.448 46.7759 171.337 48.3508V48.3401Z" fill="#EFEAE8"/>
</svg>
