<svg width="47" height="43" viewBox="0 0 47 43" fill="none" xmlns="http://www.w3.org/2000/svg">
<path d="M23.8243 2.33933C20.5393 2.19105 14.0812 -0.857036 10.9528 0.236201C7.69256 1.37841 4.52154 2.99343 2.4486 5.36285C1.25723 6.75839 0.474238 8.34508 0.158157 10.0043C-0.157923 11.6635 0.00108814 13.3523 0.623308 14.9444C1.39133 16.8656 4.22211 20.2588 5.03553 22.1665C6.52789 25.6761 5.37959 28.7233 5.33512 32.5162C5.29064 36.309 6.66069 39.7622 10.2143 42.038C13.6597 44.2556 18.0832 42.0877 22.5458 41.031C27.0083 39.9743 30.1623 40.9814 34.6624 40.052C36.3559 39.7042 38.5189 38.6862 39.9105 37.7878C42.1609 36.3332 50.0503 24.9433 45.7264 20.5714C43.5129 18.3337 46.0931 14.9047 45.1364 12.3931C44.2503 10.0507 41.3342 7.13167 39.3273 5.27488C35.1452 1.40497 28.6485 2.55692 23.8243 2.33933Z" fill="#005655"/>
<path fill-rule="evenodd" clip-rule="evenodd" d="M16.1919 13.8081C16.6382 13.3618 17.2786 13.2786 17.6223 13.6223L31.9341 27.9341C32.2778 28.2778 32.1945 28.9182 31.7482 29.3645C31.3019 29.8108 30.6615 29.894 30.3179 29.5503L16.006 15.2385C15.6623 14.8948 15.7456 14.2544 16.1919 13.8081Z" fill="white"/>
<path fill-rule="evenodd" clip-rule="evenodd" d="M15.8081 29.3645C15.3618 28.9181 15.2786 28.2777 15.6223 27.9341L29.9341 13.6222C30.2778 13.2786 30.9182 13.3618 31.3645 13.8081C31.8108 14.2544 31.894 14.8948 31.5503 15.2385L17.2385 29.5503C16.8948 29.894 16.2544 29.8108 15.8081 29.3645Z" fill="white"/>
</svg>
