<svg width="47" height="43" viewBox="0 0 47 43" fill="none" xmlns="http://www.w3.org/2000/svg">
<path d="M23.8243 2.33933C20.5393 2.19105 14.0812 -0.857036 10.9528 0.236201C7.69256 1.37841 4.52154 2.99343 2.4486 5.36285C1.25723 6.75839 0.474238 8.34508 0.158157 10.0043C-0.157923 11.6635 0.00108814 13.3523 0.623308 14.9444C1.39133 16.8656 4.22211 20.2588 5.03553 22.1665C6.52789 25.6761 5.37959 28.7233 5.33512 32.5162C5.29064 36.309 6.66069 39.7622 10.2143 42.038C13.6597 44.2556 18.0832 42.0877 22.5458 41.031C27.0083 39.9743 30.1623 40.9814 34.6624 40.052C36.3559 39.7042 38.5189 38.6862 39.9105 37.7878C42.1609 36.3332 50.0503 24.9433 45.7264 20.5714C43.5129 18.3337 46.0931 14.9047 45.1364 12.3931C44.2503 10.0507 41.3342 7.13167 39.3273 5.27488C35.1452 1.40497 28.6485 2.55692 23.8243 2.33933Z" fill="#005655"/>
<path fill-rule="evenodd" clip-rule="evenodd" d="M11 12.6429C11 12.0117 11.394 11.5 11.88 11.5H32.12C32.606 11.5 33 12.0117 33 12.6429C33 13.274 32.606 13.7857 32.12 13.7857H11.88C11.394 13.7857 11 13.274 11 12.6429Z" fill="white"/>
<path fill-rule="evenodd" clip-rule="evenodd" d="M11 19.5C11 18.8688 11.394 18.3571 11.88 18.3571H32.12C32.606 18.3571 33 18.8688 33 19.5C33 20.1312 32.606 20.6429 32.12 20.6429H11.88C11.394 20.6429 11 20.1312 11 19.5Z" fill="white"/>
<path fill-rule="evenodd" clip-rule="evenodd" d="M11 26.3572C11 25.726 11.394 25.2143 11.88 25.2143H32.12C32.606 25.2143 33 25.726 33 26.3572C33 26.9883 32.606 27.5 32.12 27.5H11.88C11.394 27.5 11 26.9883 11 26.3572Z" fill="white"/>
</svg>
